<svg width="1240" height="1300" viewBox="0 0 1240 1300" fill="none" xmlns="http://www.w3.org/2000/svg">
<g clip-path="url(#clip0_3_4216)">
<rect width="1240" height="1300" rx="40" fill="#F7F7FE"/>
<path d="M990.311 -95.7303C1017.1 -132.453 1071.9 -132.453 1098.69 -95.7303C1114.75 -73.7201 1142.53 -63.6101 1168.98 -70.1482C1213.11 -81.0566 1255.08 -45.8377 1252 -0.483566C1250.15 26.6999 1264.93 52.2993 1289.4 64.2926C1330.21 84.3027 1339.73 138.261 1308.22 171.025C1289.33 190.662 1284.2 219.773 1295.23 244.686C1313.63 286.251 1286.24 333.702 1241.04 338.545C1213.95 341.447 1191.3 360.448 1183.74 386.623C1171.12 430.295 1119.64 449.035 1081.9 423.691C1059.28 408.501 1029.72 408.501 1007.1 423.691C969.363 449.035 917.877 430.295 905.259 386.623C897.696 360.448 875.052 341.447 847.961 338.545C802.761 333.702 775.365 286.251 793.771 244.686C804.803 219.773 799.67 190.662 780.783 171.025C749.271 138.261 758.785 84.3027 799.603 64.2926C824.067 52.2993 838.847 26.6999 837.001 -0.483566C833.922 -45.8377 875.894 -81.0566 920.024 -70.1482C946.474 -63.6101 974.251 -73.7201 990.311 -95.7303Z" fill="#D0CDFE"/>
</g>
<defs>
<clipPath id="clip0_3_4216">
<rect width="1240" height="1300" rx="40" fill="white"/>
</clipPath>
</defs>
</svg>
