<svg width="343" height="1461" viewBox="0 0 343 1461" fill="none" xmlns="http://www.w3.org/2000/svg">
<rect width="343" height="1461" rx="24" fill="#F7F7FE"/>
<g clip-path="url(#clip0_3_3763)">
<path d="M259.807 399.439C272.298 382.32 297.839 382.32 310.33 399.439C317.816 409.699 330.765 414.412 343.095 411.364C363.667 406.279 383.233 422.697 381.797 443.839C380.937 456.511 387.827 468.445 399.231 474.036C418.259 483.364 422.694 508.517 408.004 523.791C399.2 532.945 396.807 546.515 401.949 558.129C410.53 577.505 397.759 599.625 376.688 601.883C364.059 603.236 353.503 612.093 349.978 624.295C344.096 644.654 320.094 653.389 302.502 641.575C291.958 634.494 278.178 634.494 267.634 641.575C250.042 653.389 226.041 644.654 220.159 624.295C216.633 612.093 206.077 603.236 193.449 601.883C172.378 599.625 159.607 577.505 168.187 558.129C173.33 546.515 170.937 532.945 162.133 523.791C147.443 508.517 151.878 483.364 170.906 474.036C182.31 468.445 189.2 456.511 188.34 443.839C186.904 422.697 206.47 406.279 227.042 411.364C239.372 414.412 252.321 409.699 259.807 399.439Z" fill="#D0CDFE"/>
</g>
<defs>
<clipPath id="clip0_3_3763">
<rect width="343" height="386" fill="white" transform="translate(0 386)"/>
</clipPath>
</defs>
</svg>
