<svg width="1440" height="820" viewBox="0 0 1440 820" fill="none" xmlns="http://www.w3.org/2000/svg">
<rect width="1440" height="820" fill="#F7F7FE"/>
<path fill-rule="evenodd" clip-rule="evenodd" d="M1440 654.798C1422.88 682.117 1389.96 697.692 1356.03 690.707L1299.82 679.136C1272.7 673.553 1244.63 682.388 1225.59 702.495L1187.6 742.63C1156.04 775.966 1102.96 775.966 1071.4 742.63L1033.41 702.495C1014.37 682.388 986.298 673.553 959.18 679.136L902.974 690.707C856.657 700.242 812.221 667.738 807.281 620.708L802.772 577.788C799.699 548.535 780.82 523.328 753.613 512.149L710.669 494.504C664.856 475.681 646.982 420.175 673.202 378.156L693.048 346.351C709.221 320.433 709.221 287.567 693.048 261.649L673.202 229.844C646.982 187.825 664.856 132.319 710.668 113.496L753.613 95.8509C780.82 84.6721 799.699 59.4649 802.772 30.2118L805.945 0H1440V654.798Z" fill="#D0CDFE"/>
<path d="M1271.96 332.837C1271.7 339.021 1265.1 344.232 1260.19 342.871C1258.65 342.408 1257.31 341.434 1256.37 340.104C1254.38 337.12 1256.03 331.244 1259.27 328.57C1260.78 327.339 1262.67 326.701 1264.6 326.772C1266.53 326.843 1268.37 327.618 1269.79 328.956C1270.69 330.135 1271.42 331.442 1271.96 332.837Z" fill="#AA92E1"/>
<path d="M1313.24 334.099C1312.98 340.283 1306.37 345.493 1301.47 344.133C1299.93 343.67 1298.58 342.696 1297.65 341.365C1295.66 338.381 1297.31 332.506 1300.55 329.831C1302.05 328.601 1303.95 327.963 1305.88 328.034C1307.81 328.105 1309.65 328.88 1311.06 330.218C1311.97 331.396 1312.7 332.704 1313.24 334.099Z" fill="#AA92E1"/>
<path d="M1264.06 307.698C1263.33 307.776 1262.6 307.691 1261.9 307.448C1261.21 307.205 1260.57 306.811 1260.04 306.293C1259.52 305.774 1259.1 305.144 1258.84 304.447C1258.57 303.75 1258.46 303.002 1258.51 302.255C1258.56 299.925 1259.49 297.703 1261.11 296.053C1262.72 294.403 1264.9 293.451 1267.19 293.396C1271.26 293.396 1273.87 295.545 1273.87 299.055C1273.88 303.353 1269.09 307.605 1264.06 307.698Z" fill="#AA92E1"/>
<path d="M1293.83 312.228C1293.83 316.959 1289.41 321.505 1285.1 321.505C1283.62 321.489 1282.2 320.887 1281.14 319.825C1280.08 318.764 1279.47 317.326 1279.44 315.815C1279.44 311.919 1284.69 306.368 1288.38 306.43C1289.85 306.49 1291.24 307.128 1292.25 308.209C1293.27 309.29 1293.83 310.731 1293.83 312.228Z" fill="#AA92E1"/>
<path d="M1323.32 299.813C1323.32 304.544 1318.9 309.089 1314.59 309.089C1313.11 309.074 1311.69 308.472 1310.63 307.41C1309.57 306.349 1308.96 304.911 1308.93 303.4C1308.93 299.504 1314.18 293.953 1317.87 294.015C1319.34 294.075 1320.72 294.713 1321.74 295.794C1322.76 296.875 1323.32 298.316 1323.32 299.813Z" fill="#AA92E1"/>
<path d="M1263.53 366.388C1263.53 370.021 1259.65 374.273 1256.35 374.196C1253.74 374.196 1250.72 370.639 1250.72 367.671C1250.72 364.702 1254.97 360.822 1258.17 360.698C1258.9 360.686 1259.62 360.827 1260.29 361.112C1260.96 361.397 1261.57 361.819 1262.07 362.353C1262.57 362.887 1262.96 363.521 1263.21 364.215C1263.47 364.909 1263.57 365.649 1263.53 366.388Z" fill="#AA92E1"/>
<path d="M1245.71 312.877C1247.06 313.609 1248.31 314.524 1249.42 315.598C1250.02 316.335 1250.31 317.28 1250.24 318.235C1250.17 319.19 1249.74 320.079 1249.04 320.716C1247.49 322.505 1245.7 324.066 1243.72 325.354C1242.77 325.964 1241.64 326.196 1240.53 326.005C1239.43 325.814 1238.43 325.213 1237.73 324.318C1236.98 323.482 1236.54 322.406 1236.49 321.276C1236.44 320.147 1236.78 319.035 1237.46 318.134C1238.31 316.638 1239.5 315.376 1240.94 314.46C1242.38 313.544 1244.02 313 1245.71 312.877Z" fill="#AA92E1"/>
<path d="M1246.43 275.322C1249.89 275.322 1251.98 277.285 1251.84 280.254C1251.68 283.671 1247.75 287.459 1244.44 287.381C1243.05 287.232 1241.77 286.567 1240.84 285.514C1239.91 284.46 1239.4 283.093 1239.4 281.676C1239.53 279.896 1240.34 278.24 1241.65 277.055C1242.96 275.869 1244.67 275.248 1246.43 275.322Z" fill="#AA92E1"/>
<path d="M1238.32 343.752C1241.36 343.752 1243.34 345.639 1243.18 348.391C1242.98 351.839 1238.79 355.457 1235.15 355.364C1234.51 355.395 1233.87 355.294 1233.27 355.065C1232.67 354.836 1232.13 354.485 1231.67 354.033C1231.21 353.581 1230.84 353.039 1230.59 352.438C1230.35 351.837 1230.22 351.191 1230.23 350.54C1230.26 347.309 1234.56 343.737 1238.32 343.752Z" fill="#AA92E1"/>
<path d="M1309.17 290.304C1309.01 294.03 1304.62 298.22 1301.13 298.034C1300.54 298.017 1299.96 297.879 1299.42 297.63C1298.88 297.381 1298.39 297.025 1297.99 296.583C1297.59 296.142 1297.28 295.623 1297.07 295.057C1296.87 294.491 1296.78 293.89 1296.8 293.288C1296.91 289.732 1301.49 285.403 1304.91 285.557C1305.51 285.547 1306.1 285.667 1306.65 285.907C1307.2 286.148 1307.69 286.504 1308.09 286.953C1308.49 287.401 1308.8 287.932 1308.99 288.51C1309.17 289.087 1309.24 289.699 1309.17 290.304Z" fill="#AA92E1"/>
<path d="M1282.49 339.285C1283.17 339.857 1285.01 340.692 1285.63 342.083C1285.86 342.833 1285.91 343.625 1285.79 344.399C1285.67 345.174 1285.38 345.909 1284.93 346.551C1283.5 348.446 1281.64 349.962 1279.51 350.973C1278.69 351.183 1277.83 351.202 1277 351.028C1276.16 350.854 1275.38 350.492 1274.7 349.968C1274.26 349.328 1273.96 348.596 1273.82 347.824C1273.68 347.052 1273.72 346.258 1273.91 345.5C1274.66 342.222 1278.57 339.238 1282.49 339.285Z" fill="#AA92E1"/>
<path d="M1269.33 284.599C1266.48 284.599 1264.5 282.914 1264.5 280.393C1264.5 277.579 1268.68 273.297 1271.38 273.359C1272.49 273.413 1273.54 273.866 1274.35 274.636C1275.15 275.406 1275.67 276.444 1275.8 277.564C1275.8 279.354 1275.13 281.076 1273.93 282.382C1272.73 283.689 1271.08 284.481 1269.33 284.599Z" fill="#AA92E1"/>
<path d="M1274.8 370.207C1275.98 370.267 1277.1 370.797 1277.91 371.683C1278.71 372.57 1279.15 373.744 1279.12 374.953C1279 378.463 1275.48 382.173 1272.56 381.849C1271.31 381.586 1270.19 380.845 1269.45 379.777C1268.71 378.709 1268.4 377.393 1268.57 376.097C1268.81 374.545 1269.55 373.119 1270.68 372.05C1271.81 370.98 1273.26 370.331 1274.8 370.207Z" fill="#AA92E1"/>
<path d="M1226.42 282.218C1229.05 282.218 1231.16 284.846 1231.08 288.016C1231.08 290.876 1228.36 293.01 1224.93 292.994C1224.39 293.001 1223.85 292.895 1223.35 292.683C1222.85 292.471 1222.4 292.157 1222.02 291.761C1221.64 291.364 1221.35 290.893 1221.15 290.377C1220.96 289.861 1220.87 289.31 1220.9 288.758C1220.9 285.666 1223.76 282.233 1226.42 282.218Z" fill="#AA92E1"/>
<path d="M1301.34 321.767C1298.31 321.767 1296.48 320.221 1296.41 317.778C1296.52 316.289 1297.19 314.903 1298.29 313.912C1299.39 312.922 1300.82 312.407 1302.28 312.475C1305.09 312.63 1307.82 315.32 1307.63 317.747C1307.43 320.175 1304.88 321.814 1301.34 321.767Z" fill="#AA92E1"/>
<path d="M1218.24 340.419C1215.2 340.419 1213.38 338.873 1213.3 336.43C1213.41 334.941 1214.09 333.554 1215.18 332.564C1216.28 331.574 1217.71 331.058 1219.18 331.127C1221.99 331.282 1224.72 333.972 1224.52 336.399C1224.32 338.827 1221.77 340.465 1218.24 340.419Z" fill="#AA92E1"/>
<path d="M1239.46 305.023C1238.26 304.995 1237.12 304.497 1236.27 303.633C1235.42 302.77 1234.93 301.606 1234.91 300.384C1234.91 297.524 1238.49 294.385 1241.72 294.463C1242.73 294.446 1243.71 294.836 1244.44 295.548C1245.17 296.26 1245.59 297.237 1245.62 298.266C1245.67 300.925 1241.84 305.115 1239.46 305.023Z" fill="#AA92E1"/>
<path d="M1222.41 321.583C1221.21 321.555 1220.07 321.058 1219.22 320.194C1218.37 319.33 1217.88 318.166 1217.86 316.944C1217.86 314.084 1221.44 310.946 1224.67 311.023C1225.68 311.006 1226.66 311.396 1227.39 312.108C1228.12 312.82 1228.54 313.797 1228.57 314.826C1228.62 317.486 1224.79 321.676 1222.41 321.583Z" fill="#AA92E1"/>
<path d="M1290.71 363.328C1289.51 363.3 1288.37 362.803 1287.52 361.939C1286.68 361.075 1286.19 359.911 1286.16 358.689C1286.16 355.829 1289.74 352.69 1292.98 352.768C1293.99 352.751 1294.96 353.141 1295.69 353.853C1296.42 354.565 1296.85 355.542 1296.88 356.571C1296.92 359.23 1293.1 363.42 1290.71 363.328Z" fill="#AA92E1"/>
<path d="M1324.11 284.475C1323.6 284.531 1323.09 284.48 1322.61 284.328C1322.13 284.175 1321.68 283.923 1321.29 283.587C1320.91 283.251 1320.59 282.838 1320.37 282.374C1320.15 281.91 1320.02 281.404 1320 280.888C1319.93 279.288 1320.45 277.719 1321.46 276.49C1322.46 275.26 1323.89 274.458 1325.44 274.24C1325.99 274.124 1326.55 274.131 1327.09 274.262C1327.63 274.393 1328.14 274.644 1328.57 274.997C1329.01 275.35 1329.36 275.796 1329.61 276.304C1329.85 276.812 1329.99 277.369 1330 277.935C1330.09 280.533 1326.7 284.305 1324.11 284.475Z" fill="#AA92E1"/>
<path d="M1237.77 264.747C1237.68 265.957 1237.18 267.096 1236.34 267.964C1235.51 268.832 1234.41 269.373 1233.22 269.493C1232.11 269.433 1231.07 268.934 1230.32 268.101C1229.57 267.269 1229.16 266.171 1229.2 265.04C1229.19 264.389 1229.3 263.741 1229.54 263.135C1229.78 262.529 1230.13 261.976 1230.57 261.508C1231.02 261.04 1231.55 260.666 1232.14 260.407C1232.72 260.148 1233.35 260.01 1233.99 260C1235.08 260.19 1236.07 260.777 1236.76 261.65C1237.46 262.523 1237.82 263.623 1237.77 264.747Z" fill="#AA92E1"/>
<path d="M801.401 529C800.456 534.273 797.677 539.162 795.153 543.811C789.853 553.574 783.913 563.04 777.905 572.376C765.978 590.91 753.275 609.08 738.656 625.583C735.81 628.795 732.826 633.914 728.976 636.118C719.418 641.59 747.145 623.648 756.52 617.868C776.132 605.777 796.152 594.044 817.417 585.072C828.719 580.304 840.702 576.423 853.058 575.991C858.961 575.785 864.565 576.933 868.634 581.545C875.036 588.803 871.077 597.867 866.434 604.953C846.763 634.976 812.766 654.969 781.205 670.193C773.744 673.792 766.063 676.581 758.236 679.23C756.055 679.968 752.09 680.51 750.272 682.139C745.116 686.761 763.105 676.943 769.632 674.646C825.598 654.948 885.633 640.719 945.196 640.218C947.261 640.2 975.895 638.568 971.552 648.285C969.832 652.134 966.054 655.506 963.192 658.159C954.729 666.006 946.789 672.197 937.232 678.966C912.448 696.518 885.629 711.809 856.314 720.226C845.914 723.212 835.257 725.362 824.633 727.367C822.439 727.781 817.576 729.631 815.217 728.778C811.822 727.549 819.072 722.439 821.993 720.314C840.054 707.181 862.482 697.22 884.475 693.292C894.154 691.563 906.591 690.661 915.143 696.686C919.226 699.563 921.862 704.432 924.735 708.412C924.985 708.757 929.348 715.321 927.331 712.291" stroke="#AA92E1" stroke-width="10" stroke-linecap="round"/>
<path fill-rule="evenodd" clip-rule="evenodd" d="M857.119 62.6893C858.36 62.2113 859.627 62.1617 860.881 62.4712C861.398 62.5985 861.86 63.1318 861.63 63.6738C860.88 65.4453 861.943 66.7196 862.746 68.0045C867.86 76.178 874.187 83.3345 881.052 90.023C883.558 92.4644 886.156 94.808 888.698 97.2105C889.043 97.5368 889.532 97.7646 889.291 98.4885C889.051 99.2108 888.463 98.9045 888.117 99.1258C885.489 100.807 883.725 99.005 881.834 97.6644C872.269 90.8855 864.714 82.2399 858.667 72.1981C857.561 70.3606 856.64 68.4246 856.17 66.3159C855.87 64.9724 855.883 63.6496 857.119 62.6893Z" fill="#AA92E1"/>
<path fill-rule="evenodd" clip-rule="evenodd" d="M844.008 92.7489C843.89 91.7362 844.176 91.1486 845.113 90.9893C846.034 90.8325 846.64 91.0085 847.183 91.9165C848.345 93.8584 850.321 94.9214 852.173 96.0518C858.692 100.034 865.484 103.515 872.222 107.094C872.752 107.376 873.314 107.633 873.355 108.416C873.406 109.368 872.517 108.963 872.176 109.336C871.052 110.563 869.815 109.998 868.621 109.507C862.422 106.959 856.156 104.552 850.526 100.796C848.679 99.564 846.871 98.2853 845.191 96.8187C844.448 96.1697 844.495 94.954 843.329 94.5583C842.854 94.3975 842.553 93.5241 842.679 92.7914C842.745 92.4106 842.77 91.9494 843.192 91.859C843.687 91.7527 843.673 92.3322 844.008 92.7489Z" fill="#AA92E1"/>
<path fill-rule="evenodd" clip-rule="evenodd" d="M832.579 116.216C834.198 115.398 835.468 115.493 836.957 116.114C839.827 117.309 842.944 117.325 846.01 117.394C850.063 117.486 854.105 117.306 858.134 116.793C859.155 116.662 860.204 116.719 861.237 116.757C861.631 116.771 862.114 116.836 862.104 117.466C862.097 117.98 861.781 118.111 861.388 118.36C858.321 120.302 854.787 120.102 851.429 120.512C846.852 121.07 842.231 121.163 837.641 120.391C835.956 120.108 834.335 119.624 832.788 118.896C832.125 118.584 831.563 118.187 831.53 117.332C831.495 116.393 832.172 116.294 832.579 116.216Z" fill="#AA92E1"/>
</svg>
