<svg width="375" height="780" viewBox="0 0 375 780" fill="none" xmlns="http://www.w3.org/2000/svg">
<rect width="375" height="780" fill="#F7F7FE"/>
<g clip-path="url(#clip0_3_3670)">
<path d="M231.156 462.733C238.842 454.261 252.158 454.261 259.844 462.733L290.705 496.745C295.347 501.861 302.362 504.118 309.117 502.667L354.525 492.914C365.816 490.488 376.707 498.42 377.864 509.91L382.338 554.348C383.044 561.359 387.501 567.433 393.978 570.21L435.796 588.137C446.573 592.757 450.806 605.817 444.787 615.88L422.001 653.982C418.339 660.104 418.339 667.743 422.001 673.865L444.787 711.966C450.806 722.029 446.573 735.089 435.796 739.709L393.978 757.637C387.501 760.413 383.044 766.487 382.338 773.498L377.864 817.936C376.707 829.426 365.816 837.358 354.525 834.933L309.117 825.179C302.362 823.728 295.347 825.985 290.705 831.101L259.844 865.113C252.158 873.585 238.842 873.585 231.156 865.113L200.295 831.101C195.653 825.985 188.638 823.728 181.883 825.179L136.475 834.933C125.184 837.358 114.293 829.426 113.136 817.936L108.662 773.498C107.956 766.487 103.499 760.413 97.0223 757.637L55.2038 739.709C44.427 735.089 40.1943 722.029 46.2125 711.966L68.9994 673.865C72.6607 667.743 72.6607 660.104 68.9994 653.982L46.2125 615.88C40.1943 605.817 44.427 592.757 55.2038 588.137L97.0224 570.21C103.499 567.433 107.956 561.359 108.662 554.348L113.136 509.91C114.293 498.42 125.184 490.488 136.475 492.914L181.883 502.667C188.638 504.118 195.653 501.861 200.295 496.745L231.156 462.733Z" fill="#D0CDFE"/>
<path d="M296.173 568.595C295.987 573.061 291.219 576.823 287.679 575.841C286.566 575.506 285.594 574.803 284.917 573.842C283.481 571.688 284.676 567.445 287.011 565.514C288.099 564.625 289.465 564.165 290.859 564.216C292.253 564.267 293.583 564.827 294.606 565.793C295.26 566.644 295.788 567.588 296.173 568.595Z" fill="#AA92E1"/>
<path d="M325.98 569.506C325.794 573.972 321.026 577.734 317.486 576.752C316.373 576.417 315.401 575.714 314.724 574.753C313.288 572.599 314.483 568.356 316.817 566.425C317.906 565.536 319.272 565.076 320.666 565.127C322.06 565.178 323.39 565.738 324.413 566.704C325.067 567.555 325.595 568.499 325.98 569.506Z" fill="#AA92E1"/>
<path d="M290.474 550.442C289.947 550.498 289.414 550.437 288.913 550.262C288.411 550.086 287.954 549.802 287.572 549.427C287.189 549.053 286.892 548.598 286.701 548.095C286.509 547.591 286.428 547.051 286.463 546.512C286.499 544.829 287.171 543.225 288.339 542.033C289.506 540.842 291.08 540.155 292.732 540.115C295.669 540.115 297.555 541.667 297.555 544.201C297.566 547.305 294.102 550.375 290.474 550.442Z" fill="#AA92E1"/>
<path d="M311.966 553.713C311.966 557.13 308.777 560.412 305.664 560.412C304.593 560.401 303.568 559.966 302.805 559.199C302.042 558.433 301.602 557.395 301.576 556.303C301.576 553.49 305.368 549.482 308.032 549.527C309.092 549.57 310.094 550.031 310.828 550.811C311.562 551.592 311.97 552.632 311.966 553.713Z" fill="#AA92E1"/>
<path d="M333.259 544.748C333.259 548.165 330.07 551.447 326.957 551.447C325.886 551.436 324.861 551.001 324.098 550.234C323.335 549.468 322.895 548.429 322.869 547.338C322.869 544.525 326.661 540.517 329.325 540.562C330.385 540.605 331.387 541.066 332.121 541.846C332.855 542.627 333.263 543.667 333.259 544.748Z" fill="#AA92E1"/>
<path d="M290.089 592.822C290.089 595.445 287.283 598.515 284.905 598.46C283.02 598.46 280.839 595.892 280.839 593.748C280.839 591.605 283.908 588.802 286.22 588.713C286.745 588.705 287.265 588.806 287.749 589.012C288.234 589.218 288.671 589.523 289.034 589.908C289.397 590.294 289.678 590.752 289.86 591.253C290.041 591.754 290.119 592.288 290.089 592.822Z" fill="#AA92E1"/>
<path d="M277.221 554.182C278.196 554.711 279.096 555.372 279.896 556.147C280.329 556.679 280.542 557.362 280.491 558.051C280.44 558.74 280.128 559.383 279.622 559.842C278.502 561.135 277.21 562.262 275.786 563.192C275.1 563.632 274.279 563.8 273.48 563.662C272.681 563.524 271.961 563.09 271.456 562.444C270.916 561.84 270.601 561.063 270.565 560.247C270.529 559.431 270.775 558.629 271.259 557.978C271.873 556.898 272.738 555.987 273.777 555.325C274.816 554.663 275.999 554.271 277.221 554.182Z" fill="#AA92E1"/>
<path d="M277.738 527.064C280.237 527.064 281.749 528.482 281.65 530.625C281.53 533.093 278.691 535.828 276.302 535.772C275.303 535.665 274.378 535.184 273.707 534.424C273.035 533.663 272.663 532.676 272.663 531.653C272.761 530.367 273.345 529.171 274.291 528.315C275.238 527.46 276.473 527.011 277.738 527.064Z" fill="#AA92E1"/>
<path d="M271.885 576.477C274.077 576.477 275.513 577.839 275.392 579.826C275.25 582.316 272.225 584.928 269.594 584.861C269.133 584.884 268.672 584.811 268.24 584.646C267.808 584.48 267.413 584.227 267.081 583.901C266.748 583.574 266.484 583.182 266.306 582.749C266.128 582.315 266.038 581.848 266.043 581.378C266.065 579.045 269.167 576.466 271.885 576.477Z" fill="#AA92E1"/>
<path d="M323.048 537.882C322.927 540.573 319.76 543.598 317.239 543.464C316.812 543.452 316.392 543.352 316.003 543.172C315.614 542.993 315.264 542.736 314.973 542.417C314.682 542.098 314.457 541.723 314.31 541.315C314.162 540.906 314.096 540.472 314.116 540.037C314.192 537.469 317.502 534.343 319.968 534.455C320.399 534.448 320.827 534.534 321.223 534.708C321.619 534.881 321.974 535.139 322.265 535.463C322.556 535.786 322.777 536.17 322.912 536.587C323.047 537.004 323.093 537.445 323.048 537.882Z" fill="#AA92E1"/>
<path d="M303.779 573.251C304.272 573.664 305.599 574.267 306.048 575.272C306.21 575.813 306.249 576.385 306.161 576.944C306.074 577.503 305.863 578.035 305.544 578.498C304.509 579.866 303.167 580.961 301.631 581.691C301.035 581.843 300.414 581.856 299.813 581.731C299.211 581.605 298.645 581.344 298.157 580.965C297.835 580.503 297.617 579.974 297.519 579.417C297.42 578.859 297.444 578.286 297.587 577.739C298.124 575.372 300.951 573.217 303.779 573.251Z" fill="#AA92E1"/>
<path d="M294.276 533.763C292.216 533.763 290.791 532.546 290.791 530.726C290.791 528.694 293.805 525.602 295.756 525.646C296.555 525.686 297.313 526.013 297.897 526.569C298.482 527.125 298.853 527.874 298.945 528.683C298.945 529.975 298.463 531.219 297.596 532.162C296.729 533.106 295.542 533.678 294.276 533.763Z" fill="#AA92E1"/>
<path d="M298.224 595.579C299.08 595.623 299.886 596.005 300.47 596.646C301.054 597.286 301.368 598.133 301.347 599.007C301.26 601.541 298.717 604.22 296.612 603.986C295.704 603.796 294.9 603.261 294.365 602.49C293.829 601.719 293.602 600.768 293.73 599.833C293.899 598.712 294.435 597.682 295.251 596.91C296.066 596.138 297.114 595.669 298.224 595.579Z" fill="#AA92E1"/>
<path d="M263.293 532.043C265.189 532.043 266.712 533.941 266.658 536.23C266.658 538.295 264.696 539.836 262.219 539.825C261.827 539.83 261.439 539.753 261.077 539.6C260.715 539.447 260.388 539.22 260.115 538.934C259.842 538.648 259.63 538.308 259.49 537.935C259.35 537.562 259.287 537.165 259.303 536.766C259.303 534.533 261.375 532.055 263.293 532.043Z" fill="#AA92E1"/>
<path d="M317.39 560.602C315.198 560.602 313.883 559.485 313.828 557.721C313.907 556.646 314.394 555.645 315.186 554.93C315.978 554.215 317.013 553.842 318.07 553.892C320.097 554.003 322.07 555.946 321.928 557.699C321.785 559.452 319.944 560.635 317.39 560.602Z" fill="#AA92E1"/>
<path d="M257.382 574.07C255.19 574.07 253.875 572.953 253.82 571.189C253.899 570.114 254.386 569.113 255.178 568.398C255.97 567.683 257.005 567.311 258.062 567.36C260.09 567.472 262.062 569.414 261.92 571.167C261.777 572.92 259.936 574.103 257.382 574.07Z" fill="#AA92E1"/>
<path d="M272.708 548.511C271.842 548.491 271.017 548.131 270.405 547.507C269.792 546.884 269.439 546.043 269.42 545.161C269.42 543.096 272.007 540.829 274.341 540.885C275.071 540.873 275.776 541.155 276.303 541.669C276.831 542.183 277.138 542.888 277.158 543.632C277.191 545.552 274.429 548.577 272.708 548.511Z" fill="#AA92E1"/>
<path d="M260.395 560.469C259.53 560.449 258.705 560.089 258.092 559.466C257.48 558.842 257.127 558.001 257.107 557.119C257.107 555.054 259.694 552.787 262.029 552.843C262.758 552.831 263.464 553.113 263.991 553.627C264.518 554.141 264.825 554.846 264.845 555.59C264.878 557.51 262.116 560.535 260.395 560.469Z" fill="#AA92E1"/>
<path d="M309.718 590.612C308.852 590.592 308.027 590.233 307.414 589.609C306.802 588.985 306.449 588.145 306.43 587.263C306.43 585.197 309.016 582.931 311.351 582.987C312.081 582.975 312.786 583.256 313.313 583.77C313.84 584.284 314.147 584.99 314.168 585.733C314.2 587.653 311.438 590.679 309.718 590.612Z" fill="#AA92E1"/>
<path d="M333.831 533.674C333.467 533.714 333.098 533.677 332.749 533.567C332.399 533.457 332.075 533.275 331.797 533.032C331.518 532.789 331.292 532.491 331.131 532.156C330.97 531.821 330.878 531.456 330.861 531.084C330.812 529.928 331.188 528.795 331.916 527.908C332.644 527.02 333.67 526.44 334.795 526.283C335.188 526.199 335.595 526.205 335.985 526.299C336.376 526.394 336.741 526.575 337.055 526.83C337.369 527.084 337.624 527.407 337.802 527.773C337.98 528.14 338.076 528.542 338.083 528.951C338.149 530.827 335.705 533.551 333.831 533.674Z" fill="#AA92E1"/>
<path d="M271.49 519.427C271.424 520.301 271.059 521.124 270.458 521.75C269.857 522.377 269.058 522.768 268.202 522.855C267.401 522.811 266.649 522.451 266.106 521.85C265.564 521.249 265.273 520.456 265.297 519.64C265.29 519.169 265.374 518.701 265.544 518.264C265.714 517.826 265.967 517.427 266.289 517.089C266.61 516.751 266.994 516.481 267.418 516.294C267.843 516.107 268.299 516.007 268.761 516C269.546 516.137 270.256 516.561 270.758 517.191C271.26 517.822 271.52 518.616 271.49 519.427Z" fill="#AA92E1"/>
<path d="M62.3156 664C61.8798 666.426 60.5978 668.675 59.4338 670.813C56.9893 675.304 54.2496 679.658 51.4784 683.953C45.9774 692.479 40.1187 700.837 33.3759 708.428C32.0633 709.906 30.6872 712.26 28.9112 713.274C24.5031 715.791 37.2915 707.538 41.6154 704.88C50.6611 699.318 59.8945 693.92 69.7027 689.793C74.9151 687.6 80.4422 685.814 86.141 685.616C88.8636 685.521 91.4485 686.049 93.3252 688.171C96.2779 691.509 94.4518 695.679 92.3105 698.938C83.2376 712.749 67.5573 721.946 53.0005 728.949C49.5597 730.604 46.0167 731.887 42.4069 733.106C41.4009 733.445 39.5722 733.694 38.7336 734.444C36.3556 736.57 44.6525 732.054 47.6631 730.997C73.4759 721.936 101.165 715.391 128.637 715.16C129.59 715.152 142.796 714.401 140.794 718.871C140 720.641 138.257 722.193 136.938 723.413C133.034 727.023 129.372 729.87 124.964 732.984C113.533 741.058 101.164 748.092 87.6428 751.964C82.8462 753.337 77.9308 754.326 73.0309 755.249C72.0187 755.439 69.7757 756.29 68.688 755.898C67.1219 755.333 70.4658 752.982 71.8133 752.004C80.1432 745.963 90.4878 741.381 100.631 739.574C105.096 738.779 110.832 738.364 114.776 741.136C116.659 742.459 117.875 744.699 119.2 746.53C119.315 746.688 121.328 749.708 120.398 748.314" stroke="#AA92E1" stroke-width="4.23077" stroke-linecap="round"/>
<path fill-rule="evenodd" clip-rule="evenodd" d="M94.2224 431.344C94.8194 431.105 95.429 431.081 96.0319 431.235C96.2808 431.299 96.5028 431.566 96.3923 431.837C96.0315 432.722 96.5426 433.36 96.9292 434.002C99.3888 438.089 102.432 441.667 105.735 445.011C106.94 446.232 108.19 447.404 109.412 448.605C109.578 448.768 109.813 448.882 109.698 449.244C109.582 449.605 109.299 449.452 109.133 449.563C107.869 450.403 107.02 449.502 106.11 448.832C101.51 445.442 97.8758 441.12 94.9671 436.099C94.4348 435.18 93.9921 434.212 93.7657 433.158C93.6217 432.486 93.628 431.825 94.2224 431.344Z" fill="#AA92E1"/>
<path fill-rule="evenodd" clip-rule="evenodd" d="M87.9169 446.374C87.8598 445.868 87.9974 445.574 88.4484 445.495C88.8914 445.416 89.1826 445.504 89.4439 445.958C90.0029 446.929 90.9534 447.461 91.8441 448.026C94.9797 450.017 98.2468 451.758 101.488 453.547C101.743 453.688 102.013 453.817 102.033 454.208C102.058 454.684 101.63 454.481 101.466 454.668C100.925 455.281 100.33 454.999 99.7561 454.753C96.7743 453.479 93.7599 452.276 91.0519 450.398C90.1636 449.782 89.2939 449.143 88.4859 448.409C88.1285 448.085 88.151 447.477 87.5899 447.279C87.3614 447.199 87.217 446.762 87.2776 446.396C87.309 446.205 87.3213 445.975 87.5242 445.929C87.7625 445.876 87.7554 446.166 87.9169 446.374Z" fill="#AA92E1"/>
<path fill-rule="evenodd" clip-rule="evenodd" d="M82.4188 458.108C83.1977 457.699 83.8084 457.747 84.5249 458.057C85.9053 458.655 87.4048 458.663 88.8796 458.697C90.8292 458.743 92.7734 458.653 94.7112 458.396C95.2021 458.331 95.7068 458.359 96.204 458.378C96.3933 458.386 96.6258 458.418 96.621 458.733C96.6174 458.99 96.4655 459.055 96.2762 459.18C94.801 460.151 93.1012 460.051 91.4861 460.256C89.2843 460.535 87.0616 460.582 84.8538 460.196C84.0436 460.054 83.2636 459.812 82.5196 459.448C82.2008 459.292 81.9302 459.094 81.9144 458.666C81.8973 458.197 82.2232 458.147 82.4188 458.108Z" fill="#AA92E1"/>
</g>
<defs>
<clipPath id="clip0_3_3670">
<rect width="380" height="364" fill="white" transform="translate(0 416)"/>
</clipPath>
</defs>
</svg>
