<svg width="375" height="364" viewBox="0 0 375 364" fill="none" xmlns="http://www.w3.org/2000/svg">
<g clip-path="url(#clip0_3_3672)">
<path d="M231.156 46.7327C238.842 38.2609 252.158 38.2609 259.844 46.7327L290.705 80.7452C295.347 85.8615 302.362 88.1179 309.117 86.6671L354.525 76.9136C365.816 74.4884 376.707 82.4198 377.864 93.9102L382.338 138.348C383.044 145.359 387.501 151.433 393.978 154.21L435.796 172.137C446.573 176.757 450.806 189.817 444.787 199.88L422.001 237.982C418.339 244.104 418.339 251.743 422.001 257.865L444.787 295.966C450.806 306.029 446.573 319.089 435.796 323.709L393.978 341.637C387.501 344.413 383.044 350.487 382.338 357.498L377.864 401.936C376.707 413.426 365.816 421.358 354.525 418.933L309.117 409.179C302.362 407.728 295.347 409.985 290.705 415.101L259.844 449.113C252.158 457.585 238.842 457.585 231.156 449.113L200.295 415.101C195.653 409.985 188.638 407.728 181.883 409.179L136.475 418.933C125.184 421.358 114.293 413.426 113.136 401.936L108.662 357.498C107.956 350.487 103.499 344.413 97.0223 341.637L55.2038 323.709C44.427 319.089 40.1943 306.029 46.2125 295.966L68.9994 257.865C72.6607 251.743 72.6607 244.104 68.9994 237.982L46.2125 199.88C40.1943 189.817 44.427 176.757 55.2038 172.137L97.0224 154.21C103.499 151.433 107.956 145.359 108.662 138.348L113.136 93.9102C114.293 82.4198 125.184 74.4884 136.475 76.9136L181.883 86.6671C188.638 88.1179 195.653 85.8615 200.295 80.7452L231.156 46.7327Z" fill="#D0CDFE"/>
<path d="M296.173 152.595C295.987 157.061 291.219 160.823 287.679 159.841C286.566 159.506 285.594 158.803 284.917 157.842C283.481 155.688 284.676 151.445 287.011 149.514C288.099 148.625 289.465 148.165 290.859 148.216C292.253 148.267 293.583 148.827 294.606 149.793C295.26 150.644 295.788 151.588 296.173 152.595Z" fill="#AA92E1"/>
<path d="M325.98 153.506C325.794 157.972 321.026 161.734 317.486 160.752C316.373 160.417 315.401 159.714 314.724 158.753C313.288 156.599 314.483 152.356 316.817 150.425C317.906 149.536 319.272 149.076 320.666 149.127C322.06 149.178 323.39 149.738 324.413 150.704C325.067 151.555 325.595 152.499 325.98 153.506Z" fill="#AA92E1"/>
<path d="M290.474 134.442C289.947 134.498 289.414 134.437 288.913 134.262C288.411 134.086 287.954 133.802 287.572 133.427C287.189 133.053 286.892 132.598 286.701 132.095C286.509 131.591 286.428 131.051 286.463 130.512C286.499 128.829 287.171 127.225 288.339 126.033C289.506 124.842 291.08 124.155 292.732 124.115C295.669 124.115 297.555 125.667 297.555 128.201C297.566 131.305 294.102 134.375 290.474 134.442Z" fill="#AA92E1"/>
<path d="M311.966 137.713C311.966 141.13 308.777 144.412 305.664 144.412C304.593 144.401 303.568 143.966 302.805 143.199C302.042 142.433 301.602 141.395 301.576 140.303C301.576 137.49 305.368 133.482 308.032 133.527C309.092 133.57 310.094 134.031 310.828 134.811C311.562 135.592 311.97 136.632 311.966 137.713Z" fill="#AA92E1"/>
<path d="M333.259 128.748C333.259 132.165 330.07 135.447 326.957 135.447C325.886 135.436 324.861 135.001 324.098 134.234C323.335 133.468 322.895 132.429 322.869 131.338C322.869 128.525 326.661 124.517 329.325 124.562C330.385 124.605 331.387 125.066 332.121 125.846C332.855 126.627 333.263 127.667 333.259 128.748Z" fill="#AA92E1"/>
<path d="M290.089 176.822C290.089 179.445 287.283 182.515 284.905 182.46C283.02 182.46 280.839 179.892 280.839 177.748C280.839 175.605 283.908 172.802 286.22 172.713C286.745 172.705 287.265 172.806 287.749 173.012C288.234 173.218 288.671 173.523 289.034 173.908C289.397 174.294 289.678 174.752 289.86 175.253C290.041 175.754 290.119 176.288 290.089 176.822Z" fill="#AA92E1"/>
<path d="M277.221 138.182C278.196 138.711 279.096 139.372 279.896 140.147C280.329 140.679 280.542 141.362 280.491 142.051C280.44 142.74 280.128 143.383 279.622 143.842C278.502 145.135 277.21 146.262 275.786 147.192C275.1 147.632 274.279 147.8 273.48 147.662C272.681 147.524 271.961 147.09 271.456 146.444C270.916 145.84 270.601 145.063 270.565 144.247C270.529 143.431 270.775 142.629 271.259 141.978C271.873 140.898 272.738 139.987 273.777 139.325C274.816 138.663 275.999 138.271 277.221 138.182Z" fill="#AA92E1"/>
<path d="M277.738 111.064C280.237 111.064 281.749 112.482 281.65 114.625C281.53 117.093 278.691 119.828 276.302 119.772C275.303 119.665 274.378 119.184 273.707 118.424C273.035 117.663 272.663 116.676 272.663 115.653C272.761 114.367 273.345 113.171 274.291 112.315C275.238 111.46 276.473 111.011 277.738 111.064Z" fill="#AA92E1"/>
<path d="M271.885 160.477C274.077 160.477 275.513 161.839 275.392 163.826C275.25 166.316 272.225 168.928 269.594 168.861C269.133 168.884 268.672 168.811 268.24 168.646C267.808 168.48 267.413 168.227 267.081 167.901C266.748 167.574 266.484 167.182 266.306 166.749C266.128 166.315 266.038 165.848 266.043 165.378C266.065 163.045 269.167 160.466 271.885 160.477Z" fill="#AA92E1"/>
<path d="M323.048 121.882C322.927 124.573 319.76 127.598 317.239 127.464C316.812 127.452 316.392 127.352 316.003 127.172C315.614 126.993 315.264 126.736 314.973 126.417C314.682 126.098 314.457 125.723 314.31 125.315C314.162 124.906 314.096 124.472 314.116 124.037C314.192 121.469 317.502 118.343 319.968 118.455C320.399 118.448 320.827 118.534 321.223 118.708C321.619 118.881 321.974 119.139 322.265 119.463C322.556 119.786 322.777 120.17 322.912 120.587C323.047 121.004 323.093 121.445 323.048 121.882Z" fill="#AA92E1"/>
<path d="M303.779 157.251C304.272 157.664 305.599 158.267 306.048 159.272C306.21 159.813 306.249 160.385 306.161 160.944C306.074 161.503 305.863 162.035 305.544 162.498C304.509 163.866 303.167 164.961 301.631 165.691C301.035 165.843 300.414 165.856 299.813 165.731C299.211 165.605 298.645 165.344 298.157 164.965C297.835 164.503 297.617 163.974 297.519 163.417C297.42 162.859 297.444 162.286 297.587 161.739C298.124 159.372 300.951 157.217 303.779 157.251Z" fill="#AA92E1"/>
<path d="M294.276 117.763C292.216 117.763 290.791 116.546 290.791 114.726C290.791 112.694 293.805 109.602 295.756 109.646C296.555 109.686 297.313 110.013 297.897 110.569C298.482 111.125 298.853 111.874 298.945 112.683C298.945 113.975 298.463 115.219 297.596 116.162C296.729 117.106 295.542 117.678 294.276 117.763Z" fill="#AA92E1"/>
<path d="M298.224 179.579C299.08 179.623 299.886 180.005 300.47 180.646C301.054 181.286 301.368 182.133 301.347 183.007C301.26 185.541 298.717 188.22 296.612 187.986C295.704 187.796 294.9 187.261 294.365 186.49C293.829 185.719 293.602 184.768 293.73 183.833C293.899 182.712 294.435 181.682 295.251 180.91C296.066 180.138 297.114 179.669 298.224 179.579Z" fill="#AA92E1"/>
<path d="M263.293 116.043C265.189 116.043 266.712 117.941 266.658 120.23C266.658 122.295 264.696 123.836 262.219 123.825C261.827 123.83 261.439 123.753 261.077 123.6C260.715 123.447 260.388 123.22 260.115 122.934C259.842 122.648 259.63 122.308 259.49 121.935C259.35 121.562 259.287 121.165 259.303 120.766C259.303 118.533 261.375 116.055 263.293 116.043Z" fill="#AA92E1"/>
<path d="M317.39 144.602C315.198 144.602 313.883 143.485 313.828 141.721C313.907 140.646 314.394 139.645 315.186 138.93C315.978 138.215 317.013 137.842 318.07 137.892C320.097 138.003 322.07 139.946 321.928 141.699C321.785 143.452 319.944 144.635 317.39 144.602Z" fill="#AA92E1"/>
<path d="M257.382 158.07C255.19 158.07 253.875 156.953 253.82 155.189C253.899 154.114 254.386 153.113 255.178 152.398C255.97 151.683 257.005 151.311 258.062 151.36C260.09 151.472 262.062 153.414 261.92 155.167C261.777 156.92 259.936 158.103 257.382 158.07Z" fill="#AA92E1"/>
<path d="M272.708 132.511C271.842 132.491 271.017 132.131 270.405 131.507C269.792 130.884 269.439 130.043 269.42 129.161C269.42 127.096 272.007 124.829 274.341 124.885C275.071 124.873 275.776 125.155 276.303 125.669C276.831 126.183 277.138 126.888 277.158 127.632C277.191 129.552 274.429 132.577 272.708 132.511Z" fill="#AA92E1"/>
<path d="M260.395 144.469C259.53 144.449 258.705 144.089 258.092 143.466C257.48 142.842 257.127 142.001 257.107 141.119C257.107 139.054 259.694 136.787 262.029 136.843C262.758 136.831 263.464 137.113 263.991 137.627C264.518 138.141 264.825 138.846 264.845 139.59C264.878 141.51 262.116 144.535 260.395 144.469Z" fill="#AA92E1"/>
<path d="M309.718 174.612C308.852 174.592 308.027 174.233 307.414 173.609C306.802 172.985 306.449 172.145 306.43 171.263C306.43 169.197 309.016 166.931 311.351 166.987C312.081 166.975 312.786 167.256 313.313 167.77C313.84 168.284 314.147 168.99 314.168 169.733C314.2 171.653 311.438 174.679 309.718 174.612Z" fill="#AA92E1"/>
<path d="M333.831 117.674C333.467 117.714 333.098 117.677 332.749 117.567C332.399 117.457 332.075 117.275 331.797 117.032C331.518 116.789 331.292 116.491 331.131 116.156C330.97 115.821 330.878 115.456 330.861 115.084C330.812 113.928 331.188 112.795 331.916 111.908C332.644 111.02 333.67 110.44 334.795 110.283C335.188 110.199 335.595 110.205 335.985 110.299C336.376 110.394 336.741 110.575 337.055 110.83C337.369 111.084 337.624 111.407 337.802 111.773C337.98 112.14 338.076 112.542 338.083 112.951C338.149 114.827 335.705 117.551 333.831 117.674Z" fill="#AA92E1"/>
<path d="M271.49 103.427C271.424 104.301 271.059 105.124 270.458 105.75C269.857 106.377 269.058 106.768 268.202 106.855C267.401 106.811 266.649 106.451 266.106 105.85C265.564 105.249 265.273 104.456 265.297 103.64C265.29 103.169 265.374 102.701 265.544 102.264C265.714 101.826 265.967 101.427 266.289 101.089C266.61 100.751 266.994 100.481 267.418 100.294C267.843 100.107 268.299 100.007 268.761 100C269.546 100.137 270.256 100.561 270.758 101.191C271.26 101.822 271.52 102.616 271.49 103.427Z" fill="#AA92E1"/>
<path d="M62.3156 248C61.8798 250.426 60.5978 252.675 59.4338 254.813C56.9893 259.304 54.2496 263.658 51.4784 267.953C45.9774 276.479 40.1187 284.837 33.3759 292.428C32.0633 293.906 30.6872 296.26 28.9112 297.274C24.5031 299.791 37.2915 291.538 41.6154 288.88C50.6611 283.318 59.8945 277.92 69.7027 273.793C74.9151 271.6 80.4422 269.814 86.141 269.616C88.8636 269.521 91.4485 270.049 93.3252 272.171C96.2779 275.509 94.4518 279.679 92.3105 282.938C83.2376 296.749 67.5573 305.946 53.0005 312.949C49.5597 314.604 46.0167 315.887 42.4069 317.106C41.4009 317.445 39.5722 317.694 38.7336 318.444C36.3556 320.57 44.6525 316.054 47.6631 314.997C73.4759 305.936 101.165 299.391 128.637 299.16C129.59 299.152 142.796 298.401 140.794 302.871C140 304.641 138.257 306.193 136.938 307.413C133.034 311.023 129.372 313.87 124.964 316.984C113.533 325.058 101.164 332.092 87.6428 335.964C82.8462 337.337 77.9308 338.326 73.0309 339.249C72.0187 339.439 69.7757 340.29 68.688 339.898C67.1219 339.333 70.4658 336.982 71.8133 336.004C80.1432 329.963 90.4878 325.381 100.631 323.574C105.096 322.779 110.832 322.364 114.776 325.136C116.659 326.459 117.875 328.699 119.2 330.53C119.315 330.688 121.328 333.708 120.398 332.314" stroke="#AA92E1" stroke-width="4.23077" stroke-linecap="round"/>
<path fill-rule="evenodd" clip-rule="evenodd" d="M94.2224 15.3444C94.8194 15.1054 95.429 15.0806 96.0319 15.2354C96.2808 15.299 96.5028 15.5657 96.3923 15.8367C96.0315 16.7224 96.5426 17.3596 96.9292 18.002C99.3888 22.0887 102.432 25.667 105.735 29.0113C106.94 30.232 108.19 31.4037 109.412 32.605C109.578 32.7681 109.813 32.8821 109.698 33.244C109.582 33.6051 109.299 33.452 109.133 33.5627C107.869 34.4031 107.02 33.5022 106.11 32.832C101.51 29.4425 97.8758 25.1197 94.9671 20.0988C94.4348 19.18 93.9921 18.212 93.7657 17.1577C93.6217 16.4859 93.628 15.8245 94.2224 15.3444Z" fill="#AA92E1"/>
<path fill-rule="evenodd" clip-rule="evenodd" d="M87.9169 30.3744C87.8598 29.868 87.9974 29.5742 88.4484 29.4945C88.8914 29.4161 89.1826 29.5042 89.4439 29.9581C90.0029 30.9291 90.9534 31.4606 91.8441 32.0258C94.9797 34.0169 98.2468 35.7576 101.488 37.5471C101.743 37.6881 102.013 37.8165 102.033 38.2077C102.058 38.6837 101.63 38.4813 101.466 38.6677C100.925 39.2813 100.33 38.9987 99.7561 38.7535C96.7743 37.4794 93.7599 36.2759 91.0519 34.398C90.1636 33.7819 89.2939 33.1425 88.4859 32.4093C88.1285 32.0847 88.151 31.4769 87.5899 31.279C87.3614 31.1986 87.217 30.762 87.2776 30.3956C87.309 30.2052 87.3213 29.9746 87.5242 29.9294C87.7625 29.8762 87.7554 30.166 87.9169 30.3744Z" fill="#AA92E1"/>
<path fill-rule="evenodd" clip-rule="evenodd" d="M82.4188 42.108C83.1977 41.6991 83.8084 41.7466 84.5249 42.0569C85.9053 42.6547 87.4048 42.6626 88.8796 42.697C90.8292 42.7429 92.7734 42.653 94.7112 42.3964C95.2021 42.3311 95.7068 42.3593 96.204 42.3783C96.3933 42.3855 96.6258 42.4178 96.621 42.7332C96.6174 42.9901 96.4655 43.0554 96.2762 43.18C94.801 44.1512 93.1012 44.0509 91.4861 44.2559C89.2843 44.5352 87.0616 44.5815 84.8538 44.1956C84.0436 44.0538 83.2636 43.8121 82.5196 43.448C82.2008 43.2918 81.9302 43.0937 81.9144 42.6658C81.8973 42.1965 82.2232 42.1472 82.4188 42.108Z" fill="#AA92E1"/>
</g>
<defs>
<clipPath id="clip0_3_3672">
<rect width="380" height="364" fill="white"/>
</clipPath>
</defs>
</svg>
