<svg width="843" height="936" viewBox="0 0 843 936" fill="none" xmlns="http://www.w3.org/2000/svg">
<path d="M474.403 -18.6302C505.961 -51.9662 559.039 -51.9662 590.597 -18.6302L628.592 21.5055C647.625 41.6116 675.702 50.447 702.82 44.8642L759.026 33.2931C805.343 23.7578 849.779 56.2623 854.719 103.292L859.228 146.212C862.301 175.465 881.179 200.672 908.386 211.851L951.331 229.496C997.144 248.319 1015.02 303.825 988.798 345.844L968.952 377.649C952.779 403.567 952.779 436.433 968.952 462.351L988.798 494.156C1015.02 536.175 997.143 591.681 951.331 610.504L908.386 628.149C881.179 639.328 862.301 664.535 859.228 693.788L854.719 736.708C849.779 783.738 805.343 816.242 759.026 806.707L702.82 795.136C675.702 789.553 647.625 798.388 628.592 818.495L590.597 858.63C559.039 891.966 505.961 891.966 474.403 858.63L436.408 818.495C417.375 798.388 389.298 789.553 362.18 795.136L305.974 806.707C259.657 816.242 215.221 783.738 210.281 736.708L205.772 693.788C202.699 664.535 183.821 639.328 156.614 628.149L113.669 610.504C67.8566 591.681 49.9824 536.175 76.2021 494.156L96.0483 462.351C112.221 436.433 112.221 403.567 96.0482 377.649L76.2021 345.844C49.9824 303.825 67.8565 248.319 113.669 229.496L156.614 211.851C183.821 200.672 202.699 175.465 205.772 146.212L210.281 103.292C215.221 56.2623 259.657 23.7578 305.974 33.2931L362.18 44.8643C389.298 50.447 417.375 41.6116 436.408 21.5055L474.403 -18.6302Z" fill="#D0CDFE"/>
<g clip-path="url(#clip0_1431_1739)">
<path d="M674.957 448.837C674.699 455.021 668.096 460.232 663.194 458.871C661.652 458.408 660.306 457.434 659.369 456.104C657.38 453.12 659.035 447.244 662.268 444.57C663.775 443.339 665.667 442.701 667.597 442.772C669.528 442.843 671.37 443.618 672.786 444.956C673.692 446.135 674.424 447.442 674.957 448.837Z" fill="#AA92E1"/>
<path d="M716.235 450.099C715.977 456.283 709.374 461.493 704.472 460.133C702.93 459.67 701.584 458.696 700.647 457.365C698.659 454.381 700.313 448.506 703.546 445.831C705.054 444.601 706.945 443.963 708.876 444.034C710.806 444.105 712.648 444.88 714.065 446.218C714.971 447.396 715.702 448.704 716.235 450.099Z" fill="#AA92E1"/>
<path d="M667.064 423.698C666.334 423.776 665.596 423.691 664.902 423.448C664.207 423.205 663.573 422.811 663.044 422.293C662.515 421.774 662.103 421.144 661.838 420.447C661.573 419.75 661.461 419.002 661.509 418.255C661.559 415.925 662.489 413.703 664.106 412.053C665.724 410.403 667.903 409.451 670.191 409.396C674.259 409.396 676.869 411.545 676.869 415.055C676.885 419.353 672.088 423.605 667.064 423.698Z" fill="#AA92E1"/>
<path d="M696.829 428.228C696.829 432.959 692.412 437.505 688.101 437.505C686.617 437.489 685.198 436.887 684.141 435.825C683.085 434.764 682.475 433.326 682.439 431.815C682.439 427.919 687.691 422.368 691.38 422.43C692.848 422.49 694.236 423.128 695.252 424.209C696.269 425.29 696.834 426.731 696.829 428.228Z" fill="#AA92E1"/>
<path d="M726.317 415.813C726.317 420.544 721.9 425.089 717.589 425.089C716.106 425.074 714.686 424.472 713.63 423.41C712.573 422.349 711.963 420.911 711.928 419.4C711.928 415.504 717.179 409.953 720.868 410.015C722.336 410.075 723.724 410.713 724.741 411.794C725.757 412.875 726.322 414.316 726.317 415.813Z" fill="#AA92E1"/>
<path d="M666.532 482.388C666.532 486.021 662.647 490.273 659.353 490.196C656.742 490.196 653.722 486.639 653.722 483.671C653.722 480.702 657.972 476.822 661.174 476.698C661.901 476.686 662.622 476.827 663.292 477.112C663.962 477.397 664.568 477.819 665.071 478.353C665.574 478.887 665.963 479.521 666.214 480.215C666.466 480.909 666.574 481.649 666.532 482.388Z" fill="#AA92E1"/>
<path d="M648.712 428.877C650.062 429.609 651.308 430.524 652.416 431.598C653.016 432.335 653.311 433.28 653.241 434.235C653.17 435.19 652.738 436.079 652.036 436.716C650.485 438.505 648.697 440.066 646.724 441.354C645.775 441.964 644.638 442.196 643.532 442.005C642.425 441.814 641.427 441.213 640.728 440.318C639.981 439.482 639.544 438.406 639.494 437.276C639.444 436.147 639.784 435.035 640.455 434.134C641.306 432.638 642.503 431.376 643.942 430.46C645.382 429.544 647.019 429 648.712 428.877Z" fill="#AA92E1"/>
<path d="M649.426 391.322C652.887 391.322 654.981 393.285 654.845 396.254C654.678 399.671 650.747 403.459 647.438 403.381C646.054 403.232 644.774 402.567 643.843 401.514C642.913 400.46 642.398 399.093 642.398 397.676C642.534 395.896 643.343 394.24 644.654 393.055C645.964 391.869 647.675 391.248 649.426 391.322Z" fill="#AA92E1"/>
<path d="M641.321 459.752C644.357 459.752 646.345 461.639 646.178 464.391C645.981 467.839 641.791 471.457 638.149 471.364C637.51 471.395 636.872 471.294 636.273 471.065C635.674 470.836 635.128 470.485 634.667 470.033C634.207 469.581 633.842 469.039 633.595 468.438C633.348 467.837 633.224 467.191 633.231 466.54C633.261 463.309 637.557 459.737 641.321 459.752Z" fill="#AA92E1"/>
<path d="M712.175 406.304C712.008 410.03 707.621 414.22 704.13 414.034C703.539 414.017 702.957 413.879 702.418 413.63C701.879 413.381 701.394 413.025 700.992 412.583C700.589 412.142 700.277 411.623 700.073 411.057C699.869 410.491 699.778 409.89 699.804 409.288C699.911 405.732 704.494 401.403 707.91 401.557C708.507 401.547 709.099 401.667 709.647 401.907C710.196 402.148 710.688 402.504 711.091 402.953C711.494 403.401 711.799 403.932 711.986 404.51C712.173 405.087 712.237 405.699 712.175 406.304Z" fill="#AA92E1"/>
<path d="M685.49 455.285C686.173 455.857 688.009 456.692 688.632 458.083C688.856 458.833 688.91 459.625 688.789 460.399C688.668 461.174 688.375 461.909 687.934 462.551C686.501 464.446 684.643 465.962 682.515 466.973C681.69 467.183 680.83 467.202 679.997 467.028C679.164 466.854 678.38 466.492 677.703 465.968C677.258 465.328 676.957 464.596 676.82 463.824C676.684 463.052 676.716 462.258 676.914 461.5C677.658 458.222 681.574 455.238 685.49 455.285Z" fill="#AA92E1"/>
<path d="M672.331 400.599C669.477 400.599 667.504 398.914 667.504 396.393C667.504 393.579 671.678 389.297 674.38 389.359C675.486 389.413 676.537 389.866 677.345 390.636C678.154 391.406 678.669 392.444 678.797 393.564C678.797 395.354 678.128 397.076 676.928 398.382C675.727 399.689 674.084 400.481 672.331 400.599Z" fill="#AA92E1"/>
<path d="M677.796 486.207C678.982 486.267 680.098 486.797 680.906 487.683C681.715 488.57 682.151 489.744 682.121 490.953C682 494.463 678.479 498.173 675.564 497.849C674.306 497.586 673.193 496.845 672.452 495.777C671.71 494.709 671.396 493.393 671.572 492.097C671.807 490.545 672.549 489.119 673.678 488.05C674.808 486.98 676.259 486.331 677.796 486.207Z" fill="#AA92E1"/>
<path d="M629.421 398.218C632.047 398.218 634.157 400.846 634.081 404.016C634.081 406.876 631.364 409.01 627.934 408.994C627.391 409.001 626.853 408.895 626.352 408.683C625.851 408.471 625.398 408.157 625.02 407.761C624.642 407.364 624.348 406.893 624.155 406.377C623.961 405.861 623.873 405.31 623.896 404.758C623.896 401.666 626.765 398.233 629.421 398.218Z" fill="#AA92E1"/>
<path d="M704.341 437.767C701.306 437.767 699.484 436.221 699.408 433.778C699.517 432.289 700.192 430.903 701.289 429.912C702.386 428.922 703.818 428.407 705.282 428.475C708.09 428.63 710.822 431.32 710.625 433.747C710.428 436.175 707.878 437.814 704.341 437.767Z" fill="#AA92E1"/>
<path d="M621.237 456.419C618.201 456.419 616.38 454.873 616.304 452.43C616.413 450.941 617.087 449.554 618.184 448.564C619.281 447.574 620.714 447.058 622.178 447.127C624.986 447.282 627.718 449.972 627.521 452.399C627.323 454.827 624.773 456.465 621.237 456.419Z" fill="#AA92E1"/>
<path d="M642.46 421.023C641.261 420.995 640.118 420.497 639.27 419.633C638.422 418.77 637.933 417.606 637.906 416.384C637.906 413.524 641.488 410.385 644.721 410.463C645.732 410.446 646.709 410.836 647.439 411.548C648.169 412.26 648.594 413.237 648.622 414.266C648.668 416.925 644.843 421.115 642.46 421.023Z" fill="#AA92E1"/>
<path d="M625.41 437.583C624.211 437.555 623.068 437.058 622.22 436.194C621.372 435.33 620.883 434.166 620.856 432.944C620.856 430.084 624.439 426.946 627.672 427.023C628.682 427.006 629.659 427.396 630.389 428.108C631.119 428.82 631.545 429.797 631.572 430.826C631.618 433.486 627.793 437.676 625.41 437.583Z" fill="#AA92E1"/>
<path d="M693.714 479.328C692.515 479.3 691.372 478.803 690.524 477.939C689.676 477.075 689.187 475.911 689.16 474.689C689.16 471.829 692.742 468.69 695.975 468.768C696.986 468.751 697.963 469.141 698.693 469.853C699.423 470.565 699.848 471.542 699.876 472.571C699.922 475.23 696.097 479.42 693.714 479.328Z" fill="#AA92E1"/>
<path d="M727.108 400.475C726.604 400.531 726.094 400.48 725.61 400.328C725.125 400.175 724.677 399.923 724.291 399.587C723.906 399.251 723.592 398.838 723.369 398.374C723.146 397.91 723.019 397.404 722.995 396.888C722.928 395.288 723.449 393.719 724.456 392.49C725.464 391.26 726.886 390.458 728.444 390.24C728.988 390.124 729.551 390.131 730.092 390.262C730.633 390.393 731.139 390.644 731.574 390.997C732.009 391.35 732.362 391.796 732.608 392.304C732.854 392.812 732.987 393.369 732.998 393.935C733.089 396.533 729.704 400.305 727.108 400.475Z" fill="#AA92E1"/>
<path d="M640.774 380.747C640.684 381.957 640.178 383.096 639.345 383.964C638.512 384.832 637.406 385.373 636.22 385.493C635.112 385.433 634.07 384.934 633.319 384.101C632.567 383.269 632.165 382.171 632.198 381.04C632.188 380.389 632.304 379.741 632.54 379.135C632.776 378.529 633.126 377.976 633.571 377.508C634.017 377.04 634.548 376.666 635.136 376.407C635.723 376.148 636.355 376.01 636.995 376C638.082 376.19 639.065 376.777 639.76 377.65C640.455 378.523 640.816 379.623 640.774 380.747Z" fill="#AA92E1"/>
<path d="M204.401 645C203.456 650.273 200.677 655.162 198.153 659.811C192.853 669.574 186.913 679.04 180.905 688.376C168.978 706.91 156.275 725.08 141.656 741.583C138.81 744.795 135.826 749.914 131.976 752.118C122.418 757.59 150.145 739.648 159.52 733.868C179.132 721.777 199.152 710.044 220.417 701.072C231.719 696.304 243.702 692.423 256.058 691.991C261.961 691.785 267.565 692.933 271.634 697.545C278.036 704.803 274.077 713.867 269.434 720.953C249.763 750.976 215.766 770.969 184.205 786.193C176.744 789.792 169.063 792.581 161.236 795.23C159.055 795.968 155.09 796.51 153.272 798.139C148.116 802.761 166.105 792.943 172.632 790.646C228.598 770.948 288.633 756.719 348.196 756.218C350.261 756.2 378.895 754.568 374.552 764.285C372.832 768.134 369.054 771.506 366.192 774.159C357.729 782.006 349.789 788.197 340.232 794.966C315.448 812.518 288.629 827.809 259.314 836.226C248.914 839.212 238.257 841.362 227.633 843.367C225.439 843.781 220.576 845.631 218.217 844.778C214.822 843.549 222.072 838.439 224.993 836.314C243.054 823.181 265.482 813.22 287.475 809.292C297.154 807.563 309.591 806.661 318.143 812.686C322.226 815.563 324.862 820.432 327.735 824.412C327.985 824.757 332.348 831.321 330.331 828.291" stroke="#AA92E1" stroke-width="10" stroke-linecap="round"/>
<path fill-rule="evenodd" clip-rule="evenodd" d="M260.119 178.689C261.36 178.211 262.627 178.162 263.881 178.471C264.398 178.598 264.86 179.132 264.63 179.674C263.88 181.445 264.943 182.72 265.746 184.004C270.86 192.178 277.187 199.335 284.052 206.023C286.558 208.464 289.156 210.808 291.698 213.21C292.043 213.537 292.532 213.765 292.291 214.489C292.051 215.211 291.463 214.905 291.117 215.126C288.489 216.807 286.725 215.005 284.834 213.664C275.269 206.885 267.714 198.24 261.667 188.198C260.561 186.361 259.64 184.425 259.17 182.316C258.87 180.972 258.883 179.65 260.119 178.689Z" fill="#AA92E1"/>
<path fill-rule="evenodd" clip-rule="evenodd" d="M247.008 208.749C246.89 207.736 247.176 207.149 248.113 206.989C249.034 206.832 249.64 207.009 250.183 207.916C251.345 209.858 253.321 210.921 255.173 212.052C261.692 216.034 268.484 219.515 275.222 223.094C275.752 223.376 276.314 223.633 276.355 224.416C276.406 225.368 275.517 224.963 275.176 225.336C274.052 226.563 272.815 225.998 271.621 225.507C265.422 222.959 259.156 220.552 253.526 216.796C251.679 215.564 249.871 214.285 248.191 212.819C247.448 212.17 247.495 210.954 246.329 210.558C245.854 210.398 245.553 209.524 245.679 208.791C245.745 208.411 245.77 207.949 246.192 207.859C246.687 207.753 246.673 208.332 247.008 208.749Z" fill="#AA92E1"/>
<path fill-rule="evenodd" clip-rule="evenodd" d="M235.579 232.216C237.198 231.398 238.468 231.493 239.957 232.114C242.827 233.309 245.944 233.325 249.01 233.394C253.063 233.486 257.105 233.306 261.134 232.793C262.155 232.662 263.204 232.719 264.237 232.757C264.631 232.771 265.114 232.836 265.104 233.466C265.097 233.98 264.781 234.111 264.388 234.36C261.321 236.302 257.787 236.102 254.429 236.512C249.852 237.07 245.231 237.163 240.641 236.391C238.956 236.108 237.335 235.624 235.788 234.896C235.125 234.584 234.563 234.187 234.53 233.332C234.495 232.393 235.172 232.294 235.579 232.216Z" fill="#AA92E1"/>
</g>
<defs>
<clipPath id="clip0_1431_1739">
<rect width="803" height="820" fill="white" transform="translate(40 116)"/>
</clipPath>
</defs>
</svg>
