<svg width="48" height="49" viewBox="0 0 48 49" fill="none" xmlns="http://www.w3.org/2000/svg">
<circle cx="24" cy="24.9854" r="24" fill="#1F94AA"/>
<path d="M37.0324 18.0594L24.3702 11.7279C24.2704 11.6779 24.1604 11.6519 24.0488 11.6519C23.9373 11.6519 23.8272 11.6779 23.7275 11.7279L11.0644 18.0594C10.9443 18.1184 10.8434 18.2101 10.7731 18.324C10.7028 18.4378 10.666 18.5692 10.6671 18.703V31.3643C10.6652 31.4988 10.7015 31.6311 10.7719 31.7458C10.8422 31.8605 10.9436 31.9529 11.0644 32.0123L23.7275 38.3439C23.8275 38.393 23.9374 38.4185 24.0488 38.4185C24.1602 38.4185 24.2702 38.393 24.3702 38.3439L37.0342 32.0114C37.1542 31.952 37.255 31.8599 37.3249 31.7457C37.3949 31.6316 37.4312 31.5 37.4297 31.3661V18.703C37.4302 18.5693 37.3933 18.4381 37.323 18.3244C37.2528 18.2107 37.1521 18.1189 37.0324 18.0594ZM30.2359 16.2683L19.5151 21.9643L17.4768 20.9465L28.1977 15.2514L30.2359 16.2683ZM18.8093 23.2167V26.0132L18.2262 25.4301C18.1597 25.3632 18.0806 25.3102 17.9935 25.2742C17.9063 25.2382 17.8129 25.2199 17.7186 25.2203H16.6271V22.127L18.8093 23.2167ZM24.0537 13.1723L26.6182 14.4576L15.8982 20.1519L12.9933 18.7021L24.0537 13.1723ZM23.3328 36.5314L12.1044 30.9216V19.8665L15.1897 21.4087V25.9421C15.19 26.1326 15.2658 26.3153 15.4007 26.45C15.5355 26.5847 15.7183 26.6603 15.9088 26.6603H17.4199L19.0199 28.2603C19.1548 28.3945 19.3373 28.4696 19.5275 28.4692C19.7178 28.4687 19.9001 28.3929 20.0345 28.2582C20.169 28.1236 20.2446 27.9412 20.2448 27.751V23.9359L23.3293 25.4799L23.3328 36.5314ZM24.0484 24.2301L21.0964 22.7563L31.8173 17.0585L35.1062 18.7039L24.0484 24.2301ZM35.9933 30.9216L24.7666 36.5341V25.4799L35.9924 19.8674L35.9933 30.9216Z" fill="white"/>
</svg>
