<svg width="48" height="49" viewBox="0 0 48 49" fill="none" xmlns="http://www.w3.org/2000/svg">
<g clip-path="url(#clip0_3_4545)">
<circle cx="24" cy="24.9854" r="24" fill="#1F94AA"/>
<path d="M25.3519 22.9407L23.7279 19.6519L22.1056 22.9407L18.4736 23.4741L21.1021 26.0314L20.4799 29.6483L23.7279 27.939L26.9759 29.6483L26.3536 26.0314L28.9794 23.4687L25.3519 22.9407Z" fill="white"/>
<path d="M12.0776 24.8093L10.906 22.4351L9.73177 24.8102L7.11133 25.1906L9.00466 27.0386L8.56022 29.6484L10.9042 28.4164L13.2447 29.6484L12.8002 27.0386L14.6971 25.1906L12.0776 24.8093Z" fill="white"/>
<path d="M37.9985 24.8093L36.827 22.4351L35.6536 24.8102L33.0332 25.1906L34.9265 27.0386L34.4821 29.6484L36.8261 28.4164L39.1665 29.6484L38.7221 27.0386L40.6181 25.1897L37.9985 24.8093Z" fill="white"/>
</g>
<defs>
<clipPath id="clip0_3_4545">
<rect width="48" height="48" fill="white" transform="translate(0 0.985352)"/>
</clipPath>
</defs>
</svg>
