<svg width="80" height="30" viewBox="0 0 80 30" fill="none" xmlns="http://www.w3.org/2000/svg">
<path fill-rule="evenodd" clip-rule="evenodd" d="M0.810547 27.2539H4.79809V11.449H0.810547V27.2539Z" fill="#112D35"/>
<path fill-rule="evenodd" clip-rule="evenodd" d="M2.80449 1.5C1.25558 1.5 0 2.7362 0 4.26091C0 5.78562 1.25558 7.02158 2.80449 7.02158C4.3534 7.02158 5.60897 5.78562 5.60897 4.26091C5.60897 2.7362 4.3534 1.5 2.80449 1.5Z" fill="#112D35"/>
<path fill-rule="evenodd" clip-rule="evenodd" d="M18.1995 11.1189C13.6804 11.1189 10.0039 14.738 10.0039 19.1865V27.2541H13.9914V19.1865C13.9914 16.9025 15.8793 15.0441 18.1995 15.0441C20.5198 15.0441 22.4076 16.9025 22.4076 19.1865V27.2541H26.3952V19.1865C26.3952 14.738 22.7187 11.1189 18.1995 11.1189Z" fill="#112D35"/>
<path fill-rule="evenodd" clip-rule="evenodd" d="M44.7815 6.2124H40.7939V20.0246C40.7939 24.0109 44.0884 27.2541 48.138 27.2541H51.345V23.3289H48.138C46.2873 23.3289 44.7815 21.8466 44.7815 20.0246V15.3744H50.0989V11.4492H44.7815V6.2124Z" fill="#112D35"/>
<path fill-rule="evenodd" clip-rule="evenodd" d="M64.3438 23.3349C62.0901 24.1482 59.5842 23.0047 58.758 20.786C57.9318 18.5673 59.0935 16.1007 61.3474 15.2875C63.6014 14.4742 66.1073 15.6174 66.9335 17.8364C67.7596 20.0552 66.5978 22.5217 64.3438 23.3349ZM79.6811 13.2368C79.1478 11.8046 77.5361 11.0691 76.0811 11.5943C75.2911 11.8791 74.7124 12.4785 74.4313 13.1948L74.4298 13.1909C73.9114 14.5108 71.7669 16.403 68.7129 13.4438L68.7141 13.4475C66.4801 11.2877 63.0977 10.4516 59.9672 11.5811C55.6373 13.1436 53.4057 17.8821 54.9928 22.1444C56.5798 26.4069 61.3938 28.6036 65.724 27.0413C68.8542 25.9119 70.8866 23.1222 71.1737 20.0527L71.1752 20.0564C71.563 15.8554 74.4417 15.9351 75.7041 16.6125L75.7026 16.6088C76.3872 16.9768 77.2223 17.0656 78.0123 16.7808C79.4673 16.2558 80.2145 14.669 79.6811 13.2368Z" fill="#112D35"/>
<path fill-rule="evenodd" clip-rule="evenodd" d="M31.6006 27.2539H35.5881V11.449H31.6006V27.2539Z" fill="#112D35"/>
<path fill-rule="evenodd" clip-rule="evenodd" d="M33.5945 1.5C32.0456 1.5 30.79 2.7362 30.79 4.26091C30.79 5.78562 32.0456 7.02158 33.5945 7.02158C35.1434 7.02158 36.399 5.78562 36.399 4.26091C36.399 2.7362 35.1434 1.5 33.5945 1.5Z" fill="#112D35"/>
</svg>
