<svg width="105" height="40" viewBox="0 0 105 40" fill="none" xmlns="http://www.w3.org/2000/svg">
<path fill-rule="evenodd" clip-rule="evenodd" d="M1.06348 36.3387H6.29712V15.2654H1.06348V36.3387Z" fill="#112D35"/>
<path fill-rule="evenodd" clip-rule="evenodd" d="M3.68089 2C1.64794 2 0 3.64827 0 5.68122C0 7.71416 1.64794 9.3621 3.68089 9.3621C5.71383 9.3621 7.36178 7.71416 7.36178 5.68122C7.36178 3.64827 5.71383 2 3.68089 2Z" fill="#112D35"/>
<path fill-rule="evenodd" clip-rule="evenodd" d="M23.8867 14.8252C17.9553 14.8252 13.1299 19.6506 13.1299 25.582V36.3387H18.3635V25.582C18.3635 22.5366 20.8413 20.0588 23.8867 20.0588C26.932 20.0588 29.4098 22.5366 29.4098 25.582V36.3387H34.6434V25.582C34.6434 19.6506 29.818 14.8252 23.8867 14.8252Z" fill="#112D35"/>
<path fill-rule="evenodd" clip-rule="evenodd" d="M58.7756 8.2832H53.542V26.6994C53.542 32.0145 57.866 36.3388 63.1811 36.3388H67.3902V31.1052H63.1811C60.752 31.1052 58.7756 29.1288 58.7756 26.6994V20.4992H65.7547V15.2655H58.7756V8.2832Z" fill="#112D35"/>
<path fill-rule="evenodd" clip-rule="evenodd" d="M84.4512 31.1133C81.4932 32.1976 78.2042 30.673 77.1198 27.7147C76.0355 24.7563 77.5601 21.4676 80.5184 20.3833C83.4767 19.299 86.7658 20.8233 87.8501 23.7819C88.9345 26.7402 87.4095 30.0289 84.4512 31.1133ZM104.581 17.649C103.881 15.7394 101.766 14.7588 99.8564 15.4591C98.8195 15.8389 98.06 16.638 97.691 17.5931L97.689 17.5879C97.0087 19.3477 94.1939 21.8706 90.1856 17.9251L90.1873 17.93C87.2551 15.0502 82.8157 13.9354 78.7069 15.4414C73.0238 17.5247 70.095 23.8427 72.178 29.5258C74.2609 35.2092 80.5793 38.1381 86.2627 36.0551C90.3711 34.5491 93.0386 30.8297 93.4154 26.7369L93.4174 26.7418C93.9264 21.1405 97.7047 21.2468 99.3615 22.15L99.3595 22.1451C100.258 22.6357 101.354 22.7541 102.391 22.3744C104.301 21.6744 105.281 19.5587 104.581 17.649Z" fill="#112D35"/>
<path fill-rule="evenodd" clip-rule="evenodd" d="M41.4756 36.3387H46.7092V15.2654H41.4756V36.3387Z" fill="#112D35"/>
<path fill-rule="evenodd" clip-rule="evenodd" d="M44.092 2C42.0591 2 40.4111 3.64827 40.4111 5.68122C40.4111 7.71416 42.0591 9.3621 44.092 9.3621C46.125 9.3621 47.7729 7.71416 47.7729 5.68122C47.7729 3.64827 46.125 2 44.092 2Z" fill="#112D35"/>
</svg>
