<svg width="342" height="390" viewBox="0 0 342 390" fill="none" xmlns="http://www.w3.org/2000/svg">
<g clip-path="url(#clip0_3_4122)">
<rect width="342" height="390" rx="24" fill="#F7F7FE"/>
<path fill-rule="evenodd" clip-rule="evenodd" d="M288.749 404.767C307.316 411.574 327.961 402.004 334.767 383.435C341.574 364.865 332.004 344.222 313.434 337.416C294.865 330.61 274.22 340.177 267.414 358.749C260.607 377.318 270.179 397.961 288.749 404.767ZM162.392 320.253C166.786 308.266 180.064 302.111 192.051 306.507C198.559 308.891 203.327 313.907 205.643 319.902L205.655 319.869C209.926 330.915 227.594 346.752 252.754 321.986L252.744 322.017C271.149 303.94 299.015 296.943 324.805 306.396C360.478 319.473 378.862 359.131 365.787 394.803C352.713 430.478 313.053 448.862 277.378 435.787C251.59 426.334 234.846 402.987 232.48 377.298L232.468 377.328C229.273 342.169 205.557 342.836 195.157 348.505L195.169 348.475C189.529 351.554 182.649 352.298 176.14 349.914C164.154 345.52 157.998 332.24 162.392 320.253Z" fill="#111111" fill-opacity="0.04"/>
</g>
<defs>
<clipPath id="clip0_3_4122">
<rect width="342" height="390" rx="40" fill="white"/>
</clipPath>
</defs>
</svg>
