<svg width="600" height="390" viewBox="0 0 600 390" fill="none" xmlns="http://www.w3.org/2000/svg">
<g clip-path="url(#clip0_3_4622)">
<rect width="600" height="390" rx="40" fill="#F7F7FE"/>
<path fill-rule="evenodd" clip-rule="evenodd" d="M516.227 426.951C544.16 437.191 575.219 422.793 585.458 394.857C595.698 366.921 581.301 335.866 553.365 325.626C525.429 315.386 494.37 329.781 484.131 357.72C473.891 385.656 488.291 416.711 516.227 426.951ZM326.134 299.806C332.744 281.773 352.72 272.513 370.753 279.126C380.545 282.712 387.717 290.258 391.201 299.278L391.22 299.228C397.645 315.847 424.225 339.671 462.076 302.413L462.061 302.459C489.749 275.265 531.672 264.738 570.471 278.959C624.138 298.632 651.795 358.294 632.125 411.96C612.455 465.63 552.79 493.288 499.121 473.618C460.325 459.397 435.135 424.273 431.576 385.625L431.558 385.671C426.751 332.777 391.072 333.781 375.426 342.309L375.445 342.263C366.96 346.896 356.609 348.014 346.817 344.428C328.784 337.818 319.524 317.839 326.134 299.806Z" fill="#111111" fill-opacity="0.04"/>
</g>
<defs>
<clipPath id="clip0_3_4622">
<rect width="600" height="390" rx="40" fill="white"/>
</clipPath>
</defs>
</svg>
