<svg width="1240" height="193" viewBox="0 0 1240 193" fill="none" xmlns="http://www.w3.org/2000/svg">
<g clip-path="url(#clip0_3_4446)">
<rect y="-0.000488281" width="1240" height="198" rx="40" fill="#F7F7FE"/>
<path fill-rule="evenodd" clip-rule="evenodd" d="M98.1691 219.192C71.1657 229.091 41.1403 215.173 31.2413 188.167C21.3424 161.16 35.2606 131.138 62.2671 121.239C89.2735 111.34 119.299 125.255 129.198 152.264C139.097 179.271 125.176 209.293 98.1691 219.192ZM281.937 96.2776C275.547 78.8447 256.236 69.8923 238.803 76.2856C229.337 79.7525 222.403 87.0475 219.035 95.767L219.017 95.7192C212.806 111.785 187.11 134.816 150.518 98.7979L150.533 98.8427C123.766 72.5529 83.238 62.3763 45.7295 76.1243C-6.15129 95.1429 -32.889 152.82 -13.8734 204.7C5.14219 256.584 62.822 283.322 114.706 264.306C152.211 250.558 176.563 216.603 180.003 179.241L180.021 179.286C184.667 128.151 219.16 129.122 234.285 137.367L234.267 137.322C242.47 141.801 252.476 142.882 261.942 139.415C279.375 133.025 288.327 113.711 281.937 96.2776Z" fill="#111111" fill-opacity="0.04"/>
</g>
<defs>
<clipPath id="clip0_3_4446">
<rect y="-0.000488281" width="1240" height="193" rx="40" fill="white"/>
</clipPath>
</defs>
</svg>
