<svg width="343" height="405" viewBox="0 0 343 405" fill="none" xmlns="http://www.w3.org/2000/svg">
<path d="M309.572 26.7374C311.512 23.553 317.285 23.0945 320.073 25.5229C320.939 26.3053 321.532 27.2899 321.758 28.3207C322.192 30.5933 319.435 33.1275 316.573 33.4174C315.243 33.5435 313.835 33.2223 312.604 32.5121C311.373 31.802 310.401 30.7501 309.866 29.5482C309.617 28.6087 309.518 27.6616 309.572 26.7374Z" fill="#1F94AA"/>
<path d="M307.482 42.796C307.978 43.009 308.432 43.3113 308.812 43.6817C309.193 44.0521 309.491 44.4818 309.685 44.9406C309.879 45.3994 309.966 45.8762 309.938 46.3378C309.91 46.7994 309.768 47.2346 309.523 47.6128C308.822 48.8295 307.582 49.6815 306.061 49.9918C304.54 50.302 302.855 50.0466 301.356 49.2787C298.72 47.8615 297.644 45.8142 298.65 43.956C299.872 41.675 304.2 41.0949 307.482 42.796Z" fill="#1F94AA"/>
<path d="M289.488 30.0294C290.845 27.5245 295.01 26.6566 297.804 28.1584C298.761 28.6835 299.509 29.4969 299.889 30.4269C300.27 31.3569 300.253 32.3308 299.843 33.1431C298.726 35.206 293.731 36.3151 291.358 34.9974C290.424 34.4541 289.707 33.6328 289.358 32.7062C289.009 31.7797 289.056 30.8201 289.488 30.0294Z" fill="#1F94AA"/>
<path d="M324.65 11.9087C325.691 9.98499 329.428 9.08755 331.541 10.2759C333.233 11.1854 334.171 14.1205 333.321 15.6922C332.47 17.2639 328.603 17.8379 326.491 16.7877C326.017 16.5409 325.59 16.2152 325.238 15.8308C324.885 15.4465 324.613 15.0118 324.44 14.5539C324.268 14.096 324.197 13.6247 324.233 13.1696C324.269 12.7144 324.411 12.2852 324.65 11.9087Z" fill="#1F94AA"/>
<path d="M320.861 46.447C320.196 45.5891 319.651 44.6704 319.241 43.716C319.063 43.1169 319.143 42.5134 319.462 42.0326C319.782 41.5519 320.316 41.2314 320.954 41.1387C322.472 40.7318 324.078 40.5281 325.727 40.5337C326.517 40.5412 327.32 40.8145 327.982 41.3012C328.645 41.7879 329.119 42.4537 329.315 43.1709C329.56 43.8739 329.535 44.5959 329.244 45.2114C328.952 45.827 328.413 46.2972 327.72 46.5404C326.74 47.0362 325.602 47.287 324.407 47.2707C323.211 47.2544 321.994 46.9716 320.861 46.447Z" fill="#1F94AA"/>
<path d="M309.633 66.0825C307.39 64.8769 306.595 63.1075 307.535 61.5834C308.623 59.8325 312.256 59.1965 314.379 60.3902C315.233 60.951 315.872 61.7493 316.173 62.6312C316.474 63.5131 316.416 64.4162 316.009 65.1664C315.411 66.0613 314.412 66.6568 313.223 66.8277C312.034 66.9985 310.747 66.7314 309.633 66.0825Z" fill="#1F94AA"/>
<path d="M334.502 32.6743C332.534 31.6168 331.786 29.9254 332.683 28.5265C333.799 26.7698 337.552 26.3137 339.886 27.6319C340.309 27.8377 340.694 28.1138 341.016 28.4436C341.338 28.7733 341.592 29.1495 341.761 29.5491C341.93 29.9488 342.011 30.3634 341.999 30.7675C341.987 31.1717 341.882 31.5568 341.691 31.8992C340.745 33.5994 336.937 33.9939 334.502 32.6743Z" fill="#1F94AA"/>
<path d="M273.258 36.2919C274.435 34.3773 278.479 33.6871 280.688 35.0016C281.066 35.217 281.404 35.4926 281.682 35.8122C281.96 36.1317 282.172 36.489 282.306 36.8631C282.441 37.2372 282.494 37.6207 282.464 37.9912C282.434 38.3618 282.321 38.7121 282.131 39.0217C281.043 40.8674 276.831 41.5625 274.662 40.2909C274.272 40.0881 273.923 39.8186 273.636 39.5002C273.35 39.1818 273.133 38.8217 273 38.4437C272.868 38.0657 272.822 37.6785 272.866 37.3076C272.911 36.9366 273.044 36.5904 273.258 36.2919Z" fill="#1F94AA"/>
<path d="M304.594 19.6539C304.315 19.113 303.364 18.0312 303.36 17.0776C303.429 16.6025 303.622 16.1644 303.922 15.7967C304.222 15.4289 304.623 15.1412 305.093 14.9552C306.565 14.4512 308.204 14.2957 309.873 14.5018C310.467 14.6778 311.031 14.9676 311.52 15.3499C312.01 15.7321 312.415 16.1969 312.703 16.7101C312.808 17.2042 312.794 17.6968 312.661 18.1532C312.528 18.6095 312.28 19.0184 311.934 19.3508C310.512 20.8271 307.119 21.0427 304.594 19.6539Z" fill="#1F94AA"/>
<path d="M297.447 53.1924C299.296 54.1865 300.092 55.7662 299.369 57.1005C298.563 58.5903 294.63 59.4036 292.897 58.4296C292.195 58.0154 291.644 57.4096 291.341 56.7201C291.037 56.0305 291.001 55.302 291.239 54.6643C291.752 53.7169 292.679 53.0376 293.832 52.7643C294.984 52.4909 296.277 52.644 297.447 53.1924Z" fill="#1F94AA"/>
<path d="M276.463 50.0745C278.312 51.0686 279.108 52.6483 278.385 53.9826C277.579 55.4725 273.646 56.2858 271.912 55.3118C271.211 54.8976 270.66 54.2918 270.357 53.6022C270.053 52.9127 270.017 52.1842 270.255 51.5465C270.768 50.599 271.695 49.9198 272.848 49.6464C274 49.3731 275.293 49.5261 276.463 50.0745Z" fill="#1F94AA"/>
<path d="M318.444 5.96352C317.692 5.51837 317.121 4.84885 316.851 4.09781C316.581 3.34677 316.635 2.57366 317.001 1.94341C318.086 0.127522 321.432 -0.610293 323.227 0.576878C323.968 1.15426 324.477 1.93414 324.651 2.75805C324.825 3.58197 324.652 4.38812 324.166 5.01272C323.569 5.7529 322.679 6.24949 321.641 6.42206C320.602 6.59462 319.476 6.43305 318.444 5.96352Z" fill="#1F94AA"/>
<path d="M324.575 69.4015C322.873 68.4867 322.259 66.3601 323.217 64.7084C324.037 63.194 326.409 63.0109 328.628 64.2141C328.982 64.3995 329.3 64.643 329.564 64.9298C329.828 65.2166 330.031 65.5407 330.163 65.8822C330.294 66.2237 330.35 66.5756 330.327 66.9162C330.304 67.2569 330.203 67.5793 330.031 67.8636C329.144 69.5008 326.301 70.3187 324.575 69.4015Z" fill="#1F94AA"/>
<path d="M287.354 22.3615C289.322 23.4191 290.059 24.8722 289.408 26.1921C288.91 26.9423 288.076 27.4415 287.081 27.5837C286.086 27.7258 285.01 27.4997 284.081 26.9534C282.305 25.8933 281.305 23.5171 282.129 22.3007C282.953 21.0843 285.075 21.1049 287.354 22.3615Z" fill="#1F94AA"/>
<path d="M287.73 61.9876C289.698 63.0452 290.435 64.4983 289.784 65.8181C289.286 66.5684 288.452 67.0676 287.457 67.2098C286.462 67.3519 285.386 67.1258 284.457 66.5795C282.681 65.5194 281.681 63.1432 282.505 61.9268C283.329 60.7104 285.451 60.731 287.73 61.9876Z" fill="#1F94AA"/>
<path d="M322.662 52.7854C323.431 53.2178 324.029 53.8792 324.331 54.6321C324.633 55.385 324.616 56.1714 324.283 56.8275C323.463 58.3419 320.242 58.7557 318.169 57.5885C317.509 57.2452 316.988 56.6985 316.719 56.0671C316.449 55.4357 316.454 54.7705 316.731 54.2158C317.464 52.792 321.144 51.9061 322.662 52.7854Z" fill="#1F94AA"/>
<path d="M296.959 6.07053C297.728 6.50289 298.326 7.16435 298.628 7.91725C298.93 8.67015 298.913 9.4565 298.58 10.1126C297.761 11.627 294.539 12.0408 292.466 10.8736C291.806 10.5303 291.285 9.98362 291.016 9.35221C290.747 8.7208 290.751 8.05559 291.028 7.5009C291.761 6.07706 295.441 5.19123 296.959 6.07053Z" fill="#1F94AA"/>
<path d="M261.908 34.1737C262.251 34.3201 262.567 34.5244 262.837 34.774C263.108 35.0237 263.326 35.3135 263.48 35.6256C263.633 35.9377 263.718 36.2655 263.729 36.5889C263.741 36.9122 263.679 37.2243 263.546 37.5058C263.131 38.3767 262.344 39.0255 261.338 39.3255C260.333 39.6254 259.181 39.5547 258.109 39.1274C257.723 38.9993 257.36 38.7993 257.047 38.5415C256.734 38.2838 256.478 37.9747 256.297 37.6363C256.117 37.298 256.016 36.9386 256.002 36.584C255.988 36.2294 256.061 35.8881 256.217 35.5847C256.902 34.1777 260.177 33.3595 261.908 34.1737Z" fill="#1F94AA"/>
<path d="M312.21 74.6956C312.615 74.0865 313.27 73.6597 314.058 73.4902C314.847 73.3208 315.719 73.4195 316.522 73.7689C317.223 74.1869 317.755 74.8142 318.003 75.5166C318.252 76.2191 318.198 76.9409 317.852 77.5277C317.672 77.8763 317.411 78.1786 317.085 78.4174C316.758 78.6562 316.373 78.8268 315.95 78.9194C315.527 79.0121 315.075 79.025 314.62 78.9573C314.165 78.8897 313.716 78.7429 313.299 78.5254C312.648 78.0457 312.179 77.3929 311.979 76.6885C311.779 75.984 311.861 75.2759 312.21 74.6956Z" fill="#1F94AA"/>
<g clip-path="url(#clip0_3_3977)">
<rect y="38.9995" width="343" height="366" rx="11.0645" fill="#F7F7FE"/>
<path fill-rule="evenodd" clip-rule="evenodd" d="M88.4317 447.977C65.9385 456.223 40.9282 444.63 32.6826 422.134C24.437 399.638 36.0306 374.63 58.5262 366.385C81.0218 358.139 106.032 369.73 114.278 392.228C122.523 414.724 110.927 439.732 88.4317 447.977ZM241.506 345.592C236.183 331.071 220.097 323.614 205.576 328.939C197.691 331.827 191.915 337.904 189.11 345.167L189.095 345.127C183.921 358.509 162.517 377.694 132.037 347.691L132.05 347.729C109.753 325.83 75.9946 317.353 44.7509 328.805C1.53561 344.647 -20.7362 392.69 -4.89669 435.905C10.9428 479.123 58.9885 501.395 102.206 485.556C133.447 474.104 153.732 445.82 156.597 414.698L156.612 414.736C160.483 372.142 189.214 372.951 201.812 379.818L201.798 379.781C208.63 383.512 216.965 384.412 224.85 381.524C239.371 376.201 246.829 360.113 241.506 345.592Z" fill="#EEEEF5"/>
</g>
<defs>
<clipPath id="clip0_3_3977">
<rect y="38.9995" width="343" height="366" rx="24" fill="white"/>
</clipPath>
</defs>
</svg>
