<svg width="540" height="382" viewBox="0 0 540 382" fill="none" xmlns="http://www.w3.org/2000/svg">
<path opacity="0.399158" d="M246.642 375.11C246.041 375.11 245.487 375.011 244.981 374.813C244.475 374.615 244.035 374.34 243.661 373.988C243.287 373.629 242.997 373.211 242.792 372.734C242.587 372.25 242.484 371.722 242.484 371.15C242.484 370.578 242.587 370.054 242.792 369.577C242.997 369.093 243.287 368.675 243.661 368.323C244.035 367.964 244.475 367.685 244.981 367.487C245.487 367.289 246.037 367.19 246.631 367.19C247.232 367.19 247.782 367.289 248.281 367.487C248.787 367.685 249.227 367.964 249.601 368.323C249.975 368.675 250.265 369.093 250.47 369.577C250.675 370.054 250.778 370.578 250.778 371.15C250.778 371.722 250.675 372.25 250.47 372.734C250.265 373.218 249.975 373.636 249.601 373.988C249.227 374.34 248.787 374.615 248.281 374.813C247.782 375.011 247.236 375.11 246.642 375.11ZM246.631 373.856C247.02 373.856 247.379 373.79 247.709 373.658C248.039 373.526 248.325 373.339 248.567 373.097C248.809 372.848 248.996 372.562 249.128 372.239C249.267 371.909 249.337 371.546 249.337 371.15C249.337 370.754 249.267 370.395 249.128 370.072C248.996 369.742 248.809 369.456 248.567 369.214C248.325 368.965 248.039 368.774 247.709 368.642C247.379 368.51 247.02 368.444 246.631 368.444C246.242 368.444 245.883 368.51 245.553 368.642C245.23 368.774 244.944 368.965 244.695 369.214C244.453 369.456 244.262 369.742 244.123 370.072C243.991 370.395 243.925 370.754 243.925 371.15C243.925 371.539 243.991 371.898 244.123 372.228C244.262 372.558 244.453 372.848 244.695 373.097C244.937 373.339 245.223 373.526 245.553 373.658C245.883 373.79 246.242 373.856 246.631 373.856ZM253.724 375L251.205 369.126H252.635L254.802 374.307H254.098L256.342 369.126H257.662L255.143 375H253.724ZM261.007 375.077C260.508 375.077 260.068 374.985 259.687 374.802C259.306 374.611 259.009 374.325 258.796 373.944C258.583 373.555 258.477 373.068 258.477 372.481V369.126H259.852V372.294C259.852 372.822 259.969 373.218 260.204 373.482C260.446 373.739 260.787 373.867 261.227 373.867C261.55 373.867 261.828 373.801 262.063 373.669C262.305 373.537 262.492 373.339 262.624 373.075C262.763 372.811 262.833 372.485 262.833 372.096V369.126H264.208V375H262.899V373.416L263.13 373.9C262.932 374.281 262.642 374.575 262.261 374.78C261.88 374.978 261.462 375.077 261.007 375.077ZM266.008 375V366.838H267.383V375H266.008ZM272.807 375V373.812L272.73 373.559V371.48C272.73 371.077 272.609 370.765 272.367 370.545C272.125 370.318 271.758 370.204 271.267 370.204C270.937 370.204 270.611 370.255 270.288 370.358C269.973 370.461 269.705 370.604 269.485 370.787L268.946 369.786C269.261 369.544 269.635 369.364 270.068 369.247C270.508 369.122 270.963 369.06 271.432 369.06C272.283 369.06 272.939 369.265 273.401 369.676C273.87 370.079 274.105 370.706 274.105 371.557V375H272.807ZM270.959 375.077C270.519 375.077 270.134 375.004 269.804 374.857C269.474 374.703 269.217 374.494 269.034 374.23C268.858 373.959 268.77 373.654 268.77 373.317C268.77 372.987 268.847 372.69 269.001 372.426C269.162 372.162 269.423 371.953 269.782 371.799C270.141 371.645 270.618 371.568 271.212 371.568H272.917V372.481H271.311C270.842 372.481 270.526 372.558 270.365 372.712C270.204 372.859 270.123 373.042 270.123 373.262C270.123 373.511 270.222 373.709 270.42 373.856C270.618 374.003 270.893 374.076 271.245 374.076C271.582 374.076 271.883 373.999 272.147 373.845C272.418 373.691 272.613 373.464 272.73 373.163L272.961 373.988C272.829 374.333 272.591 374.6 272.246 374.791C271.909 374.982 271.48 375.077 270.959 375.077ZM278.081 375.077C277.435 375.077 276.937 374.912 276.585 374.582C276.233 374.245 276.057 373.75 276.057 373.097V367.828H277.432V373.064C277.432 373.343 277.501 373.559 277.641 373.713C277.787 373.867 277.989 373.944 278.246 373.944C278.554 373.944 278.81 373.863 279.016 373.702L279.401 374.681C279.239 374.813 279.041 374.912 278.807 374.978C278.572 375.044 278.33 375.077 278.081 375.077ZM275.089 370.27V369.17H279.005V370.27H275.089ZM280.532 375V369.126H281.907V375H280.532ZM281.225 368.158C280.968 368.158 280.756 368.077 280.587 367.916C280.426 367.755 280.345 367.56 280.345 367.333C280.345 367.098 280.426 366.904 280.587 366.75C280.756 366.589 280.968 366.508 281.225 366.508C281.482 366.508 281.691 366.585 281.852 366.739C282.021 366.886 282.105 367.073 282.105 367.3C282.105 367.542 282.024 367.747 281.863 367.916C281.702 368.077 281.489 368.158 281.225 368.158ZM286.352 375.077C285.75 375.077 285.215 374.949 284.746 374.692C284.276 374.428 283.906 374.069 283.635 373.614C283.363 373.159 283.228 372.642 283.228 372.063C283.228 371.476 283.363 370.959 283.635 370.512C283.906 370.057 284.276 369.702 284.746 369.445C285.215 369.188 285.75 369.06 286.352 369.06C286.96 369.06 287.499 369.188 287.969 369.445C288.445 369.702 288.816 370.054 289.08 370.501C289.351 370.948 289.487 371.469 289.487 372.063C289.487 372.642 289.351 373.159 289.08 373.614C288.816 374.069 288.445 374.428 287.969 374.692C287.499 374.949 286.96 375.077 286.352 375.077ZM286.352 373.9C286.689 373.9 286.99 373.827 287.254 373.68C287.518 373.533 287.723 373.321 287.87 373.042C288.024 372.763 288.101 372.437 288.101 372.063C288.101 371.682 288.024 371.355 287.87 371.084C287.723 370.805 287.518 370.593 287.254 370.446C286.99 370.299 286.693 370.226 286.363 370.226C286.025 370.226 285.725 370.299 285.461 370.446C285.204 370.593 284.999 370.805 284.845 371.084C284.691 371.355 284.614 371.682 284.614 372.063C284.614 372.437 284.691 372.763 284.845 373.042C284.999 373.321 285.204 373.533 285.461 373.68C285.725 373.827 286.022 373.9 286.352 373.9ZM294.134 369.06C294.604 369.06 295.022 369.152 295.388 369.335C295.762 369.518 296.056 369.801 296.268 370.182C296.481 370.556 296.587 371.04 296.587 371.634V375H295.212V371.81C295.212 371.289 295.088 370.901 294.838 370.644C294.596 370.387 294.255 370.259 293.815 370.259C293.493 370.259 293.207 370.325 292.957 370.457C292.708 370.589 292.514 370.787 292.374 371.051C292.242 371.308 292.176 371.634 292.176 372.03V375H290.801V369.126H292.11V370.71L291.879 370.226C292.085 369.852 292.382 369.566 292.77 369.368C293.166 369.163 293.621 369.06 294.134 369.06Z" fill="#112D35"/>
<path opacity="0.4" d="M488.545 375.11C487.959 375.11 487.412 375.015 486.906 374.824C486.408 374.626 485.971 374.351 485.597 373.999C485.231 373.64 484.945 373.218 484.739 372.734C484.534 372.25 484.431 371.722 484.431 371.15C484.431 370.578 484.534 370.05 484.739 369.566C484.945 369.082 485.234 368.664 485.608 368.312C485.982 367.953 486.419 367.678 486.917 367.487C487.416 367.289 487.962 367.19 488.556 367.19C489.187 367.19 489.763 367.3 490.283 367.52C490.804 367.733 491.244 368.052 491.603 368.477L490.679 369.346C490.401 369.045 490.089 368.822 489.744 368.675C489.4 368.521 489.026 368.444 488.622 368.444C488.219 368.444 487.849 368.51 487.511 368.642C487.181 368.774 486.892 368.961 486.642 369.203C486.4 369.445 486.21 369.731 486.07 370.061C485.938 370.391 485.872 370.754 485.872 371.15C485.872 371.546 485.938 371.909 486.07 372.239C486.21 372.569 486.4 372.855 486.642 373.097C486.892 373.339 487.181 373.526 487.511 373.658C487.849 373.79 488.219 373.856 488.622 373.856C489.026 373.856 489.4 373.783 489.744 373.636C490.089 373.482 490.401 373.251 490.679 372.943L491.603 373.823C491.244 374.241 490.804 374.56 490.283 374.78C489.763 375 489.183 375.11 488.545 375.11ZM493.325 377.211C493.039 377.211 492.753 377.163 492.467 377.068C492.181 376.973 491.943 376.841 491.752 376.672L492.302 375.66C492.442 375.785 492.599 375.884 492.775 375.957C492.951 376.03 493.131 376.067 493.314 376.067C493.564 376.067 493.765 376.005 493.919 375.88C494.073 375.755 494.216 375.546 494.348 375.253L494.689 374.483L494.799 374.318L497.021 369.126H498.341L495.591 375.473C495.408 375.913 495.203 376.261 494.975 376.518C494.755 376.775 494.506 376.954 494.227 377.057C493.956 377.16 493.655 377.211 493.325 377.211ZM494.535 375.209L491.884 369.126H493.314L495.47 374.197L494.535 375.209ZM501.735 375.077C501.119 375.077 500.569 374.949 500.085 374.692C499.608 374.428 499.234 374.069 498.963 373.614C498.691 373.159 498.556 372.642 498.556 372.063C498.556 371.476 498.691 370.959 498.963 370.512C499.234 370.057 499.608 369.702 500.085 369.445C500.569 369.188 501.119 369.06 501.735 369.06C502.307 369.06 502.809 369.177 503.242 369.412C503.682 369.639 504.015 369.977 504.243 370.424L503.187 371.04C503.011 370.761 502.794 370.556 502.538 370.424C502.288 370.292 502.017 370.226 501.724 370.226C501.386 370.226 501.082 370.299 500.811 370.446C500.539 370.593 500.327 370.805 500.173 371.084C500.019 371.355 499.942 371.682 499.942 372.063C499.942 372.444 500.019 372.774 500.173 373.053C500.327 373.324 500.539 373.533 500.811 373.68C501.082 373.827 501.386 373.9 501.724 373.9C502.017 373.9 502.288 373.834 502.538 373.702C502.794 373.57 503.011 373.365 503.187 373.086L504.243 373.702C504.015 374.142 503.682 374.483 503.242 374.725C502.809 374.96 502.307 375.077 501.735 375.077ZM505.378 375V366.838H506.753V375H505.378ZM511.318 375.077C510.666 375.077 510.094 374.949 509.602 374.692C509.118 374.428 508.741 374.069 508.469 373.614C508.205 373.159 508.073 372.642 508.073 372.063C508.073 371.476 508.202 370.959 508.458 370.512C508.722 370.057 509.082 369.702 509.536 369.445C509.998 369.188 510.523 369.06 511.109 369.06C511.681 369.06 512.191 369.185 512.638 369.434C513.086 369.683 513.438 370.035 513.694 370.49C513.951 370.945 514.079 371.48 514.079 372.096C514.079 372.155 514.076 372.221 514.068 372.294C514.068 372.367 514.065 372.437 514.057 372.503H509.162V371.59H513.331L512.792 371.876C512.8 371.539 512.73 371.242 512.583 370.985C512.437 370.728 512.235 370.527 511.978 370.38C511.729 370.233 511.439 370.16 511.109 370.16C510.772 370.16 510.475 370.233 510.218 370.38C509.969 370.527 509.771 370.732 509.624 370.996C509.485 371.253 509.415 371.557 509.415 371.909V372.129C509.415 372.481 509.496 372.793 509.657 373.064C509.819 373.335 510.046 373.544 510.339 373.691C510.633 373.838 510.97 373.911 511.351 373.911C511.681 373.911 511.978 373.86 512.242 373.757C512.506 373.654 512.741 373.493 512.946 373.273L513.683 374.12C513.419 374.428 513.086 374.666 512.682 374.835C512.286 374.996 511.832 375.077 511.318 375.077ZM519.892 370.501H523.72V371.678H519.892V370.501ZM520.002 373.801H524.347V375H518.572V367.3H524.193V368.499H520.002V373.801ZM529.142 369.06C529.612 369.06 530.03 369.152 530.396 369.335C530.77 369.518 531.064 369.801 531.276 370.182C531.489 370.556 531.595 371.04 531.595 371.634V375H530.22V371.81C530.22 371.289 530.096 370.901 529.846 370.644C529.604 370.387 529.263 370.259 528.823 370.259C528.501 370.259 528.215 370.325 527.965 370.457C527.716 370.589 527.522 370.787 527.382 371.051C527.25 371.308 527.184 371.634 527.184 372.03V375H525.809V369.126H527.118V370.71L526.887 370.226C527.093 369.852 527.39 369.566 527.778 369.368C528.174 369.163 528.629 369.06 529.142 369.06ZM535.836 375.077C535.272 375.077 534.762 374.952 534.307 374.703C533.86 374.446 533.508 374.094 533.251 373.647C532.995 373.2 532.866 372.672 532.866 372.063C532.866 371.454 532.995 370.926 533.251 370.479C533.508 370.032 533.86 369.683 534.307 369.434C534.762 369.185 535.272 369.06 535.836 369.06C536.328 369.06 536.768 369.17 537.156 369.39C537.545 369.603 537.853 369.929 538.08 370.369C538.308 370.809 538.421 371.374 538.421 372.063C538.421 372.745 538.311 373.31 538.091 373.757C537.871 374.197 537.567 374.527 537.178 374.747C536.79 374.967 536.342 375.077 535.836 375.077ZM536.001 373.9C536.331 373.9 536.625 373.827 536.881 373.68C537.145 373.533 537.354 373.321 537.508 373.042C537.67 372.763 537.75 372.437 537.75 372.063C537.75 371.682 537.67 371.355 537.508 371.084C537.354 370.805 537.145 370.593 536.881 370.446C536.625 370.299 536.331 370.226 536.001 370.226C535.671 370.226 535.374 370.299 535.11 370.446C534.854 370.593 534.645 370.805 534.483 371.084C534.329 371.355 534.252 371.682 534.252 372.063C534.252 372.437 534.329 372.763 534.483 373.042C534.645 373.321 534.854 373.533 535.11 373.68C535.374 373.827 535.671 373.9 536.001 373.9ZM537.783 375V373.614L537.838 372.052L537.728 370.49V366.838H539.092V375H537.783Z" fill="#112D35"/>
<path opacity="0.4" d="M4.598 375.11C4.01133 375.11 3.465 375.015 2.959 374.824C2.46033 374.626 2.024 374.351 1.65 373.999C1.28333 373.64 0.997333 373.218 0.792 372.734C0.586667 372.25 0.484 371.722 0.484 371.15C0.484 370.578 0.586667 370.05 0.792 369.566C0.997333 369.082 1.287 368.664 1.661 368.312C2.035 367.953 2.47133 367.678 2.97 367.487C3.46867 367.289 4.015 367.19 4.609 367.19C5.23967 367.19 5.81533 367.3 6.336 367.52C6.85667 367.733 7.29667 368.052 7.656 368.477L6.732 369.346C6.45333 369.045 6.14167 368.822 5.797 368.675C5.45233 368.521 5.07833 368.444 4.675 368.444C4.27167 368.444 3.90133 368.51 3.564 368.642C3.234 368.774 2.94433 368.961 2.695 369.203C2.453 369.445 2.26233 369.731 2.123 370.061C1.991 370.391 1.925 370.754 1.925 371.15C1.925 371.546 1.991 371.909 2.123 372.239C2.26233 372.569 2.453 372.855 2.695 373.097C2.94433 373.339 3.234 373.526 3.564 373.658C3.90133 373.79 4.27167 373.856 4.675 373.856C5.07833 373.856 5.45233 373.783 5.797 373.636C6.14167 373.482 6.45333 373.251 6.732 372.943L7.656 373.823C7.29667 374.241 6.85667 374.56 6.336 374.78C5.81533 375 5.236 375.11 4.598 375.11ZM9.37819 377.211C9.09219 377.211 8.80619 377.163 8.52019 377.068C8.23419 376.973 7.99585 376.841 7.80519 376.672L8.35519 375.66C8.49452 375.785 8.65219 375.884 8.82819 375.957C9.00419 376.03 9.18385 376.067 9.36719 376.067C9.61652 376.067 9.81819 376.005 9.97219 375.88C10.1262 375.755 10.2692 375.546 10.4012 375.253L10.7422 374.483L10.8522 374.318L13.0742 369.126H14.3942L11.6442 375.473C11.4609 375.913 11.2555 376.261 11.0282 376.518C10.8082 376.775 10.5589 376.954 10.2802 377.057C10.0089 377.16 9.70819 377.211 9.37819 377.211ZM10.5882 375.209L7.93719 369.126H9.36719L11.5232 374.197L10.5882 375.209ZM17.7874 375.077C17.1714 375.077 16.6214 374.949 16.1374 374.692C15.6608 374.428 15.2868 374.069 15.0154 373.614C14.7441 373.159 14.6084 372.642 14.6084 372.063C14.6084 371.476 14.7441 370.959 15.0154 370.512C15.2868 370.057 15.6608 369.702 16.1374 369.445C16.6214 369.188 17.1714 369.06 17.7874 369.06C18.3594 369.06 18.8618 369.177 19.2944 369.412C19.7344 369.639 20.0681 369.977 20.2954 370.424L19.2394 371.04C19.0634 370.761 18.8471 370.556 18.5904 370.424C18.3411 370.292 18.0698 370.226 17.7764 370.226C17.4391 370.226 17.1348 370.299 16.8634 370.446C16.5921 370.593 16.3794 370.805 16.2254 371.084C16.0714 371.355 15.9944 371.682 15.9944 372.063C15.9944 372.444 16.0714 372.774 16.2254 373.053C16.3794 373.324 16.5921 373.533 16.8634 373.68C17.1348 373.827 17.4391 373.9 17.7764 373.9C18.0698 373.9 18.3411 373.834 18.5904 373.702C18.8471 373.57 19.0634 373.365 19.2394 373.086L20.2954 373.702C20.0681 374.142 19.7344 374.483 19.2944 374.725C18.8618 374.96 18.3594 375.077 17.7874 375.077ZM21.4303 375V366.838H22.8053V375H21.4303ZM27.371 375.077C26.7183 375.077 26.1463 374.949 25.655 374.692C25.171 374.428 24.7933 374.069 24.522 373.614C24.258 373.159 24.126 372.642 24.126 372.063C24.126 371.476 24.2543 370.959 24.511 370.512C24.775 370.057 25.1343 369.702 25.589 369.445C26.051 369.188 26.5753 369.06 27.162 369.06C27.734 369.06 28.2437 369.185 28.691 369.434C29.1383 369.683 29.4903 370.035 29.747 370.49C30.0037 370.945 30.132 371.48 30.132 372.096C30.132 372.155 30.1283 372.221 30.121 372.294C30.121 372.367 30.1173 372.437 30.11 372.503H25.215V371.59H29.384L28.845 371.876C28.8523 371.539 28.7827 371.242 28.636 370.985C28.4893 370.728 28.2877 370.527 28.031 370.38C27.7817 370.233 27.492 370.16 27.162 370.16C26.8247 370.16 26.5277 370.233 26.271 370.38C26.0217 370.527 25.8237 370.732 25.677 370.996C25.5377 371.253 25.468 371.557 25.468 371.909V372.129C25.468 372.481 25.5487 372.793 25.71 373.064C25.8713 373.335 26.0987 373.544 26.392 373.691C26.6853 373.838 27.0227 373.911 27.404 373.911C27.734 373.911 28.031 373.86 28.295 373.757C28.559 373.654 28.7937 373.493 28.999 373.273L29.736 374.12C29.472 374.428 29.1383 374.666 28.735 374.835C28.339 374.996 27.8843 375.077 27.371 375.077ZM37.0118 375.11C36.4105 375.11 35.8348 375.026 35.2848 374.857C34.7348 374.681 34.2985 374.457 33.9758 374.186L34.4708 373.075C34.7788 373.317 35.1602 373.519 35.6148 373.68C36.0695 373.841 36.5352 373.922 37.0118 373.922C37.4152 373.922 37.7415 373.878 37.9908 373.79C38.2402 373.702 38.4235 373.585 38.5408 373.438C38.6582 373.284 38.7168 373.112 38.7168 372.921C38.7168 372.686 38.6325 372.499 38.4638 372.36C38.2952 372.213 38.0752 372.1 37.8038 372.019C37.5398 371.931 37.2428 371.85 36.9128 371.777C36.5902 371.704 36.2638 371.619 35.9338 371.524C35.6112 371.421 35.3142 371.293 35.0428 371.139C34.7788 370.978 34.5625 370.765 34.3938 370.501C34.2252 370.237 34.1408 369.9 34.1408 369.489C34.1408 369.071 34.2508 368.69 34.4708 368.345C34.6982 367.993 35.0392 367.714 35.4938 367.509C35.9558 367.296 36.5388 367.19 37.2428 367.19C37.7048 367.19 38.1632 367.249 38.6178 367.366C39.0725 367.483 39.4685 367.652 39.8058 367.872L39.3548 368.983C39.0102 368.778 38.6545 368.627 38.2878 368.532C37.9212 368.429 37.5692 368.378 37.2318 368.378C36.8358 368.378 36.5132 368.426 36.2638 368.521C36.0218 368.616 35.8422 368.741 35.7248 368.895C35.6148 369.049 35.5598 369.225 35.5598 369.423C35.5598 369.658 35.6405 369.848 35.8018 369.995C35.9705 370.134 36.1868 370.244 36.4508 370.325C36.7222 370.406 37.0228 370.486 37.3528 370.567C37.6828 370.64 38.0092 370.725 38.3318 370.82C38.6618 370.915 38.9588 371.04 39.2228 371.194C39.4942 371.348 39.7105 371.557 39.8718 371.821C40.0405 372.085 40.1248 372.419 40.1248 372.822C40.1248 373.233 40.0112 373.614 39.7838 373.966C39.5638 374.311 39.2228 374.589 38.7608 374.802C38.2988 375.007 37.7158 375.11 37.0118 375.11ZM43.6218 375.077C42.9765 375.077 42.4778 374.912 42.1258 374.582C41.7738 374.245 41.5978 373.75 41.5978 373.097V367.828H42.9728V373.064C42.9728 373.343 43.0425 373.559 43.1818 373.713C43.3285 373.867 43.5301 373.944 43.7868 373.944C44.0948 373.944 44.3515 373.863 44.5568 373.702L44.9418 374.681C44.7805 374.813 44.5825 374.912 44.3478 374.978C44.1131 375.044 43.8711 375.077 43.6218 375.077ZM40.6298 370.27V369.17H44.5458V370.27H40.6298ZM49.6919 375V373.812L49.6149 373.559V371.48C49.6149 371.077 49.4939 370.765 49.2519 370.545C49.0099 370.318 48.6432 370.204 48.1519 370.204C47.8219 370.204 47.4956 370.255 47.1729 370.358C46.8576 370.461 46.5899 370.604 46.3699 370.787L45.8309 369.786C46.1462 369.544 46.5202 369.364 46.9529 369.247C47.3929 369.122 47.8476 369.06 48.3169 369.06C49.1676 369.06 49.8239 369.265 50.2859 369.676C50.7552 370.079 50.9899 370.706 50.9899 371.557V375H49.6919ZM47.8439 375.077C47.4039 375.077 47.0189 375.004 46.6889 374.857C46.3589 374.703 46.1022 374.494 45.9189 374.23C45.7429 373.959 45.6549 373.654 45.6549 373.317C45.6549 372.987 45.7319 372.69 45.8859 372.426C46.0472 372.162 46.3076 371.953 46.6669 371.799C47.0262 371.645 47.5029 371.568 48.0969 371.568H49.8019V372.481H48.1959C47.7266 372.481 47.4112 372.558 47.2499 372.712C47.0886 372.859 47.0079 373.042 47.0079 373.262C47.0079 373.511 47.1069 373.709 47.3049 373.856C47.5029 374.003 47.7779 374.076 48.1299 374.076C48.4672 374.076 48.7679 373.999 49.0319 373.845C49.3032 373.691 49.4976 373.464 49.6149 373.163L49.8459 373.988C49.7139 374.333 49.4756 374.6 49.1309 374.791C48.7936 374.982 48.3646 375.077 47.8439 375.077ZM52.7545 375V369.126H54.0635V370.743L53.9095 370.27C54.0855 369.874 54.3605 369.573 54.7345 369.368C55.1159 369.163 55.5889 369.06 56.1535 369.06V370.369C56.0949 370.354 56.0399 370.347 55.9885 370.347C55.9372 370.34 55.8859 370.336 55.8345 370.336C55.3139 370.336 54.8995 370.49 54.5915 370.798C54.2835 371.099 54.1295 371.55 54.1295 372.151V375H52.7545ZM59.7458 375.077C59.1005 375.077 58.6018 374.912 58.2498 374.582C57.8978 374.245 57.7218 373.75 57.7218 373.097V367.828H59.0968V373.064C59.0968 373.343 59.1665 373.559 59.3058 373.713C59.4525 373.867 59.6541 373.944 59.9108 373.944C60.2188 373.944 60.4755 373.863 60.6808 373.702L61.0658 374.681C60.9045 374.813 60.7065 374.912 60.4718 374.978C60.2371 375.044 59.9951 375.077 59.7458 375.077ZM56.7538 370.27V369.17H60.6698V370.27H56.7538Z" fill="#112D35"/>
<path fill-rule="evenodd" clip-rule="evenodd" d="M7 326C7 326 97.9658 317.486 142.009 264.919C186.052 212.351 205.127 119.214 225.029 150.153C244.931 181.092 252.793 285.098 288.41 297.852C324.027 310.605 344.004 227.424 392.812 245.225C441.62 263.026 480.963 321.687 526.996 325.098C526.479 325.012 7 326 7 326Z" fill="url(#paint0_linear_3_4244)"/>
<g filter="url(#filter0_b_3_4244)">
<path fill-rule="evenodd" clip-rule="evenodd" d="M7 325.785C38.5733 301.395 56.2715 292.564 94.6442 301.395C133.017 310.226 180.113 309.481 203.681 253.111C227.25 196.741 224.461 108 241.62 108C258.779 108 255.802 283.087 345.673 301.395C435.543 319.704 512 326 512 326C512 326 16.1443 324.755 7 325.785Z" fill="url(#paint1_linear_3_4244)"/>
</g>
<g style="mix-blend-mode:hard-light">
<path d="M146.5 259.5V324.5H269.5V299V209C264.3 194.2 259.729 171.06 257 158C250 124.5 247.5 109.5 241.5 108C232 109 229 138 226.5 152.5C223.5 147.5 220.5 144 217 144C206.5 144 192 177.5 183 196C170.962 220.745 155.5 249.5 146.5 259.5Z" fill="#AEAAE8" fill-opacity="0.5"/>
</g>
<g filter="url(#filter1_b_3_4244)">
<path fill-rule="evenodd" clip-rule="evenodd" d="M3 325.673C3 325.673 171.929 330.159 248.325 273.176C324.72 216.193 335.64 121 387.597 121C439.554 121 466.653 273.616 530 325.215C530 325.43 3 325.673 3 325.673Z" fill="url(#paint2_linear_3_4244)"/>
</g>
<g style="mix-blend-mode:hard-light">
<path d="M316 194.5V325.5H439.5V174.5C431.5 158.1 423 145.667 419 141C403.571 123 395 120 381 121.5C363 123.429 348.707 144.318 345 149C335.5 161 322.667 184 316 194.5Z" fill="#AEAAE8" fill-opacity="0.5"/>
</g>
<path d="M270.5 325.24V5" stroke="url(#paint3_linear_3_4244)" stroke-linecap="square" stroke-dasharray="1 5"/>
<path d="M535 325.5L5 325.5" stroke="#112D35" stroke-linecap="square"/>
<path opacity="0.5" d="M332.05 54V47H332.87L336.01 52.29H335.57L338.67 47H339.49L339.5 54H338.54L338.53 48.51H338.76L336 53.15H335.54L332.76 48.51H333.01V54H332.05ZM343.821 54.06C343.254 54.06 342.754 53.9433 342.321 53.71C341.894 53.4767 341.561 53.1567 341.321 52.75C341.087 52.3433 340.971 51.8767 340.971 51.35C340.971 50.8233 341.084 50.3567 341.311 49.95C341.544 49.5433 341.861 49.2267 342.261 49C342.667 48.7667 343.124 48.65 343.631 48.65C344.144 48.65 344.597 48.7633 344.991 48.99C345.384 49.2167 345.691 49.5367 345.911 49.95C346.137 50.3567 346.251 50.8333 346.251 51.38C346.251 51.42 346.247 51.4667 346.241 51.52C346.241 51.5733 346.237 51.6233 346.231 51.67H341.721V50.98H345.731L345.341 51.22C345.347 50.88 345.277 50.5767 345.131 50.31C344.984 50.0433 344.781 49.8367 344.521 49.69C344.267 49.5367 343.971 49.46 343.631 49.46C343.297 49.46 343.001 49.5367 342.741 49.69C342.481 49.8367 342.277 50.0467 342.131 50.32C341.984 50.5867 341.911 50.8933 341.911 51.24V51.4C341.911 51.7533 341.991 52.07 342.151 52.35C342.317 52.6233 342.547 52.8367 342.841 52.99C343.134 53.1433 343.471 53.22 343.851 53.22C344.164 53.22 344.447 53.1667 344.701 53.06C344.961 52.9533 345.187 52.7933 345.381 52.58L345.911 53.2C345.671 53.48 345.371 53.6933 345.011 53.84C344.657 53.9867 344.261 54.06 343.821 54.06ZM350.727 54V52.88L350.677 52.67V50.76C350.677 50.3533 350.557 50.04 350.317 49.82C350.084 49.5933 349.731 49.48 349.257 49.48C348.944 49.48 348.637 49.5333 348.337 49.64C348.037 49.74 347.784 49.8767 347.577 50.05L347.177 49.33C347.451 49.11 347.777 48.9433 348.157 48.83C348.544 48.71 348.947 48.65 349.367 48.65C350.094 48.65 350.654 48.8267 351.047 49.18C351.441 49.5333 351.637 50.0733 351.637 50.8V54H350.727ZM348.987 54.06C348.594 54.06 348.247 53.9933 347.947 53.86C347.654 53.7267 347.427 53.5433 347.267 53.31C347.107 53.07 347.027 52.8 347.027 52.5C347.027 52.2133 347.094 51.9533 347.227 51.72C347.367 51.4867 347.591 51.3 347.897 51.16C348.211 51.02 348.631 50.95 349.157 50.95H350.837V51.64H349.197C348.717 51.64 348.394 51.72 348.227 51.88C348.061 52.04 347.977 52.2333 347.977 52.46C347.977 52.72 348.081 52.93 348.287 53.09C348.494 53.2433 348.781 53.32 349.147 53.32C349.507 53.32 349.821 53.24 350.087 53.08C350.361 52.92 350.557 52.6867 350.677 52.38L350.867 53.04C350.741 53.3533 350.517 53.6033 350.197 53.79C349.877 53.97 349.474 54.06 348.987 54.06ZM354.934 54.06C354.494 54.06 354.074 54 353.674 53.88C353.281 53.76 352.971 53.6133 352.744 53.44L353.144 52.68C353.371 52.8333 353.651 52.9633 353.984 53.07C354.317 53.1767 354.657 53.23 355.004 53.23C355.451 53.23 355.771 53.1667 355.964 53.04C356.164 52.9133 356.264 52.7367 356.264 52.51C356.264 52.3433 356.204 52.2133 356.084 52.12C355.964 52.0267 355.804 51.9567 355.604 51.91C355.411 51.8633 355.194 51.8233 354.954 51.79C354.714 51.75 354.474 51.7033 354.234 51.65C353.994 51.59 353.774 51.51 353.574 51.41C353.374 51.3033 353.214 51.16 353.094 50.98C352.974 50.7933 352.914 50.5467 352.914 50.24C352.914 49.92 353.004 49.64 353.184 49.4C353.364 49.16 353.617 48.9767 353.944 48.85C354.277 48.7167 354.671 48.65 355.124 48.65C355.471 48.65 355.821 48.6933 356.174 48.78C356.534 48.86 356.827 48.9767 357.054 49.13L356.644 49.89C356.404 49.73 356.154 49.62 355.894 49.56C355.634 49.5 355.374 49.47 355.114 49.47C354.694 49.47 354.381 49.54 354.174 49.68C353.967 49.8133 353.864 49.9867 353.864 50.2C353.864 50.38 353.924 50.52 354.044 50.62C354.171 50.7133 354.331 50.7867 354.524 50.84C354.724 50.8933 354.944 50.94 355.184 50.98C355.424 51.0133 355.664 51.06 355.904 51.12C356.144 51.1733 356.361 51.25 356.554 51.35C356.754 51.45 356.914 51.59 357.034 51.77C357.161 51.95 357.224 52.19 357.224 52.49C357.224 52.81 357.131 53.0867 356.944 53.32C356.757 53.5533 356.494 53.7367 356.154 53.87C355.814 53.9967 355.407 54.06 354.934 54.06ZM360.654 54.06C360.2 54.06 359.8 53.9767 359.454 53.81C359.114 53.6433 358.847 53.39 358.654 53.05C358.467 52.7033 358.374 52.27 358.374 51.75V48.7H359.334V51.64C359.334 52.16 359.457 52.55 359.704 52.81C359.957 53.07 360.31 53.2 360.764 53.2C361.097 53.2 361.387 53.1333 361.634 53C361.88 52.86 362.07 52.66 362.204 52.4C362.337 52.1333 362.404 51.8133 362.404 51.44V48.7H363.364V54H362.454V52.57L362.604 52.95C362.43 53.3033 362.17 53.5767 361.824 53.77C361.477 53.9633 361.087 54.06 360.654 54.06ZM365.191 54V48.7H366.111V50.14L366.021 49.78C366.168 49.4133 366.415 49.1333 366.761 48.94C367.108 48.7467 367.535 48.65 368.041 48.65V49.58C368.001 49.5733 367.961 49.57 367.921 49.57C367.888 49.57 367.855 49.57 367.821 49.57C367.308 49.57 366.901 49.7233 366.601 50.03C366.301 50.3367 366.151 50.78 366.151 51.36V54H365.191ZM371.536 54.06C370.969 54.06 370.469 53.9433 370.036 53.71C369.609 53.4767 369.276 53.1567 369.036 52.75C368.802 52.3433 368.686 51.8767 368.686 51.35C368.686 50.8233 368.799 50.3567 369.026 49.95C369.259 49.5433 369.576 49.2267 369.976 49C370.382 48.7667 370.839 48.65 371.346 48.65C371.859 48.65 372.312 48.7633 372.706 48.99C373.099 49.2167 373.406 49.5367 373.626 49.95C373.852 50.3567 373.966 50.8333 373.966 51.38C373.966 51.42 373.962 51.4667 373.956 51.52C373.956 51.5733 373.952 51.6233 373.946 51.67H369.436V50.98H373.446L373.056 51.22C373.062 50.88 372.992 50.5767 372.846 50.31C372.699 50.0433 372.496 49.8367 372.236 49.69C371.982 49.5367 371.686 49.46 371.346 49.46C371.012 49.46 370.716 49.5367 370.456 49.69C370.196 49.8367 369.992 50.0467 369.846 50.32C369.699 50.5867 369.626 50.8933 369.626 51.24V51.4C369.626 51.7533 369.706 52.07 369.866 52.35C370.032 52.6233 370.262 52.8367 370.556 52.99C370.849 53.1433 371.186 53.22 371.566 53.22C371.879 53.22 372.162 53.1667 372.416 53.06C372.676 52.9533 372.902 52.7933 373.096 52.58L373.626 53.2C373.386 53.48 373.086 53.6933 372.726 53.84C372.372 53.9867 371.976 54.06 371.536 54.06ZM376.819 54.06C376.379 54.06 375.959 54 375.559 53.88C375.165 53.76 374.855 53.6133 374.629 53.44L375.029 52.68C375.255 52.8333 375.535 52.9633 375.869 53.07C376.202 53.1767 376.542 53.23 376.889 53.23C377.335 53.23 377.655 53.1667 377.849 53.04C378.049 52.9133 378.149 52.7367 378.149 52.51C378.149 52.3433 378.089 52.2133 377.969 52.12C377.849 52.0267 377.689 51.9567 377.489 51.91C377.295 51.8633 377.079 51.8233 376.839 51.79C376.599 51.75 376.359 51.7033 376.119 51.65C375.879 51.59 375.659 51.51 375.459 51.41C375.259 51.3033 375.099 51.16 374.979 50.98C374.859 50.7933 374.799 50.5467 374.799 50.24C374.799 49.92 374.889 49.64 375.069 49.4C375.249 49.16 375.502 48.9767 375.829 48.85C376.162 48.7167 376.555 48.65 377.009 48.65C377.355 48.65 377.705 48.6933 378.059 48.78C378.419 48.86 378.712 48.9767 378.939 49.13L378.529 49.89C378.289 49.73 378.039 49.62 377.779 49.56C377.519 49.5 377.259 49.47 376.999 49.47C376.579 49.47 376.265 49.54 376.059 49.68C375.852 49.8133 375.749 49.9867 375.749 50.2C375.749 50.38 375.809 50.52 375.929 50.62C376.055 50.7133 376.215 50.7867 376.409 50.84C376.609 50.8933 376.829 50.94 377.069 50.98C377.309 51.0133 377.549 51.06 377.789 51.12C378.029 51.1733 378.245 51.25 378.439 51.35C378.639 51.45 378.799 51.59 378.919 51.77C379.045 51.95 379.109 52.19 379.109 52.49C379.109 52.81 379.015 53.0867 378.829 53.32C378.642 53.5533 378.379 53.7367 378.039 53.87C377.699 53.9967 377.292 54.06 376.819 54.06ZM332.05 66V59H334.78C335.393 59 335.917 59.0967 336.35 59.29C336.783 59.4833 337.117 59.7633 337.35 60.13C337.583 60.4967 337.7 60.9333 337.7 61.44C337.7 61.9467 337.583 62.3833 337.35 62.75C337.117 63.11 336.783 63.39 336.35 63.59C335.917 63.7833 335.393 63.88 334.78 63.88H332.6L333.05 63.41V66H332.05ZM333.05 63.51L332.6 63.01H334.75C335.39 63.01 335.873 62.8733 336.2 62.6C336.533 62.3267 336.7 61.94 336.7 61.44C336.7 60.94 336.533 60.5533 336.2 60.28C335.873 60.0067 335.39 59.87 334.75 59.87H332.6L333.05 59.37V63.51ZM338.931 66V60.7H339.851V62.14L339.761 61.78C339.908 61.4133 340.155 61.1333 340.501 60.94C340.848 60.7467 341.275 60.65 341.781 60.65V61.58C341.741 61.5733 341.701 61.57 341.661 61.57C341.628 61.57 341.595 61.57 341.561 61.57C341.048 61.57 340.641 61.7233 340.341 62.03C340.041 62.3367 339.891 62.78 339.891 63.36V66H338.931ZM345.186 66.06C344.653 66.06 344.179 65.9433 343.766 65.71C343.353 65.4767 343.026 65.1567 342.786 64.75C342.546 64.3367 342.426 63.87 342.426 63.35C342.426 62.8233 342.546 62.3567 342.786 61.95C343.026 61.5433 343.353 61.2267 343.766 61C344.179 60.7667 344.653 60.65 345.186 60.65C345.713 60.65 346.183 60.7667 346.596 61C347.016 61.2267 347.343 61.5433 347.576 61.95C347.816 62.35 347.936 62.8167 347.936 63.35C347.936 63.8767 347.816 64.3433 347.576 64.75C347.343 65.1567 347.016 65.4767 346.596 65.71C346.183 65.9433 345.713 66.06 345.186 66.06ZM345.186 65.22C345.526 65.22 345.829 65.1433 346.096 64.99C346.369 64.8367 346.583 64.62 346.736 64.34C346.889 64.0533 346.966 63.7233 346.966 63.35C346.966 62.97 346.889 62.6433 346.736 62.37C346.583 62.09 346.369 61.8733 346.096 61.72C345.829 61.5667 345.526 61.49 345.186 61.49C344.846 61.49 344.543 61.5667 344.276 61.72C344.009 61.8733 343.796 62.09 343.636 62.37C343.476 62.6433 343.396 62.97 343.396 63.35C343.396 63.7233 343.476 64.0533 343.636 64.34C343.796 64.62 344.009 64.8367 344.276 64.99C344.543 65.1433 344.846 65.22 345.186 65.22ZM351.584 68C351.097 68 350.624 67.93 350.164 67.79C349.71 67.6567 349.34 67.4633 349.054 67.21L349.514 66.47C349.76 66.6833 350.064 66.85 350.424 66.97C350.784 67.0967 351.16 67.16 351.554 67.16C352.18 67.16 352.64 67.0133 352.934 66.72C353.227 66.4267 353.374 65.98 353.374 65.38V64.26L353.474 63.21L353.424 62.15V60.7H354.334V65.28C354.334 66.2133 354.1 66.9 353.634 67.34C353.167 67.78 352.484 68 351.584 68ZM351.464 65.78C350.95 65.78 350.49 65.6733 350.084 65.46C349.684 65.24 349.364 64.9367 349.124 64.55C348.89 64.1633 348.774 63.7167 348.774 63.21C348.774 62.6967 348.89 62.25 349.124 61.87C349.364 61.4833 349.684 61.1833 350.084 60.97C350.49 60.7567 350.95 60.65 351.464 60.65C351.917 60.65 352.33 60.7433 352.704 60.93C353.077 61.11 353.374 61.39 353.594 61.77C353.82 62.15 353.934 62.63 353.934 63.21C353.934 63.7833 353.82 64.26 353.594 64.64C353.374 65.02 353.077 65.3067 352.704 65.5C352.33 65.6867 351.917 65.78 351.464 65.78ZM351.574 64.94C351.927 64.94 352.24 64.8667 352.514 64.72C352.787 64.5733 353 64.37 353.154 64.11C353.314 63.85 353.394 63.55 353.394 63.21C353.394 62.87 353.314 62.57 353.154 62.31C353 62.05 352.787 61.85 352.514 61.71C352.24 61.5633 351.927 61.49 351.574 61.49C351.22 61.49 350.904 61.5633 350.624 61.71C350.35 61.85 350.134 62.05 349.974 62.31C349.82 62.57 349.744 62.87 349.744 63.21C349.744 63.55 349.82 63.85 349.974 64.11C350.134 64.37 350.35 64.5733 350.624 64.72C350.904 64.8667 351.22 64.94 351.574 64.94ZM358.528 66.06C357.961 66.06 357.461 65.9433 357.028 65.71C356.601 65.4767 356.268 65.1567 356.028 64.75C355.794 64.3433 355.678 63.8767 355.678 63.35C355.678 62.8233 355.791 62.3567 356.018 61.95C356.251 61.5433 356.568 61.2267 356.968 61C357.374 60.7667 357.831 60.65 358.338 60.65C358.851 60.65 359.304 60.7633 359.698 60.99C360.091 61.2167 360.398 61.5367 360.618 61.95C360.844 62.3567 360.958 62.8333 360.958 63.38C360.958 63.42 360.954 63.4667 360.948 63.52C360.948 63.5733 360.944 63.6233 360.938 63.67H356.428V62.98H360.438L360.048 63.22C360.054 62.88 359.984 62.5767 359.838 62.31C359.691 62.0433 359.488 61.8367 359.228 61.69C358.974 61.5367 358.678 61.46 358.338 61.46C358.004 61.46 357.708 61.5367 357.448 61.69C357.188 61.8367 356.984 62.0467 356.838 62.32C356.691 62.5867 356.618 62.8933 356.618 63.24V63.4C356.618 63.7533 356.698 64.07 356.858 64.35C357.024 64.6233 357.254 64.8367 357.548 64.99C357.841 65.1433 358.178 65.22 358.558 65.22C358.871 65.22 359.154 65.1667 359.408 65.06C359.668 64.9533 359.894 64.7933 360.088 64.58L360.618 65.2C360.378 65.48 360.078 65.6933 359.718 65.84C359.364 65.9867 358.968 66.06 358.528 66.06ZM363.811 66.06C363.371 66.06 362.951 66 362.551 65.88C362.158 65.76 361.848 65.6133 361.621 65.44L362.021 64.68C362.248 64.8333 362.528 64.9633 362.861 65.07C363.194 65.1767 363.534 65.23 363.881 65.23C364.328 65.23 364.648 65.1667 364.841 65.04C365.041 64.9133 365.141 64.7367 365.141 64.51C365.141 64.3433 365.081 64.2133 364.961 64.12C364.841 64.0267 364.681 63.9567 364.481 63.91C364.288 63.8633 364.071 63.8233 363.831 63.79C363.591 63.75 363.351 63.7033 363.111 63.65C362.871 63.59 362.651 63.51 362.451 63.41C362.251 63.3033 362.091 63.16 361.971 62.98C361.851 62.7933 361.791 62.5467 361.791 62.24C361.791 61.92 361.881 61.64 362.061 61.4C362.241 61.16 362.494 60.9767 362.821 60.85C363.154 60.7167 363.548 60.65 364.001 60.65C364.348 60.65 364.698 60.6933 365.051 60.78C365.411 60.86 365.704 60.9767 365.931 61.13L365.521 61.89C365.281 61.73 365.031 61.62 364.771 61.56C364.511 61.5 364.251 61.47 363.991 61.47C363.571 61.47 363.258 61.54 363.051 61.68C362.844 61.8133 362.741 61.9867 362.741 62.2C362.741 62.38 362.801 62.52 362.921 62.62C363.048 62.7133 363.208 62.7867 363.401 62.84C363.601 62.8933 363.821 62.94 364.061 62.98C364.301 63.0133 364.541 63.06 364.781 63.12C365.021 63.1733 365.238 63.25 365.431 63.35C365.631 63.45 365.791 63.59 365.911 63.77C366.038 63.95 366.101 64.19 366.101 64.49C366.101 64.81 366.008 65.0867 365.821 65.32C365.634 65.5533 365.371 65.7367 365.031 65.87C364.691 65.9967 364.284 66.06 363.811 66.06ZM369.121 66.06C368.587 66.06 368.174 65.9167 367.881 65.63C367.587 65.3433 367.441 64.9333 367.441 64.4V59.54H368.401V64.36C368.401 64.6467 368.471 64.8667 368.611 65.02C368.757 65.1733 368.964 65.25 369.231 65.25C369.531 65.25 369.781 65.1667 369.981 65L370.281 65.69C370.134 65.8167 369.957 65.91 369.751 65.97C369.551 66.03 369.341 66.06 369.121 66.06ZM366.541 61.49V60.7H369.921V61.49H366.541ZM373.625 66.06C373.059 66.06 372.559 65.9433 372.125 65.71C371.699 65.4767 371.365 65.1567 371.125 64.75C370.892 64.3433 370.775 63.8767 370.775 63.35C370.775 62.8233 370.889 62.3567 371.115 61.95C371.349 61.5433 371.665 61.2267 372.065 61C372.472 60.7667 372.929 60.65 373.435 60.65C373.949 60.65 374.402 60.7633 374.795 60.99C375.189 61.2167 375.495 61.5367 375.715 61.95C375.942 62.3567 376.055 62.8333 376.055 63.38C376.055 63.42 376.052 63.4667 376.045 63.52C376.045 63.5733 376.042 63.6233 376.035 63.67H371.525V62.98H375.535L375.145 63.22C375.152 62.88 375.082 62.5767 374.935 62.31C374.789 62.0433 374.585 61.8367 374.325 61.69C374.072 61.5367 373.775 61.46 373.435 61.46C373.102 61.46 372.805 61.5367 372.545 61.69C372.285 61.8367 372.082 62.0467 371.935 62.32C371.789 62.5867 371.715 62.8933 371.715 63.24V63.4C371.715 63.7533 371.795 64.07 371.955 64.35C372.122 64.6233 372.352 64.8367 372.645 64.99C372.939 65.1433 373.275 65.22 373.655 65.22C373.969 65.22 374.252 65.1667 374.505 65.06C374.765 64.9533 374.992 64.7933 375.185 64.58L375.715 65.2C375.475 65.48 375.175 65.6933 374.815 65.84C374.462 65.9867 374.065 66.06 373.625 66.06ZM377.389 66V60.7H378.309V62.14L378.219 61.78C378.365 61.4133 378.612 61.1333 378.959 60.94C379.305 60.7467 379.732 60.65 380.239 60.65V61.58C380.199 61.5733 380.159 61.57 380.119 61.57C380.085 61.57 380.052 61.57 380.019 61.57C379.505 61.57 379.099 61.7233 378.799 62.03C378.499 62.3367 378.349 62.78 378.349 63.36V66H377.389ZM383.643 66.06C383.11 66.06 382.636 65.9433 382.223 65.71C381.81 65.4767 381.483 65.1567 381.243 64.75C381.003 64.3367 380.883 63.87 380.883 63.35C380.883 62.8233 381.003 62.3567 381.243 61.95C381.483 61.5433 381.81 61.2267 382.223 61C382.636 60.7667 383.11 60.65 383.643 60.65C384.17 60.65 384.64 60.7667 385.053 61C385.473 61.2267 385.8 61.5433 386.033 61.95C386.273 62.35 386.393 62.8167 386.393 63.35C386.393 63.8767 386.273 64.3433 386.033 64.75C385.8 65.1567 385.473 65.4767 385.053 65.71C384.64 65.9433 384.17 66.06 383.643 66.06ZM383.643 65.22C383.983 65.22 384.286 65.1433 384.553 64.99C384.826 64.8367 385.04 64.62 385.193 64.34C385.346 64.0533 385.423 63.7233 385.423 63.35C385.423 62.97 385.346 62.6433 385.193 62.37C385.04 62.09 384.826 61.8733 384.553 61.72C384.286 61.5667 383.983 61.49 383.643 61.49C383.303 61.49 383 61.5667 382.733 61.72C382.466 61.8733 382.253 62.09 382.093 62.37C381.933 62.6433 381.853 62.97 381.853 63.35C381.853 63.7233 381.933 64.0533 382.093 64.34C382.253 64.62 382.466 64.8367 382.733 64.99C383 65.1433 383.303 65.22 383.643 65.22ZM390.551 60.65C390.984 60.65 391.364 60.7333 391.691 60.9C392.024 61.0667 392.284 61.32 392.471 61.66C392.657 62 392.751 62.43 392.751 62.95V66H391.791V63.06C391.791 62.5467 391.664 62.16 391.411 61.9C391.164 61.64 390.814 61.51 390.361 61.51C390.021 61.51 389.724 61.5767 389.471 61.71C389.217 61.8433 389.021 62.04 388.881 62.3C388.747 62.56 388.681 62.8833 388.681 63.27V66H387.721V60.7H388.641V62.13L388.491 61.75C388.664 61.4033 388.931 61.1333 389.291 60.94C389.651 60.7467 390.071 60.65 390.551 60.65ZM396.887 66.06C396.321 66.06 395.821 65.9433 395.387 65.71C394.961 65.4767 394.627 65.1567 394.387 64.75C394.154 64.3433 394.037 63.8767 394.037 63.35C394.037 62.8233 394.151 62.3567 394.377 61.95C394.611 61.5433 394.927 61.2267 395.327 61C395.734 60.7667 396.191 60.65 396.697 60.65C397.211 60.65 397.664 60.7633 398.057 60.99C398.451 61.2167 398.757 61.5367 398.977 61.95C399.204 62.3567 399.317 62.8333 399.317 63.38C399.317 63.42 399.314 63.4667 399.307 63.52C399.307 63.5733 399.304 63.6233 399.297 63.67H394.787V62.98H398.797L398.407 63.22C398.414 62.88 398.344 62.5767 398.197 62.31C398.051 62.0433 397.847 61.8367 397.587 61.69C397.334 61.5367 397.037 61.46 396.697 61.46C396.364 61.46 396.067 61.5367 395.807 61.69C395.547 61.8367 395.344 62.0467 395.197 62.32C395.051 62.5867 394.977 62.8933 394.977 63.24V63.4C394.977 63.7533 395.057 64.07 395.217 64.35C395.384 64.6233 395.614 64.8367 395.907 64.99C396.201 65.1433 396.537 65.22 396.917 65.22C397.231 65.22 397.514 65.1667 397.767 65.06C398.027 64.9533 398.254 64.7933 398.447 64.58L398.977 65.2C398.737 65.48 398.437 65.6933 398.077 65.84C397.724 65.9867 397.327 66.06 396.887 66.06Z" fill="#112D35"/>
<path d="M164.304 14V5.74H161.056V4.2H169.372V5.74H166.124V14H164.304ZM170.392 14V6.524H172.058V8.582L171.862 7.98C172.086 7.476 172.436 7.09333 172.912 6.832C173.397 6.57067 173.999 6.44 174.718 6.44V8.106C174.643 8.08733 174.573 8.078 174.508 8.078C174.443 8.06867 174.377 8.064 174.312 8.064C173.649 8.064 173.122 8.26 172.73 8.652C172.338 9.03467 172.142 9.60867 172.142 10.374V14H170.392ZM180.275 14V12.488L180.177 12.166V9.52C180.177 9.00667 180.023 8.61 179.715 8.33C179.407 8.04067 178.941 7.896 178.315 7.896C177.895 7.896 177.48 7.96133 177.069 8.092C176.668 8.22267 176.327 8.40467 176.047 8.638L175.361 7.364C175.763 7.056 176.239 6.82733 176.789 6.678C177.349 6.51933 177.928 6.44 178.525 6.44C179.608 6.44 180.443 6.70133 181.031 7.224C181.629 7.73733 181.927 8.53533 181.927 9.618V14H180.275ZM177.923 14.098C177.363 14.098 176.873 14.0047 176.453 13.818C176.033 13.622 175.707 13.356 175.473 13.02C175.249 12.6747 175.137 12.2873 175.137 11.858C175.137 11.438 175.235 11.06 175.431 10.724C175.637 10.388 175.968 10.122 176.425 9.926C176.883 9.73 177.489 9.632 178.245 9.632H180.415V10.794H178.371C177.774 10.794 177.373 10.892 177.167 11.088C176.962 11.2747 176.859 11.508 176.859 11.788C176.859 12.1053 176.985 12.3573 177.237 12.544C177.489 12.7307 177.839 12.824 178.287 12.824C178.717 12.824 179.099 12.726 179.435 12.53C179.781 12.334 180.028 12.0447 180.177 11.662L180.471 12.712C180.303 13.1507 180 13.4913 179.561 13.734C179.132 13.9767 178.586 14.098 177.923 14.098ZM187.617 14.098C186.833 14.098 186.133 13.9347 185.517 13.608C184.91 13.272 184.434 12.8147 184.089 12.236C183.744 11.6573 183.571 10.9993 183.571 10.262C183.571 9.51533 183.744 8.85733 184.089 8.288C184.434 7.70933 184.91 7.25667 185.517 6.93C186.133 6.60333 186.833 6.44 187.617 6.44C188.345 6.44 188.984 6.58933 189.535 6.888C190.095 7.17733 190.52 7.60667 190.809 8.176L189.465 8.96C189.241 8.60533 188.966 8.344 188.639 8.176C188.322 8.008 187.976 7.924 187.603 7.924C187.174 7.924 186.786 8.01733 186.441 8.204C186.096 8.39067 185.825 8.66133 185.629 9.016C185.433 9.36133 185.335 9.77667 185.335 10.262C185.335 10.7473 185.433 11.1673 185.629 11.522C185.825 11.8673 186.096 12.1333 186.441 12.32C186.786 12.5067 187.174 12.6 187.603 12.6C187.976 12.6 188.322 12.516 188.639 12.348C188.966 12.18 189.241 11.9187 189.465 11.564L190.809 12.348C190.52 12.908 190.095 13.342 189.535 13.65C188.984 13.9487 188.345 14.098 187.617 14.098ZM193.681 12.334L193.723 10.136L197.629 6.524H199.729L196.411 9.856L195.487 10.626L193.681 12.334ZM192.253 14V3.612H194.003V14H192.253ZM197.895 14L195.165 10.626L196.271 9.226L200.023 14H197.895ZM206.857 8.708H211.743V10.248H206.857V8.708ZM207.011 14H205.191V4.2H212.345V5.726H207.011V14ZM217.246 14.098C216.415 14.098 215.687 13.9347 215.062 13.608C214.446 13.272 213.965 12.8147 213.62 12.236C213.284 11.6573 213.116 10.9993 213.116 10.262C213.116 9.51533 213.279 8.85733 213.606 8.288C213.942 7.70933 214.399 7.25667 214.978 6.93C215.566 6.60333 216.233 6.44 216.98 6.44C217.708 6.44 218.357 6.59867 218.926 6.916C219.495 7.23333 219.943 7.68133 220.27 8.26C220.597 8.83867 220.76 9.52 220.76 10.304C220.76 10.3787 220.755 10.4627 220.746 10.556C220.746 10.6493 220.741 10.738 220.732 10.822H214.502V9.66H219.808L219.122 10.024C219.131 9.59467 219.043 9.21667 218.856 8.89C218.669 8.56333 218.413 8.30667 218.086 8.12C217.769 7.93333 217.4 7.84 216.98 7.84C216.551 7.84 216.173 7.93333 215.846 8.12C215.529 8.30667 215.277 8.568 215.09 8.904C214.913 9.23067 214.824 9.618 214.824 10.066V10.346C214.824 10.794 214.927 11.1907 215.132 11.536C215.337 11.8813 215.627 12.1473 216 12.334C216.373 12.5207 216.803 12.614 217.288 12.614C217.708 12.614 218.086 12.5487 218.422 12.418C218.758 12.2873 219.057 12.082 219.318 11.802L220.256 12.88C219.92 13.272 219.495 13.5753 218.982 13.79C218.478 13.9953 217.899 14.098 217.246 14.098ZM222.441 14V6.524H224.107V8.582L223.911 7.98C224.135 7.476 224.485 7.09333 224.961 6.832C225.446 6.57067 226.048 6.44 226.767 6.44V8.106C226.692 8.08733 226.622 8.078 226.557 8.078C226.492 8.06867 226.426 8.064 226.361 8.064C225.698 8.064 225.171 8.26 224.779 8.652C224.387 9.03467 224.191 9.60867 224.191 10.374V14H222.441ZM231.339 14.098C230.518 14.098 229.883 13.888 229.435 13.468C228.987 13.0387 228.763 12.4087 228.763 11.578V4.872H230.513V11.536C230.513 11.8907 230.602 12.166 230.779 12.362C230.966 12.558 231.222 12.656 231.549 12.656C231.941 12.656 232.268 12.5533 232.529 12.348L233.019 13.594C232.814 13.762 232.562 13.888 232.263 13.972C231.964 14.056 231.656 14.098 231.339 14.098ZM227.531 7.98V6.58H232.515V7.98H227.531ZM234.459 14V6.524H236.209V14H234.459ZM235.341 5.292C235.014 5.292 234.743 5.18933 234.529 4.984C234.323 4.77867 234.221 4.53133 234.221 4.242C234.221 3.94333 234.323 3.696 234.529 3.5C234.743 3.29467 235.014 3.192 235.341 3.192C235.667 3.192 235.933 3.29 236.139 3.486C236.353 3.67267 236.461 3.91067 236.461 4.2C236.461 4.508 236.358 4.76933 236.153 4.984C235.947 5.18933 235.677 5.292 235.341 5.292ZM238.505 14V3.612H240.255V14H238.505ZM246.066 14.098C245.236 14.098 244.508 13.9347 243.882 13.608C243.266 13.272 242.786 12.8147 242.44 12.236C242.104 11.6573 241.936 10.9993 241.936 10.262C241.936 9.51533 242.1 8.85733 242.426 8.288C242.762 7.70933 243.22 7.25667 243.798 6.93C244.386 6.60333 245.054 6.44 245.8 6.44C246.528 6.44 247.177 6.59867 247.746 6.916C248.316 7.23333 248.764 7.68133 249.09 8.26C249.417 8.83867 249.58 9.52 249.58 10.304C249.58 10.3787 249.576 10.4627 249.566 10.556C249.566 10.6493 249.562 10.738 249.552 10.822H243.322V9.66H248.628L247.942 10.024C247.952 9.59467 247.863 9.21667 247.676 8.89C247.49 8.56333 247.233 8.30667 246.906 8.12C246.589 7.93333 246.22 7.84 245.8 7.84C245.371 7.84 244.993 7.93333 244.666 8.12C244.349 8.30667 244.097 8.568 243.91 8.904C243.733 9.23067 243.644 9.618 243.644 10.066V10.346C243.644 10.794 243.747 11.1907 243.952 11.536C244.158 11.8813 244.447 12.1473 244.82 12.334C245.194 12.5207 245.623 12.614 246.108 12.614C246.528 12.614 246.906 12.5487 247.242 12.418C247.578 12.2873 247.877 12.082 248.138 11.802L249.076 12.88C248.74 13.272 248.316 13.5753 247.802 13.79C247.298 13.9953 246.72 14.098 246.066 14.098ZM162.316 31V21.2H166.6C167.664 21.2 168.597 21.4053 169.4 21.816C170.203 22.2267 170.828 22.796 171.276 23.524C171.724 24.252 171.948 25.1107 171.948 26.1C171.948 27.08 171.724 27.9387 171.276 28.676C170.828 29.404 170.203 29.9733 169.4 30.384C168.597 30.7947 167.664 31 166.6 31H162.316ZM164.136 29.46H166.516C167.253 29.46 167.888 29.32 168.42 29.04C168.961 28.76 169.377 28.368 169.666 27.864C169.965 27.36 170.114 26.772 170.114 26.1C170.114 25.4187 169.965 24.8307 169.666 24.336C169.377 23.832 168.961 23.44 168.42 23.16C167.888 22.88 167.253 22.74 166.516 22.74H164.136V29.46ZM178.32 31V29.488L178.222 29.166V26.52C178.222 26.0067 178.068 25.61 177.76 25.33C177.452 25.0407 176.986 24.896 176.36 24.896C175.94 24.896 175.525 24.9613 175.114 25.092C174.713 25.2227 174.372 25.4047 174.092 25.638L173.406 24.364C173.808 24.056 174.284 23.8273 174.834 23.678C175.394 23.5193 175.973 23.44 176.57 23.44C177.653 23.44 178.488 23.7013 179.076 24.224C179.674 24.7373 179.972 25.5353 179.972 26.618V31H178.32ZM175.968 31.098C175.408 31.098 174.918 31.0047 174.498 30.818C174.078 30.622 173.752 30.356 173.518 30.02C173.294 29.6747 173.182 29.2873 173.182 28.858C173.182 28.438 173.28 28.06 173.476 27.724C173.682 27.388 174.013 27.122 174.47 26.926C174.928 26.73 175.534 26.632 176.29 26.632H178.46V27.794H176.416C175.819 27.794 175.418 27.892 175.212 28.088C175.007 28.2747 174.904 28.508 174.904 28.788C174.904 29.1053 175.03 29.3573 175.282 29.544C175.534 29.7307 175.884 29.824 176.332 29.824C176.762 29.824 177.144 29.726 177.48 29.53C177.826 29.334 178.073 29.0447 178.222 28.662L178.516 29.712C178.348 30.1507 178.045 30.4913 177.606 30.734C177.177 30.9767 176.631 31.098 175.968 31.098ZM182.698 33.814C182.334 33.814 181.97 33.7533 181.606 33.632C181.242 33.5107 180.938 33.3427 180.696 33.128L181.396 31.84C181.573 31.9987 181.774 32.1247 181.998 32.218C182.222 32.3113 182.45 32.358 182.684 32.358C183.001 32.358 183.258 32.2787 183.454 32.12C183.65 31.9613 183.832 31.6953 184 31.322L184.434 30.342L184.574 30.132L187.402 23.524H189.082L185.582 31.602C185.348 32.162 185.087 32.6053 184.798 32.932C184.518 33.2587 184.2 33.4873 183.846 33.618C183.5 33.7487 183.118 33.814 182.698 33.814ZM184.238 31.266L180.864 23.524H182.684L185.428 29.978L184.238 31.266ZM192.39 31.098C191.764 31.098 191.162 31.0187 190.584 30.86C190.014 30.692 189.562 30.4913 189.226 30.258L189.898 28.928C190.234 29.1427 190.635 29.32 191.102 29.46C191.568 29.6 192.035 29.67 192.502 29.67C193.052 29.67 193.449 29.5953 193.692 29.446C193.944 29.2967 194.07 29.096 194.07 28.844C194.07 28.6387 193.986 28.4847 193.818 28.382C193.65 28.27 193.43 28.186 193.16 28.13C192.889 28.074 192.586 28.0227 192.25 27.976C191.923 27.9293 191.592 27.8687 191.256 27.794C190.929 27.71 190.63 27.5933 190.36 27.444C190.089 27.2853 189.87 27.0753 189.702 26.814C189.534 26.5527 189.45 26.2073 189.45 25.778C189.45 25.302 189.585 24.8913 189.856 24.546C190.126 24.1913 190.504 23.9207 190.99 23.734C191.484 23.538 192.068 23.44 192.74 23.44C193.244 23.44 193.752 23.496 194.266 23.608C194.779 23.72 195.204 23.8787 195.54 24.084L194.868 25.414C194.513 25.1993 194.154 25.0547 193.79 24.98C193.435 24.896 193.08 24.854 192.726 24.854C192.194 24.854 191.797 24.9333 191.536 25.092C191.284 25.2507 191.158 25.4513 191.158 25.694C191.158 25.918 191.242 26.086 191.41 26.198C191.578 26.31 191.797 26.3987 192.068 26.464C192.338 26.5293 192.637 26.5853 192.964 26.632C193.3 26.6693 193.631 26.73 193.958 26.814C194.284 26.898 194.583 27.0147 194.854 27.164C195.134 27.304 195.358 27.5047 195.526 27.766C195.694 28.0273 195.778 28.368 195.778 28.788C195.778 29.2547 195.638 29.6607 195.358 30.006C195.087 30.3513 194.7 30.622 194.196 30.818C193.692 31.0047 193.09 31.098 192.39 31.098Z" fill="#112D35"/>
<path opacity="0.5" d="M162.05 54V47H162.87L166.01 52.29H165.57L168.67 47H169.49L169.5 54H168.54L168.53 48.51H168.76L166 53.15H165.54L162.76 48.51H163.01V54H162.05ZM173.821 54.06C173.254 54.06 172.754 53.9433 172.321 53.71C171.894 53.4767 171.561 53.1567 171.321 52.75C171.087 52.3433 170.971 51.8767 170.971 51.35C170.971 50.8233 171.084 50.3567 171.311 49.95C171.544 49.5433 171.861 49.2267 172.261 49C172.667 48.7667 173.124 48.65 173.631 48.65C174.144 48.65 174.597 48.7633 174.991 48.99C175.384 49.2167 175.691 49.5367 175.911 49.95C176.137 50.3567 176.251 50.8333 176.251 51.38C176.251 51.42 176.247 51.4667 176.241 51.52C176.241 51.5733 176.237 51.6233 176.231 51.67H171.721V50.98H175.731L175.341 51.22C175.347 50.88 175.277 50.5767 175.131 50.31C174.984 50.0433 174.781 49.8367 174.521 49.69C174.267 49.5367 173.971 49.46 173.631 49.46C173.297 49.46 173.001 49.5367 172.741 49.69C172.481 49.8367 172.277 50.0467 172.131 50.32C171.984 50.5867 171.911 50.8933 171.911 51.24V51.4C171.911 51.7533 171.991 52.07 172.151 52.35C172.317 52.6233 172.547 52.8367 172.841 52.99C173.134 53.1433 173.471 53.22 173.851 53.22C174.164 53.22 174.447 53.1667 174.701 53.06C174.961 52.9533 175.187 52.7933 175.381 52.58L175.911 53.2C175.671 53.48 175.371 53.6933 175.011 53.84C174.657 53.9867 174.261 54.06 173.821 54.06ZM180.727 54V52.88L180.677 52.67V50.76C180.677 50.3533 180.557 50.04 180.317 49.82C180.084 49.5933 179.731 49.48 179.257 49.48C178.944 49.48 178.637 49.5333 178.337 49.64C178.037 49.74 177.784 49.8767 177.577 50.05L177.177 49.33C177.451 49.11 177.777 48.9433 178.157 48.83C178.544 48.71 178.947 48.65 179.367 48.65C180.094 48.65 180.654 48.8267 181.047 49.18C181.441 49.5333 181.637 50.0733 181.637 50.8V54H180.727ZM178.987 54.06C178.594 54.06 178.247 53.9933 177.947 53.86C177.654 53.7267 177.427 53.5433 177.267 53.31C177.107 53.07 177.027 52.8 177.027 52.5C177.027 52.2133 177.094 51.9533 177.227 51.72C177.367 51.4867 177.591 51.3 177.897 51.16C178.211 51.02 178.631 50.95 179.157 50.95H180.837V51.64H179.197C178.717 51.64 178.394 51.72 178.227 51.88C178.061 52.04 177.977 52.2333 177.977 52.46C177.977 52.72 178.081 52.93 178.287 53.09C178.494 53.2433 178.781 53.32 179.147 53.32C179.507 53.32 179.821 53.24 180.087 53.08C180.361 52.92 180.557 52.6867 180.677 52.38L180.867 53.04C180.741 53.3533 180.517 53.6033 180.197 53.79C179.877 53.97 179.474 54.06 178.987 54.06ZM184.934 54.06C184.494 54.06 184.074 54 183.674 53.88C183.281 53.76 182.971 53.6133 182.744 53.44L183.144 52.68C183.371 52.8333 183.651 52.9633 183.984 53.07C184.317 53.1767 184.657 53.23 185.004 53.23C185.451 53.23 185.771 53.1667 185.964 53.04C186.164 52.9133 186.264 52.7367 186.264 52.51C186.264 52.3433 186.204 52.2133 186.084 52.12C185.964 52.0267 185.804 51.9567 185.604 51.91C185.411 51.8633 185.194 51.8233 184.954 51.79C184.714 51.75 184.474 51.7033 184.234 51.65C183.994 51.59 183.774 51.51 183.574 51.41C183.374 51.3033 183.214 51.16 183.094 50.98C182.974 50.7933 182.914 50.5467 182.914 50.24C182.914 49.92 183.004 49.64 183.184 49.4C183.364 49.16 183.617 48.9767 183.944 48.85C184.277 48.7167 184.671 48.65 185.124 48.65C185.471 48.65 185.821 48.6933 186.174 48.78C186.534 48.86 186.827 48.9767 187.054 49.13L186.644 49.89C186.404 49.73 186.154 49.62 185.894 49.56C185.634 49.5 185.374 49.47 185.114 49.47C184.694 49.47 184.381 49.54 184.174 49.68C183.967 49.8133 183.864 49.9867 183.864 50.2C183.864 50.38 183.924 50.52 184.044 50.62C184.171 50.7133 184.331 50.7867 184.524 50.84C184.724 50.8933 184.944 50.94 185.184 50.98C185.424 51.0133 185.664 51.06 185.904 51.12C186.144 51.1733 186.361 51.25 186.554 51.35C186.754 51.45 186.914 51.59 187.034 51.77C187.161 51.95 187.224 52.19 187.224 52.49C187.224 52.81 187.131 53.0867 186.944 53.32C186.757 53.5533 186.494 53.7367 186.154 53.87C185.814 53.9967 185.407 54.06 184.934 54.06ZM190.654 54.06C190.2 54.06 189.8 53.9767 189.454 53.81C189.114 53.6433 188.847 53.39 188.654 53.05C188.467 52.7033 188.374 52.27 188.374 51.75V48.7H189.334V51.64C189.334 52.16 189.457 52.55 189.704 52.81C189.957 53.07 190.31 53.2 190.764 53.2C191.097 53.2 191.387 53.1333 191.634 53C191.88 52.86 192.07 52.66 192.204 52.4C192.337 52.1333 192.404 51.8133 192.404 51.44V48.7H193.364V54H192.454V52.57L192.604 52.95C192.43 53.3033 192.17 53.5767 191.824 53.77C191.477 53.9633 191.087 54.06 190.654 54.06ZM195.191 54V48.7H196.111V50.14L196.021 49.78C196.168 49.4133 196.415 49.1333 196.761 48.94C197.108 48.7467 197.535 48.65 198.041 48.65V49.58C198.001 49.5733 197.961 49.57 197.921 49.57C197.888 49.57 197.855 49.57 197.821 49.57C197.308 49.57 196.901 49.7233 196.601 50.03C196.301 50.3367 196.151 50.78 196.151 51.36V54H195.191ZM201.536 54.06C200.969 54.06 200.469 53.9433 200.036 53.71C199.609 53.4767 199.276 53.1567 199.036 52.75C198.802 52.3433 198.686 51.8767 198.686 51.35C198.686 50.8233 198.799 50.3567 199.026 49.95C199.259 49.5433 199.576 49.2267 199.976 49C200.382 48.7667 200.839 48.65 201.346 48.65C201.859 48.65 202.312 48.7633 202.706 48.99C203.099 49.2167 203.406 49.5367 203.626 49.95C203.852 50.3567 203.966 50.8333 203.966 51.38C203.966 51.42 203.962 51.4667 203.956 51.52C203.956 51.5733 203.952 51.6233 203.946 51.67H199.436V50.98H203.446L203.056 51.22C203.062 50.88 202.992 50.5767 202.846 50.31C202.699 50.0433 202.496 49.8367 202.236 49.69C201.982 49.5367 201.686 49.46 201.346 49.46C201.012 49.46 200.716 49.5367 200.456 49.69C200.196 49.8367 199.992 50.0467 199.846 50.32C199.699 50.5867 199.626 50.8933 199.626 51.24V51.4C199.626 51.7533 199.706 52.07 199.866 52.35C200.032 52.6233 200.262 52.8367 200.556 52.99C200.849 53.1433 201.186 53.22 201.566 53.22C201.879 53.22 202.162 53.1667 202.416 53.06C202.676 52.9533 202.902 52.7933 203.096 52.58L203.626 53.2C203.386 53.48 203.086 53.6933 202.726 53.84C202.372 53.9867 201.976 54.06 201.536 54.06ZM206.819 54.06C206.379 54.06 205.959 54 205.559 53.88C205.165 53.76 204.855 53.6133 204.629 53.44L205.029 52.68C205.255 52.8333 205.535 52.9633 205.869 53.07C206.202 53.1767 206.542 53.23 206.889 53.23C207.335 53.23 207.655 53.1667 207.849 53.04C208.049 52.9133 208.149 52.7367 208.149 52.51C208.149 52.3433 208.089 52.2133 207.969 52.12C207.849 52.0267 207.689 51.9567 207.489 51.91C207.295 51.8633 207.079 51.8233 206.839 51.79C206.599 51.75 206.359 51.7033 206.119 51.65C205.879 51.59 205.659 51.51 205.459 51.41C205.259 51.3033 205.099 51.16 204.979 50.98C204.859 50.7933 204.799 50.5467 204.799 50.24C204.799 49.92 204.889 49.64 205.069 49.4C205.249 49.16 205.502 48.9767 205.829 48.85C206.162 48.7167 206.555 48.65 207.009 48.65C207.355 48.65 207.705 48.6933 208.059 48.78C208.419 48.86 208.712 48.9767 208.939 49.13L208.529 49.89C208.289 49.73 208.039 49.62 207.779 49.56C207.519 49.5 207.259 49.47 206.999 49.47C206.579 49.47 206.265 49.54 206.059 49.68C205.852 49.8133 205.749 49.9867 205.749 50.2C205.749 50.38 205.809 50.52 205.929 50.62C206.055 50.7133 206.215 50.7867 206.409 50.84C206.609 50.8933 206.829 50.94 207.069 50.98C207.309 51.0133 207.549 51.06 207.789 51.12C208.029 51.1733 208.245 51.25 208.439 51.35C208.639 51.45 208.799 51.59 208.919 51.77C209.045 51.95 209.109 52.19 209.109 52.49C209.109 52.81 209.015 53.0867 208.829 53.32C208.642 53.5533 208.379 53.7367 208.039 53.87C207.699 53.9967 207.292 54.06 206.819 54.06ZM213.134 54V47H214.134V53.13H217.924V54H213.134ZM224.091 47H225.091V54H224.091V47ZM220.071 54H219.071V47H220.071V54ZM224.181 50.88H219.971V50.01H224.181V50.88ZM163.49 64.69V60.31H164.33V64.69H163.49ZM161.67 62.9V62.11H166.15V62.9H161.67ZM171.466 62.02H175.066V62.87H171.466V62.02ZM171.556 65.13H175.636V66H170.556V59H175.496V59.87H171.556V65.13ZM178.567 66.06C178.127 66.06 177.707 66 177.307 65.88C176.913 65.76 176.603 65.6133 176.377 65.44L176.777 64.68C177.003 64.8333 177.283 64.9633 177.617 65.07C177.95 65.1767 178.29 65.23 178.637 65.23C179.083 65.23 179.403 65.1667 179.597 65.04C179.797 64.9133 179.897 64.7367 179.897 64.51C179.897 64.3433 179.837 64.2133 179.717 64.12C179.597 64.0267 179.437 63.9567 179.237 63.91C179.043 63.8633 178.827 63.8233 178.587 63.79C178.347 63.75 178.107 63.7033 177.867 63.65C177.627 63.59 177.407 63.51 177.207 63.41C177.007 63.3033 176.847 63.16 176.727 62.98C176.607 62.7933 176.547 62.5467 176.547 62.24C176.547 61.92 176.637 61.64 176.817 61.4C176.997 61.16 177.25 60.9767 177.577 60.85C177.91 60.7167 178.303 60.65 178.757 60.65C179.103 60.65 179.453 60.6933 179.807 60.78C180.167 60.86 180.46 60.9767 180.687 61.13L180.277 61.89C180.037 61.73 179.787 61.62 179.527 61.56C179.267 61.5 179.007 61.47 178.747 61.47C178.327 61.47 178.013 61.54 177.807 61.68C177.6 61.8133 177.497 61.9867 177.497 62.2C177.497 62.38 177.557 62.52 177.677 62.62C177.803 62.7133 177.963 62.7867 178.157 62.84C178.357 62.8933 178.577 62.94 178.817 62.98C179.057 63.0133 179.297 63.06 179.537 63.12C179.777 63.1733 179.993 63.25 180.187 63.35C180.387 63.45 180.547 63.59 180.667 63.77C180.793 63.95 180.857 64.19 180.857 64.49C180.857 64.81 180.763 65.0867 180.577 65.32C180.39 65.5533 180.127 65.7367 179.787 65.87C179.447 65.9967 179.04 66.06 178.567 66.06ZM183.876 66.06C183.343 66.06 182.93 65.9167 182.636 65.63C182.343 65.3433 182.196 64.9333 182.196 64.4V59.54H183.156V64.36C183.156 64.6467 183.226 64.8667 183.366 65.02C183.513 65.1733 183.72 65.25 183.986 65.25C184.286 65.25 184.536 65.1667 184.736 65L185.036 65.69C184.89 65.8167 184.713 65.91 184.506 65.97C184.306 66.03 184.096 66.06 183.876 66.06ZM181.296 61.49V60.7H184.676V61.49H181.296ZM186.197 66V60.7H187.117V62.14L187.027 61.78C187.174 61.4133 187.42 61.1333 187.767 60.94C188.114 60.7467 188.54 60.65 189.047 60.65V61.58C189.007 61.5733 188.967 61.57 188.927 61.57C188.894 61.57 188.86 61.57 188.827 61.57C188.314 61.57 187.907 61.7233 187.607 62.03C187.307 62.3367 187.157 62.78 187.157 63.36V66H186.197ZM192.451 66.06C191.918 66.06 191.445 65.9433 191.031 65.71C190.618 65.4767 190.291 65.1567 190.051 64.75C189.811 64.3367 189.691 63.87 189.691 63.35C189.691 62.8233 189.811 62.3567 190.051 61.95C190.291 61.5433 190.618 61.2267 191.031 61C191.445 60.7667 191.918 60.65 192.451 60.65C192.978 60.65 193.448 60.7667 193.861 61C194.281 61.2267 194.608 61.5433 194.841 61.95C195.081 62.35 195.201 62.8167 195.201 63.35C195.201 63.8767 195.081 64.3433 194.841 64.75C194.608 65.1567 194.281 65.4767 193.861 65.71C193.448 65.9433 192.978 66.06 192.451 66.06ZM192.451 65.22C192.791 65.22 193.095 65.1433 193.361 64.99C193.635 64.8367 193.848 64.62 194.001 64.34C194.155 64.0533 194.231 63.7233 194.231 63.35C194.231 62.97 194.155 62.6433 194.001 62.37C193.848 62.09 193.635 61.8733 193.361 61.72C193.095 61.5667 192.791 61.49 192.451 61.49C192.111 61.49 191.808 61.5667 191.541 61.72C191.275 61.8733 191.061 62.09 190.901 62.37C190.741 62.6433 190.661 62.97 190.661 63.35C190.661 63.7233 190.741 64.0533 190.901 64.34C191.061 64.62 191.275 64.8367 191.541 64.99C191.808 65.1433 192.111 65.22 192.451 65.22ZM198.849 68C198.362 68 197.889 67.93 197.429 67.79C196.976 67.6567 196.606 67.4633 196.319 67.21L196.779 66.47C197.026 66.6833 197.329 66.85 197.689 66.97C198.049 67.0967 198.426 67.16 198.819 67.16C199.446 67.16 199.906 67.0133 200.199 66.72C200.492 66.4267 200.639 65.98 200.639 65.38V64.26L200.739 63.21L200.689 62.15V60.7H201.599V65.28C201.599 66.2133 201.366 66.9 200.899 67.34C200.432 67.78 199.749 68 198.849 68ZM198.729 65.78C198.216 65.78 197.756 65.6733 197.349 65.46C196.949 65.24 196.629 64.9367 196.389 64.55C196.156 64.1633 196.039 63.7167 196.039 63.21C196.039 62.6967 196.156 62.25 196.389 61.87C196.629 61.4833 196.949 61.1833 197.349 60.97C197.756 60.7567 198.216 60.65 198.729 60.65C199.182 60.65 199.596 60.7433 199.969 60.93C200.342 61.11 200.639 61.39 200.859 61.77C201.086 62.15 201.199 62.63 201.199 63.21C201.199 63.7833 201.086 64.26 200.859 64.64C200.639 65.02 200.342 65.3067 199.969 65.5C199.596 65.6867 199.182 65.78 198.729 65.78ZM198.839 64.94C199.192 64.94 199.506 64.8667 199.779 64.72C200.052 64.5733 200.266 64.37 200.419 64.11C200.579 63.85 200.659 63.55 200.659 63.21C200.659 62.87 200.579 62.57 200.419 62.31C200.266 62.05 200.052 61.85 199.779 61.71C199.506 61.5633 199.192 61.49 198.839 61.49C198.486 61.49 198.169 61.5633 197.889 61.71C197.616 61.85 197.399 62.05 197.239 62.31C197.086 62.57 197.009 62.87 197.009 63.21C197.009 63.55 197.086 63.85 197.239 64.11C197.399 64.37 197.616 64.5733 197.889 64.72C198.169 64.8667 198.486 64.94 198.839 64.94ZM205.793 66.06C205.227 66.06 204.727 65.9433 204.293 65.71C203.867 65.4767 203.533 65.1567 203.293 64.75C203.06 64.3433 202.943 63.8767 202.943 63.35C202.943 62.8233 203.057 62.3567 203.283 61.95C203.517 61.5433 203.833 61.2267 204.233 61C204.64 60.7667 205.097 60.65 205.603 60.65C206.117 60.65 206.57 60.7633 206.963 60.99C207.357 61.2167 207.663 61.5367 207.883 61.95C208.11 62.3567 208.223 62.8333 208.223 63.38C208.223 63.42 208.22 63.4667 208.213 63.52C208.213 63.5733 208.21 63.6233 208.203 63.67H203.693V62.98H207.703L207.313 63.22C207.32 62.88 207.25 62.5767 207.103 62.31C206.957 62.0433 206.753 61.8367 206.493 61.69C206.24 61.5367 205.943 61.46 205.603 61.46C205.27 61.46 204.973 61.5367 204.713 61.69C204.453 61.8367 204.25 62.0467 204.103 62.32C203.957 62.5867 203.883 62.8933 203.883 63.24V63.4C203.883 63.7533 203.963 64.07 204.123 64.35C204.29 64.6233 204.52 64.8367 204.813 64.99C205.107 65.1433 205.443 65.22 205.823 65.22C206.137 65.22 206.42 65.1667 206.673 65.06C206.933 64.9533 207.16 64.7933 207.353 64.58L207.883 65.2C207.643 65.48 207.343 65.6933 206.983 65.84C206.63 65.9867 206.233 66.06 205.793 66.06ZM212.386 60.65C212.82 60.65 213.2 60.7333 213.526 60.9C213.86 61.0667 214.12 61.32 214.306 61.66C214.493 62 214.586 62.43 214.586 62.95V66H213.626V63.06C213.626 62.5467 213.5 62.16 213.246 61.9C213 61.64 212.65 61.51 212.196 61.51C211.856 61.51 211.56 61.5767 211.306 61.71C211.053 61.8433 210.856 62.04 210.716 62.3C210.583 62.56 210.516 62.8833 210.516 63.27V66H209.556V60.7H210.476V62.13L210.326 61.75C210.5 61.4033 210.766 61.1333 211.126 60.94C211.486 60.7467 211.906 60.65 212.386 60.65Z" fill="#112D35"/>
<path d="M336.852 14.14C336.105 14.14 335.41 14.0187 334.766 13.776C334.131 13.524 333.576 13.174 333.1 12.726C332.633 12.2687 332.269 11.732 332.008 11.116C331.747 10.5 331.616 9.828 331.616 9.1C331.616 8.372 331.747 7.7 332.008 7.084C332.269 6.468 332.638 5.936 333.114 5.488C333.59 5.03067 334.145 4.68067 334.78 4.438C335.415 4.186 336.11 4.06 336.866 4.06C337.669 4.06 338.401 4.2 339.064 4.48C339.727 4.75067 340.287 5.15667 340.744 5.698L339.568 6.804C339.213 6.42133 338.817 6.13667 338.378 5.95C337.939 5.754 337.463 5.656 336.95 5.656C336.437 5.656 335.965 5.74 335.536 5.908C335.116 6.076 334.747 6.314 334.43 6.622C334.122 6.93 333.879 7.294 333.702 7.714C333.534 8.134 333.45 8.596 333.45 9.1C333.45 9.604 333.534 10.066 333.702 10.486C333.879 10.906 334.122 11.27 334.43 11.578C334.747 11.886 335.116 12.124 335.536 12.292C335.965 12.46 336.437 12.544 336.95 12.544C337.463 12.544 337.939 12.4507 338.378 12.264C338.817 12.068 339.213 11.774 339.568 11.382L340.744 12.502C340.287 13.034 339.727 13.44 339.064 13.72C338.401 14 337.664 14.14 336.852 14.14ZM345.393 14.098C344.627 14.098 343.946 13.9347 343.349 13.608C342.751 13.272 342.28 12.8147 341.935 12.236C341.589 11.6573 341.417 10.9993 341.417 10.262C341.417 9.51533 341.589 8.85733 341.935 8.288C342.28 7.70933 342.751 7.25667 343.349 6.93C343.946 6.60333 344.627 6.44 345.393 6.44C346.167 6.44 346.853 6.60333 347.451 6.93C348.057 7.25667 348.529 7.70467 348.865 8.274C349.21 8.84333 349.383 9.506 349.383 10.262C349.383 10.9993 349.21 11.6573 348.865 12.236C348.529 12.8147 348.057 13.272 347.451 13.608C346.853 13.9347 346.167 14.098 345.393 14.098ZM345.393 12.6C345.822 12.6 346.205 12.5067 346.541 12.32C346.877 12.1333 347.138 11.8627 347.325 11.508C347.521 11.1533 347.619 10.738 347.619 10.262C347.619 9.77667 347.521 9.36133 347.325 9.016C347.138 8.66133 346.877 8.39067 346.541 8.204C346.205 8.01733 345.827 7.924 345.407 7.924C344.977 7.924 344.595 8.01733 344.259 8.204C343.932 8.39067 343.671 8.66133 343.475 9.016C343.279 9.36133 343.181 9.77667 343.181 10.262C343.181 10.738 343.279 11.1533 343.475 11.508C343.671 11.8627 343.932 12.1333 344.259 12.32C344.595 12.5067 344.973 12.6 345.393 12.6ZM355.298 6.44C355.896 6.44 356.428 6.55667 356.894 6.79C357.37 7.02333 357.744 7.38267 358.014 7.868C358.285 8.344 358.42 8.96 358.42 9.716V14H356.67V9.94C356.67 9.27733 356.512 8.78267 356.194 8.456C355.886 8.12933 355.452 7.966 354.892 7.966C354.482 7.966 354.118 8.05 353.8 8.218C353.483 8.386 353.236 8.638 353.058 8.974C352.89 9.30067 352.806 9.716 352.806 10.22V14H351.056V6.524H352.722V8.54L352.428 7.924C352.69 7.448 353.068 7.084 353.562 6.832C354.066 6.57067 354.645 6.44 355.298 6.44ZM360.878 14V6.104C360.878 5.32 361.107 4.69467 361.564 4.228C362.031 3.752 362.694 3.514 363.552 3.514C363.86 3.514 364.15 3.54667 364.42 3.612C364.7 3.67733 364.934 3.78 365.12 3.92L364.644 5.236C364.514 5.13333 364.364 5.05867 364.196 5.012C364.028 4.956 363.856 4.928 363.678 4.928C363.314 4.928 363.039 5.03067 362.852 5.236C362.666 5.432 362.572 5.73067 362.572 6.132V6.972L362.628 7.756V14H360.878ZM359.646 7.98V6.58L364.63 6.58V7.98L359.646 7.98ZM365.849 14V6.524H367.599V14H365.849ZM366.731 5.292C366.405 5.292 366.134 5.18933 365.919 4.984C365.714 4.77867 365.611 4.53133 365.611 4.242C365.611 3.94333 365.714 3.696 365.919 3.5C366.134 3.29467 366.405 3.192 366.731 3.192C367.058 3.192 367.324 3.29 367.529 3.486C367.744 3.67267 367.851 3.91067 367.851 4.2C367.851 4.508 367.749 4.76933 367.543 4.984C367.338 5.18933 367.067 5.292 366.731 5.292ZM369.896 14V6.524H371.562V8.582L371.366 7.98C371.59 7.476 371.94 7.09333 372.416 6.832C372.901 6.57067 373.503 6.44 374.222 6.44V8.106C374.147 8.08733 374.077 8.078 374.012 8.078C373.947 8.06867 373.881 8.064 373.816 8.064C373.153 8.064 372.626 8.26 372.234 8.652C371.842 9.03467 371.646 9.60867 371.646 10.374V14L369.896 14ZM385.143 6.44C385.74 6.44 386.267 6.55667 386.725 6.79C387.191 7.02333 387.555 7.38267 387.817 7.868C388.078 8.344 388.209 8.96 388.209 9.716V14H386.459V9.94C386.459 9.27733 386.314 8.78267 386.025 8.456C385.735 8.12933 385.32 7.966 384.779 7.966C384.396 7.966 384.055 8.05 383.757 8.218C383.467 8.386 383.239 8.63333 383.071 8.96C382.912 9.28667 382.833 9.702 382.833 10.206V14H381.083V9.94C381.083 9.27733 380.938 8.78267 380.649 8.456C380.359 8.12933 379.944 7.966 379.403 7.966C379.02 7.966 378.679 8.05 378.381 8.218C378.091 8.386 377.863 8.63333 377.695 8.96C377.536 9.28667 377.457 9.702 377.457 10.206V14H375.707V6.524L377.373 6.524V8.512L377.079 7.924C377.331 7.43867 377.695 7.07 378.171 6.818C378.656 6.566 379.207 6.44 379.823 6.44C380.523 6.44 381.129 6.61267 381.643 6.958C382.165 7.30333 382.511 7.826 382.679 8.526L381.993 8.288C382.235 7.728 382.637 7.28 383.197 6.944C383.757 6.608 384.405 6.44 385.143 6.44ZM336.908 31.14C336.143 31.14 335.438 31.014 334.794 30.762C334.15 30.51 333.59 30.16 333.114 29.712C332.638 29.2547 332.269 28.7227 332.008 28.116C331.747 27.5 331.616 26.828 331.616 26.1C331.616 25.372 331.747 24.7047 332.008 24.098C332.269 23.482 332.638 22.95 333.114 22.502C333.59 22.0447 334.15 21.69 334.794 21.438C335.438 21.186 336.138 21.06 336.894 21.06C337.659 21.06 338.359 21.186 338.994 21.438C339.638 21.69 340.198 22.0447 340.674 22.502C341.15 22.95 341.519 23.482 341.78 24.098C342.041 24.7047 342.172 25.372 342.172 26.1C342.172 26.828 342.041 27.5 341.78 28.116C341.519 28.732 341.15 29.264 340.674 29.712C340.198 30.16 339.638 30.51 338.994 30.762C338.359 31.014 337.664 31.14 336.908 31.14ZM336.894 29.544C337.389 29.544 337.846 29.46 338.266 29.292C338.686 29.124 339.05 28.886 339.358 28.578C339.666 28.2607 339.904 27.8967 340.072 27.486C340.249 27.066 340.338 26.604 340.338 26.1C340.338 25.596 340.249 25.1387 340.072 24.728C339.904 24.308 339.666 23.944 339.358 23.636C339.05 23.3187 338.686 23.076 338.266 22.908C337.846 22.74 337.389 22.656 336.894 22.656C336.399 22.656 335.942 22.74 335.522 22.908C335.111 23.076 334.747 23.3187 334.43 23.636C334.122 23.944 333.879 24.308 333.702 24.728C333.534 25.1387 333.45 25.596 333.45 26.1C333.45 26.5947 333.534 27.052 333.702 27.472C333.879 27.892 334.122 28.2607 334.43 28.578C334.738 28.886 335.102 29.124 335.522 29.292C335.942 29.46 336.399 29.544 336.894 29.544ZM345.921 31L342.715 23.524H344.535L347.293 30.118H346.397L349.253 23.524H350.933L347.727 31H345.921ZM355.191 31.098C354.556 31.098 353.996 30.9813 353.511 30.748C353.026 30.5053 352.648 30.1413 352.377 29.656C352.106 29.1613 351.971 28.5407 351.971 27.794V23.524L353.721 23.524V27.556C353.721 28.228 353.87 28.732 354.169 29.068C354.477 29.3947 354.911 29.558 355.471 29.558C355.882 29.558 356.236 29.474 356.535 29.306C356.843 29.138 357.081 28.886 357.249 28.55C357.426 28.214 357.515 27.7987 357.515 27.304V23.524H359.265V31H357.599V28.984L357.893 29.6C357.641 30.0853 357.272 30.4587 356.787 30.72C356.302 30.972 355.77 31.098 355.191 31.098ZM361.556 31V20.612H363.306V31H361.556ZM370.209 31V29.488L370.111 29.166V26.52C370.111 26.0067 369.957 25.61 369.649 25.33C369.341 25.0407 368.874 24.896 368.249 24.896C367.829 24.896 367.414 24.9613 367.003 25.092C366.602 25.2227 366.261 25.4047 365.981 25.638L365.295 24.364C365.696 24.056 366.172 23.8273 366.723 23.678C367.283 23.5193 367.862 23.44 368.459 23.44C369.542 23.44 370.377 23.7013 370.965 24.224C371.562 24.7373 371.861 25.5353 371.861 26.618V31H370.209ZM367.857 31.098C367.297 31.098 366.807 31.0047 366.387 30.818C365.967 30.622 365.64 30.356 365.407 30.02C365.183 29.6747 365.071 29.2873 365.071 28.858C365.071 28.438 365.169 28.06 365.365 27.724C365.57 27.388 365.902 27.122 366.359 26.926C366.816 26.73 367.423 26.632 368.179 26.632H370.349V27.794H368.305C367.708 27.794 367.306 27.892 367.101 28.088C366.896 28.2747 366.793 28.508 366.793 28.788C366.793 29.1053 366.919 29.3573 367.171 29.544C367.423 29.7307 367.773 29.824 368.221 29.824C368.65 29.824 369.033 29.726 369.369 29.53C369.714 29.334 369.962 29.0447 370.111 28.662L370.405 29.712C370.237 30.1507 369.934 30.4913 369.495 30.734C369.066 30.9767 368.52 31.098 367.857 31.098ZM376.921 31.098C376.1 31.098 375.465 30.888 375.017 30.468C374.569 30.0387 374.345 29.4087 374.345 28.578V21.872H376.095V28.536C376.095 28.8907 376.184 29.166 376.361 29.362C376.548 29.558 376.804 29.656 377.131 29.656C377.523 29.656 377.85 29.5533 378.111 29.348L378.601 30.594C378.396 30.762 378.144 30.888 377.845 30.972C377.546 31.056 377.238 31.098 376.921 31.098ZM373.113 24.98V23.58H378.097V24.98H373.113ZM380.041 31V23.524L381.791 23.524V31L380.041 31ZM380.923 22.292C380.596 22.292 380.325 22.1893 380.111 21.984C379.905 21.7787 379.803 21.5313 379.803 21.242C379.803 20.9433 379.905 20.696 380.111 20.5C380.325 20.2947 380.596 20.192 380.923 20.192C381.249 20.192 381.515 20.29 381.721 20.486C381.935 20.6727 382.043 20.9107 382.043 21.2C382.043 21.508 381.94 21.7693 381.735 21.984C381.529 22.1893 381.259 22.292 380.923 22.292ZM387.447 31.098C386.682 31.098 386.001 30.9347 385.403 30.608C384.806 30.272 384.335 29.8147 383.989 29.236C383.644 28.6573 383.471 27.9993 383.471 27.262C383.471 26.5153 383.644 25.8573 383.989 25.288C384.335 24.7093 384.806 24.2567 385.403 23.93C386.001 23.6033 386.682 23.44 387.447 23.44C388.222 23.44 388.908 23.6033 389.505 23.93C390.112 24.2567 390.583 24.7047 390.919 25.274C391.265 25.8433 391.437 26.506 391.437 27.262C391.437 27.9993 391.265 28.6573 390.919 29.236C390.583 29.8147 390.112 30.272 389.505 30.608C388.908 30.9347 388.222 31.098 387.447 31.098ZM387.447 29.6C387.877 29.6 388.259 29.5067 388.595 29.32C388.931 29.1333 389.193 28.8627 389.379 28.508C389.575 28.1533 389.673 27.738 389.673 27.262C389.673 26.7767 389.575 26.3613 389.379 26.016C389.193 25.6613 388.931 25.3907 388.595 25.204C388.259 25.0173 387.881 24.924 387.461 24.924C387.032 24.924 386.649 25.0173 386.313 25.204C385.987 25.3907 385.725 25.6613 385.529 26.016C385.333 26.3613 385.235 26.7767 385.235 27.262C385.235 27.738 385.333 28.1533 385.529 28.508C385.725 28.8627 385.987 29.1333 386.313 29.32C386.649 29.5067 387.027 29.6 387.447 29.6ZM397.353 23.44C397.95 23.44 398.482 23.5567 398.949 23.79C399.425 24.0233 399.798 24.3827 400.069 24.868C400.34 25.344 400.475 25.96 400.475 26.716V31H398.725V26.94C398.725 26.2773 398.566 25.7827 398.249 25.456C397.941 25.1293 397.507 24.966 396.947 24.966C396.536 24.966 396.172 25.05 395.855 25.218C395.538 25.386 395.29 25.638 395.113 25.974C394.945 26.3007 394.861 26.716 394.861 27.22V31H393.111V23.524H394.777V25.54L394.483 24.924C394.744 24.448 395.122 24.084 395.617 23.832C396.121 23.5707 396.7 23.44 397.353 23.44Z" fill="#112D35"/>
<path opacity="0.4" d="M321.034 375V367.3H324.4C325.236 367.3 325.969 367.461 326.6 367.784C327.231 368.107 327.722 368.554 328.074 369.126C328.426 369.698 328.602 370.373 328.602 371.15C328.602 371.92 328.426 372.595 328.074 373.174C327.722 373.746 327.231 374.193 326.6 374.516C325.969 374.839 325.236 375 324.4 375H321.034ZM322.464 373.79H324.334C324.913 373.79 325.412 373.68 325.83 373.46C326.255 373.24 326.582 372.932 326.809 372.536C327.044 372.14 327.161 371.678 327.161 371.15C327.161 370.615 327.044 370.153 326.809 369.764C326.582 369.368 326.255 369.06 325.83 368.84C325.412 368.62 324.913 368.51 324.334 368.51H322.464V373.79ZM333.609 375V373.812L333.532 373.559V371.48C333.532 371.077 333.411 370.765 333.169 370.545C332.927 370.318 332.56 370.204 332.069 370.204C331.739 370.204 331.413 370.255 331.09 370.358C330.775 370.461 330.507 370.604 330.287 370.787L329.748 369.786C330.063 369.544 330.437 369.364 330.87 369.247C331.31 369.122 331.765 369.06 332.234 369.06C333.085 369.06 333.741 369.265 334.203 369.676C334.672 370.079 334.907 370.706 334.907 371.557V375H333.609ZM331.761 375.077C331.321 375.077 330.936 375.004 330.606 374.857C330.276 374.703 330.019 374.494 329.836 374.23C329.66 373.959 329.572 373.654 329.572 373.317C329.572 372.987 329.649 372.69 329.803 372.426C329.964 372.162 330.225 371.953 330.584 371.799C330.943 371.645 331.42 371.568 332.014 371.568H333.719V372.481H332.113C331.644 372.481 331.328 372.558 331.167 372.712C331.006 372.859 330.925 373.042 330.925 373.262C330.925 373.511 331.024 373.709 331.222 373.856C331.42 374.003 331.695 374.076 332.047 374.076C332.384 374.076 332.685 373.999 332.949 373.845C333.22 373.691 333.415 373.464 333.532 373.163L333.763 373.988C333.631 374.333 333.393 374.6 333.048 374.791C332.711 374.982 332.282 375.077 331.761 375.077ZM337.048 377.211C336.762 377.211 336.476 377.163 336.19 377.068C335.904 376.973 335.666 376.841 335.475 376.672L336.025 375.66C336.164 375.785 336.322 375.884 336.498 375.957C336.674 376.03 336.854 376.067 337.037 376.067C337.286 376.067 337.488 376.005 337.642 375.88C337.796 375.755 337.939 375.546 338.071 375.253L338.412 374.483L338.522 374.318L340.744 369.126H342.064L339.314 375.473C339.131 375.913 338.925 376.261 338.698 376.518C338.478 376.775 338.229 376.954 337.95 377.057C337.679 377.16 337.378 377.211 337.048 377.211ZM338.258 375.209L335.607 369.126H337.037L339.193 374.197L338.258 375.209ZM344.663 375.077C344.172 375.077 343.699 375.015 343.244 374.89C342.797 374.758 342.441 374.6 342.177 374.417L342.705 373.372C342.969 373.541 343.285 373.68 343.651 373.79C344.018 373.9 344.385 373.955 344.751 373.955C345.184 373.955 345.496 373.896 345.686 373.779C345.884 373.662 345.983 373.504 345.983 373.306C345.983 373.145 345.917 373.024 345.785 372.943C345.653 372.855 345.481 372.789 345.268 372.745C345.056 372.701 344.817 372.661 344.553 372.624C344.297 372.587 344.036 372.54 343.772 372.481C343.516 372.415 343.281 372.323 343.068 372.206C342.856 372.081 342.683 371.916 342.551 371.711C342.419 371.506 342.353 371.234 342.353 370.897C342.353 370.523 342.46 370.2 342.672 369.929C342.885 369.65 343.182 369.438 343.563 369.291C343.952 369.137 344.41 369.06 344.938 369.06C345.334 369.06 345.734 369.104 346.137 369.192C346.541 369.28 346.874 369.405 347.138 369.566L346.61 370.611C346.332 370.442 346.049 370.329 345.763 370.27C345.485 370.204 345.206 370.171 344.927 370.171C344.509 370.171 344.198 370.233 343.992 370.358C343.794 370.483 343.695 370.64 343.695 370.831C343.695 371.007 343.761 371.139 343.893 371.227C344.025 371.315 344.198 371.385 344.41 371.436C344.623 371.487 344.858 371.531 345.114 371.568C345.378 371.597 345.639 371.645 345.895 371.711C346.152 371.777 346.387 371.869 346.599 371.986C346.819 372.096 346.995 372.254 347.127 372.459C347.259 372.664 347.325 372.932 347.325 373.262C347.325 373.629 347.215 373.948 346.995 374.219C346.783 374.49 346.478 374.703 346.082 374.857C345.686 375.004 345.213 375.077 344.663 375.077ZM353.551 375.11C353.009 375.11 352.477 375.033 351.956 374.879C351.443 374.718 351.01 374.498 350.658 374.219L351.274 373.108C351.553 373.335 351.89 373.519 352.286 373.658C352.682 373.797 353.097 373.867 353.529 373.867C354.043 373.867 354.442 373.764 354.728 373.559C355.014 373.346 355.157 373.06 355.157 372.701C355.157 372.349 355.025 372.07 354.761 371.865C354.497 371.66 354.072 371.557 353.485 371.557H352.781V370.578L354.981 367.96L355.168 368.499H351.032V367.3H356.279V368.257L354.079 370.875L353.331 370.435H353.76C354.706 370.435 355.414 370.648 355.883 371.073C356.36 371.491 356.598 372.03 356.598 372.69C356.598 373.123 356.488 373.522 356.268 373.889C356.048 374.256 355.711 374.553 355.256 374.78C354.809 375 354.241 375.11 353.551 375.11ZM360.695 372.514V371.37H363.72V372.514H360.695ZM371.179 375.11C370.483 375.11 369.885 374.963 369.386 374.67C368.888 374.369 368.506 373.937 368.242 373.372C367.978 372.807 367.846 372.111 367.846 371.282C367.846 370.402 368.004 369.658 368.319 369.049C368.642 368.44 369.086 367.978 369.65 367.663C370.222 367.348 370.879 367.19 371.619 367.19C372.008 367.19 372.378 367.23 372.73 367.311C373.09 367.392 373.394 367.516 373.643 367.685L373.115 368.763C372.903 368.624 372.672 368.528 372.422 368.477C372.18 368.418 371.924 368.389 371.652 368.389C370.926 368.389 370.351 368.613 369.925 369.06C369.5 369.507 369.287 370.167 369.287 371.04C369.287 371.179 369.291 371.344 369.298 371.535C369.306 371.718 369.331 371.905 369.375 372.096L368.935 371.612C369.067 371.311 369.247 371.062 369.474 370.864C369.709 370.659 369.984 370.505 370.299 370.402C370.622 370.299 370.97 370.248 371.344 370.248C371.85 370.248 372.301 370.347 372.697 370.545C373.093 370.736 373.409 371.011 373.643 371.37C373.878 371.722 373.995 372.136 373.995 372.613C373.995 373.119 373.871 373.559 373.621 373.933C373.372 374.307 373.035 374.597 372.609 374.802C372.184 375.007 371.707 375.11 371.179 375.11ZM371.102 373.988C371.396 373.988 371.656 373.937 371.883 373.834C372.111 373.724 372.287 373.57 372.411 373.372C372.543 373.174 372.609 372.943 372.609 372.679C372.609 372.276 372.47 371.957 372.191 371.722C371.913 371.487 371.539 371.37 371.069 371.37C370.761 371.37 370.49 371.429 370.255 371.546C370.028 371.656 369.845 371.81 369.705 372.008C369.573 372.206 369.507 372.433 369.507 372.69C369.507 372.925 369.57 373.141 369.694 373.339C369.819 373.537 369.999 373.695 370.233 373.812C370.475 373.929 370.765 373.988 371.102 373.988ZM381.82 375V373.812L381.743 373.559V371.48C381.743 371.077 381.622 370.765 381.38 370.545C381.138 370.318 380.771 370.204 380.28 370.204C379.95 370.204 379.623 370.255 379.301 370.358C378.985 370.461 378.718 370.604 378.498 370.787L377.959 369.786C378.274 369.544 378.648 369.364 379.081 369.247C379.521 369.122 379.975 369.06 380.445 369.06C381.295 369.06 381.952 369.265 382.414 369.676C382.883 370.079 383.118 370.706 383.118 371.557V375H381.82ZM379.972 375.077C379.532 375.077 379.147 375.004 378.817 374.857C378.487 374.703 378.23 374.494 378.047 374.23C377.871 373.959 377.783 373.654 377.783 373.317C377.783 372.987 377.86 372.69 378.014 372.426C378.175 372.162 378.435 371.953 378.795 371.799C379.154 371.645 379.631 371.568 380.225 371.568H381.93V372.481H380.324C379.854 372.481 379.539 372.558 379.378 372.712C379.216 372.859 379.136 373.042 379.136 373.262C379.136 373.511 379.235 373.709 379.433 373.856C379.631 374.003 379.906 374.076 380.258 374.076C380.595 374.076 380.896 373.999 381.16 373.845C381.431 373.691 381.625 373.464 381.743 373.163L381.974 373.988C381.842 374.333 381.603 374.6 381.259 374.791C380.921 374.982 380.492 375.077 379.972 375.077ZM385.069 375V368.796C385.069 368.18 385.249 367.689 385.608 367.322C385.975 366.948 386.496 366.761 387.17 366.761C387.412 366.761 387.64 366.787 387.852 366.838C388.072 366.889 388.256 366.97 388.402 367.08L388.028 368.114C387.926 368.033 387.808 367.975 387.676 367.938C387.544 367.894 387.409 367.872 387.269 367.872C386.983 367.872 386.767 367.953 386.62 368.114C386.474 368.268 386.4 368.503 386.4 368.818V369.478L386.444 370.094V375H385.069ZM384.101 370.27V369.17H388.017V370.27H384.101ZM391.154 375.077C390.509 375.077 390.01 374.912 389.658 374.582C389.306 374.245 389.13 373.75 389.13 373.097V367.828H390.505V373.064C390.505 373.343 390.575 373.559 390.714 373.713C390.861 373.867 391.062 373.944 391.319 373.944C391.627 373.944 391.884 373.863 392.089 373.702L392.474 374.681C392.313 374.813 392.115 374.912 391.88 374.978C391.645 375.044 391.403 375.077 391.154 375.077ZM388.162 370.27V369.17H392.078V370.27H388.162ZM396.173 375.077C395.52 375.077 394.948 374.949 394.457 374.692C393.973 374.428 393.595 374.069 393.324 373.614C393.06 373.159 392.928 372.642 392.928 372.063C392.928 371.476 393.056 370.959 393.313 370.512C393.577 370.057 393.936 369.702 394.391 369.445C394.853 369.188 395.377 369.06 395.964 369.06C396.536 369.06 397.045 369.185 397.493 369.434C397.94 369.683 398.292 370.035 398.549 370.49C398.805 370.945 398.934 371.48 398.934 372.096C398.934 372.155 398.93 372.221 398.923 372.294C398.923 372.367 398.919 372.437 398.912 372.503H394.017V371.59H398.186L397.647 371.876C397.654 371.539 397.584 371.242 397.438 370.985C397.291 370.728 397.089 370.527 396.833 370.38C396.583 370.233 396.294 370.16 395.964 370.16C395.626 370.16 395.329 370.233 395.073 370.38C394.823 370.527 394.625 370.732 394.479 370.996C394.339 371.253 394.27 371.557 394.27 371.909V372.129C394.27 372.481 394.35 372.793 394.512 373.064C394.673 373.335 394.9 373.544 395.194 373.691C395.487 373.838 395.824 373.911 396.206 373.911C396.536 373.911 396.833 373.86 397.097 373.757C397.361 373.654 397.595 373.493 397.801 373.273L398.538 374.12C398.274 374.428 397.94 374.666 397.537 374.835C397.141 374.996 396.686 375.077 396.173 375.077ZM400.255 375V369.126H401.564V370.743L401.41 370.27C401.586 369.874 401.861 369.573 402.235 369.368C402.616 369.163 403.089 369.06 403.654 369.06V370.369C403.595 370.354 403.54 370.347 403.489 370.347C403.437 370.34 403.386 370.336 403.335 370.336C402.814 370.336 402.4 370.49 402.092 370.798C401.784 371.099 401.63 371.55 401.63 372.151V375H400.255ZM408.046 375V367.3H411.214C411.896 367.3 412.479 367.41 412.963 367.63C413.454 367.85 413.832 368.165 414.096 368.576C414.36 368.987 414.492 369.474 414.492 370.039C414.492 370.604 414.36 371.091 414.096 371.502C413.832 371.913 413.454 372.228 412.963 372.448C412.479 372.668 411.896 372.778 411.214 372.778H408.838L409.476 372.107V375H408.046ZM409.476 372.261L408.838 371.568H411.148C411.778 371.568 412.251 371.436 412.567 371.172C412.889 370.901 413.051 370.523 413.051 370.039C413.051 369.548 412.889 369.17 412.567 368.906C412.251 368.642 411.778 368.51 411.148 368.51H408.838L409.476 367.806V372.261ZM418.527 375.077C417.875 375.077 417.303 374.949 416.811 374.692C416.327 374.428 415.95 374.069 415.678 373.614C415.414 373.159 415.282 372.642 415.282 372.063C415.282 371.476 415.411 370.959 415.667 370.512C415.931 370.057 416.291 369.702 416.745 369.445C417.207 369.188 417.732 369.06 418.318 369.06C418.89 369.06 419.4 369.185 419.847 369.434C420.295 369.683 420.647 370.035 420.903 370.49C421.16 370.945 421.288 371.48 421.288 372.096C421.288 372.155 421.285 372.221 421.277 372.294C421.277 372.367 421.274 372.437 421.266 372.503H416.371V371.59H420.54L420.001 371.876C420.009 371.539 419.939 371.242 419.792 370.985C419.646 370.728 419.444 370.527 419.187 370.38C418.938 370.233 418.648 370.16 418.318 370.16C417.981 370.16 417.684 370.233 417.427 370.38C417.178 370.527 416.98 370.732 416.833 370.996C416.694 371.253 416.624 371.557 416.624 371.909V372.129C416.624 372.481 416.705 372.793 416.866 373.064C417.028 373.335 417.255 373.544 417.548 373.691C417.842 373.838 418.179 373.911 418.56 373.911C418.89 373.911 419.187 373.86 419.451 373.757C419.715 373.654 419.95 373.493 420.155 373.273L420.892 374.12C420.628 374.428 420.295 374.666 419.891 374.835C419.495 374.996 419.041 375.077 418.527 375.077ZM426.067 375V373.812L425.99 373.559V371.48C425.99 371.077 425.869 370.765 425.627 370.545C425.385 370.318 425.018 370.204 424.527 370.204C424.197 370.204 423.871 370.255 423.548 370.358C423.233 370.461 422.965 370.604 422.745 370.787L422.206 369.786C422.521 369.544 422.895 369.364 423.328 369.247C423.768 369.122 424.223 369.06 424.692 369.06C425.543 369.06 426.199 369.265 426.661 369.676C427.13 370.079 427.365 370.706 427.365 371.557V375H426.067ZM424.219 375.077C423.779 375.077 423.394 375.004 423.064 374.857C422.734 374.703 422.477 374.494 422.294 374.23C422.118 373.959 422.03 373.654 422.03 373.317C422.03 372.987 422.107 372.69 422.261 372.426C422.422 372.162 422.683 371.953 423.042 371.799C423.401 371.645 423.878 371.568 424.472 371.568H426.177V372.481H424.571C424.102 372.481 423.786 372.558 423.625 372.712C423.464 372.859 423.383 373.042 423.383 373.262C423.383 373.511 423.482 373.709 423.68 373.856C423.878 374.003 424.153 374.076 424.505 374.076C424.842 374.076 425.143 373.999 425.407 373.845C425.678 373.691 425.873 373.464 425.99 373.163L426.221 373.988C426.089 374.333 425.851 374.6 425.506 374.791C425.169 374.982 424.74 375.077 424.219 375.077ZM430.252 373.691L430.285 371.964L433.354 369.126H435.004L432.397 371.744L431.671 372.349L430.252 373.691ZM429.13 375V366.838H430.505V375H429.13ZM433.563 375L431.418 372.349L432.287 371.249L435.235 375H433.563Z" fill="#112D35"/>
<circle cx="5" cy="326" r="5" fill="#112D35"/>
<circle cx="535" cy="326" r="5" fill="#112D35"/>
<g style="mix-blend-mode:multiply" filter="url(#filter2_d_3_4244)">
<circle cx="270" cy="325" r="25" fill="white"/>
</g>
<circle cx="270" cy="325" r="25" fill="white"/>
<path fill-rule="evenodd" clip-rule="evenodd" d="M270 334.469L261.367 325.835C259.772 324.241 259.772 321.654 261.367 320.06C262.96 318.465 265.548 318.465 267.141 320.06L270 322.918L272.859 320.06C274.451 318.465 277.04 318.465 278.633 320.06C280.228 321.654 280.228 324.241 278.633 325.835L270 334.469Z" fill="#EC6D8F"/>
<defs>
<filter id="filter0_b_3_4244" x="-20.1828" y="80.8172" width="559.366" height="272.366" filterUnits="userSpaceOnUse" color-interpolation-filters="sRGB">
<feFlood flood-opacity="0" result="BackgroundImageFix"/>
<feGaussianBlur in="BackgroundImageFix" stdDeviation="13.5914"/>
<feComposite in2="SourceAlpha" operator="in" result="effect1_backgroundBlur_3_4244"/>
<feBlend mode="normal" in="SourceGraphic" in2="effect1_backgroundBlur_3_4244" result="shape"/>
</filter>
<filter id="filter1_b_3_4244" x="-24.1828" y="93.8172" width="581.366" height="259.121" filterUnits="userSpaceOnUse" color-interpolation-filters="sRGB">
<feFlood flood-opacity="0" result="BackgroundImageFix"/>
<feGaussianBlur in="BackgroundImageFix" stdDeviation="13.5914"/>
<feComposite in2="SourceAlpha" operator="in" result="effect1_backgroundBlur_3_4244"/>
<feBlend mode="normal" in="SourceGraphic" in2="effect1_backgroundBlur_3_4244" result="shape"/>
</filter>
<filter id="filter2_d_3_4244" x="227" y="288" width="86" height="86" filterUnits="userSpaceOnUse" color-interpolation-filters="sRGB">
<feFlood flood-opacity="0" result="BackgroundImageFix"/>
<feColorMatrix in="SourceAlpha" type="matrix" values="0 0 0 0 0 0 0 0 0 0 0 0 0 0 0 0 0 0 127 0" result="hardAlpha"/>
<feOffset dy="6"/>
<feGaussianBlur stdDeviation="9"/>
<feColorMatrix type="matrix" values="0 0 0 0 0 0 0 0 0 0 0 0 0 0 0 0 0 0 0.152699 0"/>
<feBlend mode="normal" in2="BackgroundImageFix" result="effect1_dropShadow_3_4244"/>
<feBlend mode="normal" in="SourceGraphic" in2="effect1_dropShadow_3_4244" result="shape"/>
</filter>
<linearGradient id="paint0_linear_3_4244" x1="209.5" y1="130.936" x2="214.654" y2="411.224" gradientUnits="userSpaceOnUse">
<stop stop-color="#78B1FA"/>
<stop offset="1" stop-color="#BCE8ED"/>
</linearGradient>
<linearGradient id="paint1_linear_3_4244" x1="158.971" y1="475.636" x2="97.9905" y2="173.083" gradientUnits="userSpaceOnUse">
<stop stop-color="#3BBCD4"/>
<stop offset="1" stop-color="#BCE8ED"/>
</linearGradient>
<linearGradient id="paint2_linear_3_4244" x1="2.99998" y1="326" x2="224.065" y2="-17.666" gradientUnits="userSpaceOnUse">
<stop stop-color="#AA92E1"/>
<stop offset="1" stop-color="#EEEDFF"/>
</linearGradient>
<linearGradient id="paint3_linear_3_4244" x1="270.5" y1="325.24" x2="270.5" y2="5" gradientUnits="userSpaceOnUse">
<stop/>
<stop offset="0.632375"/>
<stop offset="1" stop-opacity="0.01"/>
</linearGradient>
</defs>
</svg>
