<svg width="540" height="397" viewBox="0 0 540 397" fill="none" xmlns="http://www.w3.org/2000/svg">
<path opacity="0.399158" d="M246.642 390.11C246.041 390.11 245.487 390.011 244.981 389.813C244.475 389.615 244.035 389.34 243.661 388.988C243.287 388.629 242.997 388.211 242.792 387.734C242.587 387.25 242.484 386.722 242.484 386.15C242.484 385.578 242.587 385.054 242.792 384.577C242.997 384.093 243.287 383.675 243.661 383.323C244.035 382.964 244.475 382.685 244.981 382.487C245.487 382.289 246.037 382.19 246.631 382.19C247.232 382.19 247.782 382.289 248.281 382.487C248.787 382.685 249.227 382.964 249.601 383.323C249.975 383.675 250.265 384.093 250.47 384.577C250.675 385.054 250.778 385.578 250.778 386.15C250.778 386.722 250.675 387.25 250.47 387.734C250.265 388.218 249.975 388.636 249.601 388.988C249.227 389.34 248.787 389.615 248.281 389.813C247.782 390.011 247.236 390.11 246.642 390.11ZM246.631 388.856C247.02 388.856 247.379 388.79 247.709 388.658C248.039 388.526 248.325 388.339 248.567 388.097C248.809 387.848 248.996 387.562 249.128 387.239C249.267 386.909 249.337 386.546 249.337 386.15C249.337 385.754 249.267 385.395 249.128 385.072C248.996 384.742 248.809 384.456 248.567 384.214C248.325 383.965 248.039 383.774 247.709 383.642C247.379 383.51 247.02 383.444 246.631 383.444C246.242 383.444 245.883 383.51 245.553 383.642C245.23 383.774 244.944 383.965 244.695 384.214C244.453 384.456 244.262 384.742 244.123 385.072C243.991 385.395 243.925 385.754 243.925 386.15C243.925 386.539 243.991 386.898 244.123 387.228C244.262 387.558 244.453 387.848 244.695 388.097C244.937 388.339 245.223 388.526 245.553 388.658C245.883 388.79 246.242 388.856 246.631 388.856ZM253.724 390L251.205 384.126H252.635L254.802 389.307H254.098L256.342 384.126H257.662L255.143 390H253.724ZM261.007 390.077C260.508 390.077 260.068 389.985 259.687 389.802C259.306 389.611 259.009 389.325 258.796 388.944C258.583 388.555 258.477 388.068 258.477 387.481V384.126H259.852V387.294C259.852 387.822 259.969 388.218 260.204 388.482C260.446 388.739 260.787 388.867 261.227 388.867C261.55 388.867 261.828 388.801 262.063 388.669C262.305 388.537 262.492 388.339 262.624 388.075C262.763 387.811 262.833 387.485 262.833 387.096V384.126H264.208V390H262.899V388.416L263.13 388.9C262.932 389.281 262.642 389.575 262.261 389.78C261.88 389.978 261.462 390.077 261.007 390.077ZM266.008 390V381.838H267.383V390H266.008ZM272.807 390V388.812L272.73 388.559V386.48C272.73 386.077 272.609 385.765 272.367 385.545C272.125 385.318 271.758 385.204 271.267 385.204C270.937 385.204 270.611 385.255 270.288 385.358C269.973 385.461 269.705 385.604 269.485 385.787L268.946 384.786C269.261 384.544 269.635 384.364 270.068 384.247C270.508 384.122 270.963 384.06 271.432 384.06C272.283 384.06 272.939 384.265 273.401 384.676C273.87 385.079 274.105 385.706 274.105 386.557V390H272.807ZM270.959 390.077C270.519 390.077 270.134 390.004 269.804 389.857C269.474 389.703 269.217 389.494 269.034 389.23C268.858 388.959 268.77 388.654 268.77 388.317C268.77 387.987 268.847 387.69 269.001 387.426C269.162 387.162 269.423 386.953 269.782 386.799C270.141 386.645 270.618 386.568 271.212 386.568H272.917V387.481H271.311C270.842 387.481 270.526 387.558 270.365 387.712C270.204 387.859 270.123 388.042 270.123 388.262C270.123 388.511 270.222 388.709 270.42 388.856C270.618 389.003 270.893 389.076 271.245 389.076C271.582 389.076 271.883 388.999 272.147 388.845C272.418 388.691 272.613 388.464 272.73 388.163L272.961 388.988C272.829 389.333 272.591 389.6 272.246 389.791C271.909 389.982 271.48 390.077 270.959 390.077ZM278.081 390.077C277.435 390.077 276.937 389.912 276.585 389.582C276.233 389.245 276.057 388.75 276.057 388.097V382.828H277.432V388.064C277.432 388.343 277.501 388.559 277.641 388.713C277.787 388.867 277.989 388.944 278.246 388.944C278.554 388.944 278.81 388.863 279.016 388.702L279.401 389.681C279.239 389.813 279.041 389.912 278.807 389.978C278.572 390.044 278.33 390.077 278.081 390.077ZM275.089 385.27V384.17H279.005V385.27H275.089ZM280.532 390V384.126H281.907V390H280.532ZM281.225 383.158C280.968 383.158 280.756 383.077 280.587 382.916C280.426 382.755 280.345 382.56 280.345 382.333C280.345 382.098 280.426 381.904 280.587 381.75C280.756 381.589 280.968 381.508 281.225 381.508C281.482 381.508 281.691 381.585 281.852 381.739C282.021 381.886 282.105 382.073 282.105 382.3C282.105 382.542 282.024 382.747 281.863 382.916C281.702 383.077 281.489 383.158 281.225 383.158ZM286.352 390.077C285.75 390.077 285.215 389.949 284.746 389.692C284.276 389.428 283.906 389.069 283.635 388.614C283.363 388.159 283.228 387.642 283.228 387.063C283.228 386.476 283.363 385.959 283.635 385.512C283.906 385.057 284.276 384.702 284.746 384.445C285.215 384.188 285.75 384.06 286.352 384.06C286.96 384.06 287.499 384.188 287.969 384.445C288.445 384.702 288.816 385.054 289.08 385.501C289.351 385.948 289.487 386.469 289.487 387.063C289.487 387.642 289.351 388.159 289.08 388.614C288.816 389.069 288.445 389.428 287.969 389.692C287.499 389.949 286.96 390.077 286.352 390.077ZM286.352 388.9C286.689 388.9 286.99 388.827 287.254 388.68C287.518 388.533 287.723 388.321 287.87 388.042C288.024 387.763 288.101 387.437 288.101 387.063C288.101 386.682 288.024 386.355 287.87 386.084C287.723 385.805 287.518 385.593 287.254 385.446C286.99 385.299 286.693 385.226 286.363 385.226C286.025 385.226 285.725 385.299 285.461 385.446C285.204 385.593 284.999 385.805 284.845 386.084C284.691 386.355 284.614 386.682 284.614 387.063C284.614 387.437 284.691 387.763 284.845 388.042C284.999 388.321 285.204 388.533 285.461 388.68C285.725 388.827 286.022 388.9 286.352 388.9ZM294.134 384.06C294.604 384.06 295.022 384.152 295.388 384.335C295.762 384.518 296.056 384.801 296.268 385.182C296.481 385.556 296.587 386.04 296.587 386.634V390H295.212V386.81C295.212 386.289 295.088 385.901 294.838 385.644C294.596 385.387 294.255 385.259 293.815 385.259C293.493 385.259 293.207 385.325 292.957 385.457C292.708 385.589 292.514 385.787 292.374 386.051C292.242 386.308 292.176 386.634 292.176 387.03V390H290.801V384.126H292.11V385.71L291.879 385.226C292.085 384.852 292.382 384.566 292.77 384.368C293.166 384.163 293.621 384.06 294.134 384.06Z" fill="#112D35"/>
<path opacity="0.4" d="M488.545 390.11C487.959 390.11 487.412 390.015 486.906 389.824C486.408 389.626 485.971 389.351 485.597 388.999C485.231 388.64 484.945 388.218 484.739 387.734C484.534 387.25 484.431 386.722 484.431 386.15C484.431 385.578 484.534 385.05 484.739 384.566C484.945 384.082 485.234 383.664 485.608 383.312C485.982 382.953 486.419 382.678 486.917 382.487C487.416 382.289 487.962 382.19 488.556 382.19C489.187 382.19 489.763 382.3 490.283 382.52C490.804 382.733 491.244 383.052 491.603 383.477L490.679 384.346C490.401 384.045 490.089 383.822 489.744 383.675C489.4 383.521 489.026 383.444 488.622 383.444C488.219 383.444 487.849 383.51 487.511 383.642C487.181 383.774 486.892 383.961 486.642 384.203C486.4 384.445 486.21 384.731 486.07 385.061C485.938 385.391 485.872 385.754 485.872 386.15C485.872 386.546 485.938 386.909 486.07 387.239C486.21 387.569 486.4 387.855 486.642 388.097C486.892 388.339 487.181 388.526 487.511 388.658C487.849 388.79 488.219 388.856 488.622 388.856C489.026 388.856 489.4 388.783 489.744 388.636C490.089 388.482 490.401 388.251 490.679 387.943L491.603 388.823C491.244 389.241 490.804 389.56 490.283 389.78C489.763 390 489.183 390.11 488.545 390.11ZM493.325 392.211C493.039 392.211 492.753 392.163 492.467 392.068C492.181 391.973 491.943 391.841 491.752 391.672L492.302 390.66C492.442 390.785 492.599 390.884 492.775 390.957C492.951 391.03 493.131 391.067 493.314 391.067C493.564 391.067 493.765 391.005 493.919 390.88C494.073 390.755 494.216 390.546 494.348 390.253L494.689 389.483L494.799 389.318L497.021 384.126H498.341L495.591 390.473C495.408 390.913 495.203 391.261 494.975 391.518C494.755 391.775 494.506 391.954 494.227 392.057C493.956 392.16 493.655 392.211 493.325 392.211ZM494.535 390.209L491.884 384.126H493.314L495.47 389.197L494.535 390.209ZM501.735 390.077C501.119 390.077 500.569 389.949 500.085 389.692C499.608 389.428 499.234 389.069 498.963 388.614C498.691 388.159 498.556 387.642 498.556 387.063C498.556 386.476 498.691 385.959 498.963 385.512C499.234 385.057 499.608 384.702 500.085 384.445C500.569 384.188 501.119 384.06 501.735 384.06C502.307 384.06 502.809 384.177 503.242 384.412C503.682 384.639 504.015 384.977 504.243 385.424L503.187 386.04C503.011 385.761 502.794 385.556 502.538 385.424C502.288 385.292 502.017 385.226 501.724 385.226C501.386 385.226 501.082 385.299 500.811 385.446C500.539 385.593 500.327 385.805 500.173 386.084C500.019 386.355 499.942 386.682 499.942 387.063C499.942 387.444 500.019 387.774 500.173 388.053C500.327 388.324 500.539 388.533 500.811 388.68C501.082 388.827 501.386 388.9 501.724 388.9C502.017 388.9 502.288 388.834 502.538 388.702C502.794 388.57 503.011 388.365 503.187 388.086L504.243 388.702C504.015 389.142 503.682 389.483 503.242 389.725C502.809 389.96 502.307 390.077 501.735 390.077ZM505.378 390V381.838H506.753V390H505.378ZM511.318 390.077C510.666 390.077 510.094 389.949 509.602 389.692C509.118 389.428 508.741 389.069 508.469 388.614C508.205 388.159 508.073 387.642 508.073 387.063C508.073 386.476 508.202 385.959 508.458 385.512C508.722 385.057 509.082 384.702 509.536 384.445C509.998 384.188 510.523 384.06 511.109 384.06C511.681 384.06 512.191 384.185 512.638 384.434C513.086 384.683 513.438 385.035 513.694 385.49C513.951 385.945 514.079 386.48 514.079 387.096C514.079 387.155 514.076 387.221 514.068 387.294C514.068 387.367 514.065 387.437 514.057 387.503H509.162V386.59H513.331L512.792 386.876C512.8 386.539 512.73 386.242 512.583 385.985C512.437 385.728 512.235 385.527 511.978 385.38C511.729 385.233 511.439 385.16 511.109 385.16C510.772 385.16 510.475 385.233 510.218 385.38C509.969 385.527 509.771 385.732 509.624 385.996C509.485 386.253 509.415 386.557 509.415 386.909V387.129C509.415 387.481 509.496 387.793 509.657 388.064C509.819 388.335 510.046 388.544 510.339 388.691C510.633 388.838 510.97 388.911 511.351 388.911C511.681 388.911 511.978 388.86 512.242 388.757C512.506 388.654 512.741 388.493 512.946 388.273L513.683 389.12C513.419 389.428 513.086 389.666 512.682 389.835C512.286 389.996 511.832 390.077 511.318 390.077ZM519.892 385.501H523.72V386.678H519.892V385.501ZM520.002 388.801H524.347V390H518.572V382.3H524.193V383.499H520.002V388.801ZM529.142 384.06C529.612 384.06 530.03 384.152 530.396 384.335C530.77 384.518 531.064 384.801 531.276 385.182C531.489 385.556 531.595 386.04 531.595 386.634V390H530.22V386.81C530.22 386.289 530.096 385.901 529.846 385.644C529.604 385.387 529.263 385.259 528.823 385.259C528.501 385.259 528.215 385.325 527.965 385.457C527.716 385.589 527.522 385.787 527.382 386.051C527.25 386.308 527.184 386.634 527.184 387.03V390H525.809V384.126H527.118V385.71L526.887 385.226C527.093 384.852 527.39 384.566 527.778 384.368C528.174 384.163 528.629 384.06 529.142 384.06ZM535.836 390.077C535.272 390.077 534.762 389.952 534.307 389.703C533.86 389.446 533.508 389.094 533.251 388.647C532.995 388.2 532.866 387.672 532.866 387.063C532.866 386.454 532.995 385.926 533.251 385.479C533.508 385.032 533.86 384.683 534.307 384.434C534.762 384.185 535.272 384.06 535.836 384.06C536.328 384.06 536.768 384.17 537.156 384.39C537.545 384.603 537.853 384.929 538.08 385.369C538.308 385.809 538.421 386.374 538.421 387.063C538.421 387.745 538.311 388.31 538.091 388.757C537.871 389.197 537.567 389.527 537.178 389.747C536.79 389.967 536.342 390.077 535.836 390.077ZM536.001 388.9C536.331 388.9 536.625 388.827 536.881 388.68C537.145 388.533 537.354 388.321 537.508 388.042C537.67 387.763 537.75 387.437 537.75 387.063C537.75 386.682 537.67 386.355 537.508 386.084C537.354 385.805 537.145 385.593 536.881 385.446C536.625 385.299 536.331 385.226 536.001 385.226C535.671 385.226 535.374 385.299 535.11 385.446C534.854 385.593 534.645 385.805 534.483 386.084C534.329 386.355 534.252 386.682 534.252 387.063C534.252 387.437 534.329 387.763 534.483 388.042C534.645 388.321 534.854 388.533 535.11 388.68C535.374 388.827 535.671 388.9 536.001 388.9ZM537.783 390V388.614L537.838 387.052L537.728 385.49V381.838H539.092V390H537.783Z" fill="#112D35"/>
<path opacity="0.4" d="M4.598 390.11C4.01133 390.11 3.465 390.015 2.959 389.824C2.46033 389.626 2.024 389.351 1.65 388.999C1.28333 388.64 0.997333 388.218 0.792 387.734C0.586667 387.25 0.484 386.722 0.484 386.15C0.484 385.578 0.586667 385.05 0.792 384.566C0.997333 384.082 1.287 383.664 1.661 383.312C2.035 382.953 2.47133 382.678 2.97 382.487C3.46867 382.289 4.015 382.19 4.609 382.19C5.23967 382.19 5.81533 382.3 6.336 382.52C6.85667 382.733 7.29667 383.052 7.656 383.477L6.732 384.346C6.45333 384.045 6.14167 383.822 5.797 383.675C5.45233 383.521 5.07833 383.444 4.675 383.444C4.27167 383.444 3.90133 383.51 3.564 383.642C3.234 383.774 2.94433 383.961 2.695 384.203C2.453 384.445 2.26233 384.731 2.123 385.061C1.991 385.391 1.925 385.754 1.925 386.15C1.925 386.546 1.991 386.909 2.123 387.239C2.26233 387.569 2.453 387.855 2.695 388.097C2.94433 388.339 3.234 388.526 3.564 388.658C3.90133 388.79 4.27167 388.856 4.675 388.856C5.07833 388.856 5.45233 388.783 5.797 388.636C6.14167 388.482 6.45333 388.251 6.732 387.943L7.656 388.823C7.29667 389.241 6.85667 389.56 6.336 389.78C5.81533 390 5.236 390.11 4.598 390.11ZM9.37819 392.211C9.09219 392.211 8.80619 392.163 8.52019 392.068C8.23419 391.973 7.99585 391.841 7.80519 391.672L8.35519 390.66C8.49452 390.785 8.65219 390.884 8.82819 390.957C9.00419 391.03 9.18385 391.067 9.36719 391.067C9.61652 391.067 9.81819 391.005 9.97219 390.88C10.1262 390.755 10.2692 390.546 10.4012 390.253L10.7422 389.483L10.8522 389.318L13.0742 384.126H14.3942L11.6442 390.473C11.4609 390.913 11.2555 391.261 11.0282 391.518C10.8082 391.775 10.5589 391.954 10.2802 392.057C10.0089 392.16 9.70819 392.211 9.37819 392.211ZM10.5882 390.209L7.93719 384.126H9.36719L11.5232 389.197L10.5882 390.209ZM17.7874 390.077C17.1714 390.077 16.6214 389.949 16.1374 389.692C15.6608 389.428 15.2868 389.069 15.0154 388.614C14.7441 388.159 14.6084 387.642 14.6084 387.063C14.6084 386.476 14.7441 385.959 15.0154 385.512C15.2868 385.057 15.6608 384.702 16.1374 384.445C16.6214 384.188 17.1714 384.06 17.7874 384.06C18.3594 384.06 18.8618 384.177 19.2944 384.412C19.7344 384.639 20.0681 384.977 20.2954 385.424L19.2394 386.04C19.0634 385.761 18.8471 385.556 18.5904 385.424C18.3411 385.292 18.0698 385.226 17.7764 385.226C17.4391 385.226 17.1348 385.299 16.8634 385.446C16.5921 385.593 16.3794 385.805 16.2254 386.084C16.0714 386.355 15.9944 386.682 15.9944 387.063C15.9944 387.444 16.0714 387.774 16.2254 388.053C16.3794 388.324 16.5921 388.533 16.8634 388.68C17.1348 388.827 17.4391 388.9 17.7764 388.9C18.0698 388.9 18.3411 388.834 18.5904 388.702C18.8471 388.57 19.0634 388.365 19.2394 388.086L20.2954 388.702C20.0681 389.142 19.7344 389.483 19.2944 389.725C18.8618 389.96 18.3594 390.077 17.7874 390.077ZM21.4303 390V381.838H22.8053V390H21.4303ZM27.371 390.077C26.7183 390.077 26.1463 389.949 25.655 389.692C25.171 389.428 24.7933 389.069 24.522 388.614C24.258 388.159 24.126 387.642 24.126 387.063C24.126 386.476 24.2543 385.959 24.511 385.512C24.775 385.057 25.1343 384.702 25.589 384.445C26.051 384.188 26.5753 384.06 27.162 384.06C27.734 384.06 28.2437 384.185 28.691 384.434C29.1383 384.683 29.4903 385.035 29.747 385.49C30.0037 385.945 30.132 386.48 30.132 387.096C30.132 387.155 30.1283 387.221 30.121 387.294C30.121 387.367 30.1173 387.437 30.11 387.503H25.215V386.59H29.384L28.845 386.876C28.8523 386.539 28.7827 386.242 28.636 385.985C28.4893 385.728 28.2877 385.527 28.031 385.38C27.7817 385.233 27.492 385.16 27.162 385.16C26.8247 385.16 26.5277 385.233 26.271 385.38C26.0217 385.527 25.8237 385.732 25.677 385.996C25.5377 386.253 25.468 386.557 25.468 386.909V387.129C25.468 387.481 25.5487 387.793 25.71 388.064C25.8713 388.335 26.0987 388.544 26.392 388.691C26.6853 388.838 27.0227 388.911 27.404 388.911C27.734 388.911 28.031 388.86 28.295 388.757C28.559 388.654 28.7937 388.493 28.999 388.273L29.736 389.12C29.472 389.428 29.1383 389.666 28.735 389.835C28.339 389.996 27.8843 390.077 27.371 390.077ZM37.0118 390.11C36.4105 390.11 35.8348 390.026 35.2848 389.857C34.7348 389.681 34.2985 389.457 33.9758 389.186L34.4708 388.075C34.7788 388.317 35.1602 388.519 35.6148 388.68C36.0695 388.841 36.5352 388.922 37.0118 388.922C37.4152 388.922 37.7415 388.878 37.9908 388.79C38.2402 388.702 38.4235 388.585 38.5408 388.438C38.6582 388.284 38.7168 388.112 38.7168 387.921C38.7168 387.686 38.6325 387.499 38.4638 387.36C38.2952 387.213 38.0752 387.1 37.8038 387.019C37.5398 386.931 37.2428 386.85 36.9128 386.777C36.5902 386.704 36.2638 386.619 35.9338 386.524C35.6112 386.421 35.3142 386.293 35.0428 386.139C34.7788 385.978 34.5625 385.765 34.3938 385.501C34.2252 385.237 34.1408 384.9 34.1408 384.489C34.1408 384.071 34.2508 383.69 34.4708 383.345C34.6982 382.993 35.0392 382.714 35.4938 382.509C35.9558 382.296 36.5388 382.19 37.2428 382.19C37.7048 382.19 38.1632 382.249 38.6178 382.366C39.0725 382.483 39.4685 382.652 39.8058 382.872L39.3548 383.983C39.0102 383.778 38.6545 383.627 38.2878 383.532C37.9212 383.429 37.5692 383.378 37.2318 383.378C36.8358 383.378 36.5132 383.426 36.2638 383.521C36.0218 383.616 35.8422 383.741 35.7248 383.895C35.6148 384.049 35.5598 384.225 35.5598 384.423C35.5598 384.658 35.6405 384.848 35.8018 384.995C35.9705 385.134 36.1868 385.244 36.4508 385.325C36.7222 385.406 37.0228 385.486 37.3528 385.567C37.6828 385.64 38.0092 385.725 38.3318 385.82C38.6618 385.915 38.9588 386.04 39.2228 386.194C39.4942 386.348 39.7105 386.557 39.8718 386.821C40.0405 387.085 40.1248 387.419 40.1248 387.822C40.1248 388.233 40.0112 388.614 39.7838 388.966C39.5638 389.311 39.2228 389.589 38.7608 389.802C38.2988 390.007 37.7158 390.11 37.0118 390.11ZM43.6218 390.077C42.9765 390.077 42.4778 389.912 42.1258 389.582C41.7738 389.245 41.5978 388.75 41.5978 388.097V382.828H42.9728V388.064C42.9728 388.343 43.0425 388.559 43.1818 388.713C43.3285 388.867 43.5301 388.944 43.7868 388.944C44.0948 388.944 44.3515 388.863 44.5568 388.702L44.9418 389.681C44.7805 389.813 44.5825 389.912 44.3478 389.978C44.1131 390.044 43.8711 390.077 43.6218 390.077ZM40.6298 385.27V384.17H44.5458V385.27H40.6298ZM49.6919 390V388.812L49.6149 388.559V386.48C49.6149 386.077 49.4939 385.765 49.2519 385.545C49.0099 385.318 48.6432 385.204 48.1519 385.204C47.8219 385.204 47.4956 385.255 47.1729 385.358C46.8576 385.461 46.5899 385.604 46.3699 385.787L45.8309 384.786C46.1462 384.544 46.5202 384.364 46.9529 384.247C47.3929 384.122 47.8476 384.06 48.3169 384.06C49.1676 384.06 49.8239 384.265 50.2859 384.676C50.7552 385.079 50.9899 385.706 50.9899 386.557V390H49.6919ZM47.8439 390.077C47.4039 390.077 47.0189 390.004 46.6889 389.857C46.3589 389.703 46.1022 389.494 45.9189 389.23C45.7429 388.959 45.6549 388.654 45.6549 388.317C45.6549 387.987 45.7319 387.69 45.8859 387.426C46.0472 387.162 46.3076 386.953 46.6669 386.799C47.0262 386.645 47.5029 386.568 48.0969 386.568H49.8019V387.481H48.1959C47.7266 387.481 47.4112 387.558 47.2499 387.712C47.0886 387.859 47.0079 388.042 47.0079 388.262C47.0079 388.511 47.1069 388.709 47.3049 388.856C47.5029 389.003 47.7779 389.076 48.1299 389.076C48.4672 389.076 48.7679 388.999 49.0319 388.845C49.3032 388.691 49.4976 388.464 49.6149 388.163L49.8459 388.988C49.7139 389.333 49.4756 389.6 49.1309 389.791C48.7936 389.982 48.3646 390.077 47.8439 390.077ZM52.7545 390V384.126H54.0635V385.743L53.9095 385.27C54.0855 384.874 54.3605 384.573 54.7345 384.368C55.1159 384.163 55.5889 384.06 56.1535 384.06V385.369C56.0949 385.354 56.0399 385.347 55.9885 385.347C55.9372 385.34 55.8859 385.336 55.8345 385.336C55.3139 385.336 54.8995 385.49 54.5915 385.798C54.2835 386.099 54.1295 386.55 54.1295 387.151V390H52.7545ZM59.7458 390.077C59.1005 390.077 58.6018 389.912 58.2498 389.582C57.8978 389.245 57.7218 388.75 57.7218 388.097V382.828H59.0968V388.064C59.0968 388.343 59.1665 388.559 59.3058 388.713C59.4525 388.867 59.6541 388.944 59.9108 388.944C60.2188 388.944 60.4755 388.863 60.6808 388.702L61.0658 389.681C60.9045 389.813 60.7065 389.912 60.4718 389.978C60.2371 390.044 59.9951 390.077 59.7458 390.077ZM56.7538 385.27V384.17H60.6698V385.27H56.7538Z" fill="#112D35"/>
<path fill-rule="evenodd" clip-rule="evenodd" d="M7 341C7 341 97.9658 332.486 142.009 279.919C186.052 227.351 205.127 134.214 225.029 165.153C244.931 196.092 252.793 300.098 288.41 312.852C324.027 325.605 344.004 242.424 392.812 260.225C441.62 278.026 480.963 336.687 526.996 340.098C526.479 340.012 7 341 7 341Z" fill="url(#paint0_linear_3_4244)"/>
<g filter="url(#filter0_b_3_4244)">
<path fill-rule="evenodd" clip-rule="evenodd" d="M7 340.785C38.5733 316.395 56.2715 307.564 94.6442 316.395C133.017 325.226 180.113 324.481 203.681 268.111C227.25 211.741 224.461 123 241.62 123C258.779 123 255.802 298.087 345.673 316.395C435.543 334.704 512 341 512 341C512 341 16.1443 339.755 7 340.785Z" fill="url(#paint1_linear_3_4244)"/>
</g>
<g style="mix-blend-mode:hard-light">
<path fill-rule="evenodd" clip-rule="evenodd" d="M146 0V341H270V0H146Z" fill="#AEAAE8" fill-opacity="0.5"/>
</g>
<g filter="url(#filter1_b_3_4244)">
<path fill-rule="evenodd" clip-rule="evenodd" d="M3 340.673C3 340.673 171.929 345.159 248.325 288.176C324.72 231.193 335.64 136 387.597 136C439.554 136 466.653 288.616 530 340.215C530 340.43 3 340.673 3 340.673Z" fill="url(#paint2_linear_3_4244)"/>
</g>
<g style="mix-blend-mode:hard-light">
<path fill-rule="evenodd" clip-rule="evenodd" d="M316 0V341H440V0H316Z" fill="#AEAAE8" fill-opacity="0.5"/>
</g>
<path d="M270.5 340.24V20" stroke="url(#paint3_linear_3_4244)" stroke-linecap="square" stroke-dasharray="1 5"/>
<path d="M535 340.5L5 340.5" stroke="#112D35" stroke-linecap="square"/>
<path opacity="0.5" d="M332.05 69V62H332.87L336.01 67.29H335.57L338.67 62H339.49L339.5 69H338.54L338.53 63.51H338.76L336 68.15H335.54L332.76 63.51H333.01V69H332.05ZM343.821 69.06C343.254 69.06 342.754 68.9433 342.321 68.71C341.894 68.4767 341.561 68.1567 341.321 67.75C341.087 67.3433 340.971 66.8767 340.971 66.35C340.971 65.8233 341.084 65.3567 341.311 64.95C341.544 64.5433 341.861 64.2267 342.261 64C342.667 63.7667 343.124 63.65 343.631 63.65C344.144 63.65 344.597 63.7633 344.991 63.99C345.384 64.2167 345.691 64.5367 345.911 64.95C346.137 65.3567 346.251 65.8333 346.251 66.38C346.251 66.42 346.247 66.4667 346.241 66.52C346.241 66.5733 346.237 66.6233 346.231 66.67H341.721V65.98H345.731L345.341 66.22C345.347 65.88 345.277 65.5767 345.131 65.31C344.984 65.0433 344.781 64.8367 344.521 64.69C344.267 64.5367 343.971 64.46 343.631 64.46C343.297 64.46 343.001 64.5367 342.741 64.69C342.481 64.8367 342.277 65.0467 342.131 65.32C341.984 65.5867 341.911 65.8933 341.911 66.24V66.4C341.911 66.7533 341.991 67.07 342.151 67.35C342.317 67.6233 342.547 67.8367 342.841 67.99C343.134 68.1433 343.471 68.22 343.851 68.22C344.164 68.22 344.447 68.1667 344.701 68.06C344.961 67.9533 345.187 67.7933 345.381 67.58L345.911 68.2C345.671 68.48 345.371 68.6933 345.011 68.84C344.657 68.9867 344.261 69.06 343.821 69.06ZM350.727 69V67.88L350.677 67.67V65.76C350.677 65.3533 350.557 65.04 350.317 64.82C350.084 64.5933 349.731 64.48 349.257 64.48C348.944 64.48 348.637 64.5333 348.337 64.64C348.037 64.74 347.784 64.8767 347.577 65.05L347.177 64.33C347.451 64.11 347.777 63.9433 348.157 63.83C348.544 63.71 348.947 63.65 349.367 63.65C350.094 63.65 350.654 63.8267 351.047 64.18C351.441 64.5333 351.637 65.0733 351.637 65.8V69H350.727ZM348.987 69.06C348.594 69.06 348.247 68.9933 347.947 68.86C347.654 68.7267 347.427 68.5433 347.267 68.31C347.107 68.07 347.027 67.8 347.027 67.5C347.027 67.2133 347.094 66.9533 347.227 66.72C347.367 66.4867 347.591 66.3 347.897 66.16C348.211 66.02 348.631 65.95 349.157 65.95H350.837V66.64H349.197C348.717 66.64 348.394 66.72 348.227 66.88C348.061 67.04 347.977 67.2333 347.977 67.46C347.977 67.72 348.081 67.93 348.287 68.09C348.494 68.2433 348.781 68.32 349.147 68.32C349.507 68.32 349.821 68.24 350.087 68.08C350.361 67.92 350.557 67.6867 350.677 67.38L350.867 68.04C350.741 68.3533 350.517 68.6033 350.197 68.79C349.877 68.97 349.474 69.06 348.987 69.06ZM354.934 69.06C354.494 69.06 354.074 69 353.674 68.88C353.281 68.76 352.971 68.6133 352.744 68.44L353.144 67.68C353.371 67.8333 353.651 67.9633 353.984 68.07C354.317 68.1767 354.657 68.23 355.004 68.23C355.451 68.23 355.771 68.1667 355.964 68.04C356.164 67.9133 356.264 67.7367 356.264 67.51C356.264 67.3433 356.204 67.2133 356.084 67.12C355.964 67.0267 355.804 66.9567 355.604 66.91C355.411 66.8633 355.194 66.8233 354.954 66.79C354.714 66.75 354.474 66.7033 354.234 66.65C353.994 66.59 353.774 66.51 353.574 66.41C353.374 66.3033 353.214 66.16 353.094 65.98C352.974 65.7933 352.914 65.5467 352.914 65.24C352.914 64.92 353.004 64.64 353.184 64.4C353.364 64.16 353.617 63.9767 353.944 63.85C354.277 63.7167 354.671 63.65 355.124 63.65C355.471 63.65 355.821 63.6933 356.174 63.78C356.534 63.86 356.827 63.9767 357.054 64.13L356.644 64.89C356.404 64.73 356.154 64.62 355.894 64.56C355.634 64.5 355.374 64.47 355.114 64.47C354.694 64.47 354.381 64.54 354.174 64.68C353.967 64.8133 353.864 64.9867 353.864 65.2C353.864 65.38 353.924 65.52 354.044 65.62C354.171 65.7133 354.331 65.7867 354.524 65.84C354.724 65.8933 354.944 65.94 355.184 65.98C355.424 66.0133 355.664 66.06 355.904 66.12C356.144 66.1733 356.361 66.25 356.554 66.35C356.754 66.45 356.914 66.59 357.034 66.77C357.161 66.95 357.224 67.19 357.224 67.49C357.224 67.81 357.131 68.0867 356.944 68.32C356.757 68.5533 356.494 68.7367 356.154 68.87C355.814 68.9967 355.407 69.06 354.934 69.06ZM360.654 69.06C360.2 69.06 359.8 68.9767 359.454 68.81C359.114 68.6433 358.847 68.39 358.654 68.05C358.467 67.7033 358.374 67.27 358.374 66.75V63.7H359.334V66.64C359.334 67.16 359.457 67.55 359.704 67.81C359.957 68.07 360.31 68.2 360.764 68.2C361.097 68.2 361.387 68.1333 361.634 68C361.88 67.86 362.07 67.66 362.204 67.4C362.337 67.1333 362.404 66.8133 362.404 66.44V63.7H363.364V69H362.454V67.57L362.604 67.95C362.43 68.3033 362.17 68.5767 361.824 68.77C361.477 68.9633 361.087 69.06 360.654 69.06ZM365.191 69V63.7H366.111V65.14L366.021 64.78C366.168 64.4133 366.415 64.1333 366.761 63.94C367.108 63.7467 367.535 63.65 368.041 63.65V64.58C368.001 64.5733 367.961 64.57 367.921 64.57C367.888 64.57 367.855 64.57 367.821 64.57C367.308 64.57 366.901 64.7233 366.601 65.03C366.301 65.3367 366.151 65.78 366.151 66.36V69H365.191ZM371.536 69.06C370.969 69.06 370.469 68.9433 370.036 68.71C369.609 68.4767 369.276 68.1567 369.036 67.75C368.802 67.3433 368.686 66.8767 368.686 66.35C368.686 65.8233 368.799 65.3567 369.026 64.95C369.259 64.5433 369.576 64.2267 369.976 64C370.382 63.7667 370.839 63.65 371.346 63.65C371.859 63.65 372.312 63.7633 372.706 63.99C373.099 64.2167 373.406 64.5367 373.626 64.95C373.852 65.3567 373.966 65.8333 373.966 66.38C373.966 66.42 373.962 66.4667 373.956 66.52C373.956 66.5733 373.952 66.6233 373.946 66.67H369.436V65.98H373.446L373.056 66.22C373.062 65.88 372.992 65.5767 372.846 65.31C372.699 65.0433 372.496 64.8367 372.236 64.69C371.982 64.5367 371.686 64.46 371.346 64.46C371.012 64.46 370.716 64.5367 370.456 64.69C370.196 64.8367 369.992 65.0467 369.846 65.32C369.699 65.5867 369.626 65.8933 369.626 66.24V66.4C369.626 66.7533 369.706 67.07 369.866 67.35C370.032 67.6233 370.262 67.8367 370.556 67.99C370.849 68.1433 371.186 68.22 371.566 68.22C371.879 68.22 372.162 68.1667 372.416 68.06C372.676 67.9533 372.902 67.7933 373.096 67.58L373.626 68.2C373.386 68.48 373.086 68.6933 372.726 68.84C372.372 68.9867 371.976 69.06 371.536 69.06ZM376.819 69.06C376.379 69.06 375.959 69 375.559 68.88C375.165 68.76 374.855 68.6133 374.629 68.44L375.029 67.68C375.255 67.8333 375.535 67.9633 375.869 68.07C376.202 68.1767 376.542 68.23 376.889 68.23C377.335 68.23 377.655 68.1667 377.849 68.04C378.049 67.9133 378.149 67.7367 378.149 67.51C378.149 67.3433 378.089 67.2133 377.969 67.12C377.849 67.0267 377.689 66.9567 377.489 66.91C377.295 66.8633 377.079 66.8233 376.839 66.79C376.599 66.75 376.359 66.7033 376.119 66.65C375.879 66.59 375.659 66.51 375.459 66.41C375.259 66.3033 375.099 66.16 374.979 65.98C374.859 65.7933 374.799 65.5467 374.799 65.24C374.799 64.92 374.889 64.64 375.069 64.4C375.249 64.16 375.502 63.9767 375.829 63.85C376.162 63.7167 376.555 63.65 377.009 63.65C377.355 63.65 377.705 63.6933 378.059 63.78C378.419 63.86 378.712 63.9767 378.939 64.13L378.529 64.89C378.289 64.73 378.039 64.62 377.779 64.56C377.519 64.5 377.259 64.47 376.999 64.47C376.579 64.47 376.265 64.54 376.059 64.68C375.852 64.8133 375.749 64.9867 375.749 65.2C375.749 65.38 375.809 65.52 375.929 65.62C376.055 65.7133 376.215 65.7867 376.409 65.84C376.609 65.8933 376.829 65.94 377.069 65.98C377.309 66.0133 377.549 66.06 377.789 66.12C378.029 66.1733 378.245 66.25 378.439 66.35C378.639 66.45 378.799 66.59 378.919 66.77C379.045 66.95 379.109 67.19 379.109 67.49C379.109 67.81 379.015 68.0867 378.829 68.32C378.642 68.5533 378.379 68.7367 378.039 68.87C377.699 68.9967 377.292 69.06 376.819 69.06ZM332.05 81V74H334.78C335.393 74 335.917 74.0967 336.35 74.29C336.783 74.4833 337.117 74.7633 337.35 75.13C337.583 75.4967 337.7 75.9333 337.7 76.44C337.7 76.9467 337.583 77.3833 337.35 77.75C337.117 78.11 336.783 78.39 336.35 78.59C335.917 78.7833 335.393 78.88 334.78 78.88H332.6L333.05 78.41V81H332.05ZM333.05 78.51L332.6 78.01H334.75C335.39 78.01 335.873 77.8733 336.2 77.6C336.533 77.3267 336.7 76.94 336.7 76.44C336.7 75.94 336.533 75.5533 336.2 75.28C335.873 75.0067 335.39 74.87 334.75 74.87H332.6L333.05 74.37V78.51ZM338.931 81V75.7H339.851V77.14L339.761 76.78C339.908 76.4133 340.155 76.1333 340.501 75.94C340.848 75.7467 341.275 75.65 341.781 75.65V76.58C341.741 76.5733 341.701 76.57 341.661 76.57C341.628 76.57 341.595 76.57 341.561 76.57C341.048 76.57 340.641 76.7233 340.341 77.03C340.041 77.3367 339.891 77.78 339.891 78.36V81H338.931ZM345.186 81.06C344.653 81.06 344.179 80.9433 343.766 80.71C343.353 80.4767 343.026 80.1567 342.786 79.75C342.546 79.3367 342.426 78.87 342.426 78.35C342.426 77.8233 342.546 77.3567 342.786 76.95C343.026 76.5433 343.353 76.2267 343.766 76C344.179 75.7667 344.653 75.65 345.186 75.65C345.713 75.65 346.183 75.7667 346.596 76C347.016 76.2267 347.343 76.5433 347.576 76.95C347.816 77.35 347.936 77.8167 347.936 78.35C347.936 78.8767 347.816 79.3433 347.576 79.75C347.343 80.1567 347.016 80.4767 346.596 80.71C346.183 80.9433 345.713 81.06 345.186 81.06ZM345.186 80.22C345.526 80.22 345.829 80.1433 346.096 79.99C346.369 79.8367 346.583 79.62 346.736 79.34C346.889 79.0533 346.966 78.7233 346.966 78.35C346.966 77.97 346.889 77.6433 346.736 77.37C346.583 77.09 346.369 76.8733 346.096 76.72C345.829 76.5667 345.526 76.49 345.186 76.49C344.846 76.49 344.543 76.5667 344.276 76.72C344.009 76.8733 343.796 77.09 343.636 77.37C343.476 77.6433 343.396 77.97 343.396 78.35C343.396 78.7233 343.476 79.0533 343.636 79.34C343.796 79.62 344.009 79.8367 344.276 79.99C344.543 80.1433 344.846 80.22 345.186 80.22ZM351.584 83C351.097 83 350.624 82.93 350.164 82.79C349.71 82.6567 349.34 82.4633 349.054 82.21L349.514 81.47C349.76 81.6833 350.064 81.85 350.424 81.97C350.784 82.0967 351.16 82.16 351.554 82.16C352.18 82.16 352.64 82.0133 352.934 81.72C353.227 81.4267 353.374 80.98 353.374 80.38V79.26L353.474 78.21L353.424 77.15V75.7H354.334V80.28C354.334 81.2133 354.1 81.9 353.634 82.34C353.167 82.78 352.484 83 351.584 83ZM351.464 80.78C350.95 80.78 350.49 80.6733 350.084 80.46C349.684 80.24 349.364 79.9367 349.124 79.55C348.89 79.1633 348.774 78.7167 348.774 78.21C348.774 77.6967 348.89 77.25 349.124 76.87C349.364 76.4833 349.684 76.1833 350.084 75.97C350.49 75.7567 350.95 75.65 351.464 75.65C351.917 75.65 352.33 75.7433 352.704 75.93C353.077 76.11 353.374 76.39 353.594 76.77C353.82 77.15 353.934 77.63 353.934 78.21C353.934 78.7833 353.82 79.26 353.594 79.64C353.374 80.02 353.077 80.3067 352.704 80.5C352.33 80.6867 351.917 80.78 351.464 80.78ZM351.574 79.94C351.927 79.94 352.24 79.8667 352.514 79.72C352.787 79.5733 353 79.37 353.154 79.11C353.314 78.85 353.394 78.55 353.394 78.21C353.394 77.87 353.314 77.57 353.154 77.31C353 77.05 352.787 76.85 352.514 76.71C352.24 76.5633 351.927 76.49 351.574 76.49C351.22 76.49 350.904 76.5633 350.624 76.71C350.35 76.85 350.134 77.05 349.974 77.31C349.82 77.57 349.744 77.87 349.744 78.21C349.744 78.55 349.82 78.85 349.974 79.11C350.134 79.37 350.35 79.5733 350.624 79.72C350.904 79.8667 351.22 79.94 351.574 79.94ZM358.528 81.06C357.961 81.06 357.461 80.9433 357.028 80.71C356.601 80.4767 356.268 80.1567 356.028 79.75C355.794 79.3433 355.678 78.8767 355.678 78.35C355.678 77.8233 355.791 77.3567 356.018 76.95C356.251 76.5433 356.568 76.2267 356.968 76C357.374 75.7667 357.831 75.65 358.338 75.65C358.851 75.65 359.304 75.7633 359.698 75.99C360.091 76.2167 360.398 76.5367 360.618 76.95C360.844 77.3567 360.958 77.8333 360.958 78.38C360.958 78.42 360.954 78.4667 360.948 78.52C360.948 78.5733 360.944 78.6233 360.938 78.67H356.428V77.98H360.438L360.048 78.22C360.054 77.88 359.984 77.5767 359.838 77.31C359.691 77.0433 359.488 76.8367 359.228 76.69C358.974 76.5367 358.678 76.46 358.338 76.46C358.004 76.46 357.708 76.5367 357.448 76.69C357.188 76.8367 356.984 77.0467 356.838 77.32C356.691 77.5867 356.618 77.8933 356.618 78.24V78.4C356.618 78.7533 356.698 79.07 356.858 79.35C357.024 79.6233 357.254 79.8367 357.548 79.99C357.841 80.1433 358.178 80.22 358.558 80.22C358.871 80.22 359.154 80.1667 359.408 80.06C359.668 79.9533 359.894 79.7933 360.088 79.58L360.618 80.2C360.378 80.48 360.078 80.6933 359.718 80.84C359.364 80.9867 358.968 81.06 358.528 81.06ZM363.811 81.06C363.371 81.06 362.951 81 362.551 80.88C362.158 80.76 361.848 80.6133 361.621 80.44L362.021 79.68C362.248 79.8333 362.528 79.9633 362.861 80.07C363.194 80.1767 363.534 80.23 363.881 80.23C364.328 80.23 364.648 80.1667 364.841 80.04C365.041 79.9133 365.141 79.7367 365.141 79.51C365.141 79.3433 365.081 79.2133 364.961 79.12C364.841 79.0267 364.681 78.9567 364.481 78.91C364.288 78.8633 364.071 78.8233 363.831 78.79C363.591 78.75 363.351 78.7033 363.111 78.65C362.871 78.59 362.651 78.51 362.451 78.41C362.251 78.3033 362.091 78.16 361.971 77.98C361.851 77.7933 361.791 77.5467 361.791 77.24C361.791 76.92 361.881 76.64 362.061 76.4C362.241 76.16 362.494 75.9767 362.821 75.85C363.154 75.7167 363.548 75.65 364.001 75.65C364.348 75.65 364.698 75.6933 365.051 75.78C365.411 75.86 365.704 75.9767 365.931 76.13L365.521 76.89C365.281 76.73 365.031 76.62 364.771 76.56C364.511 76.5 364.251 76.47 363.991 76.47C363.571 76.47 363.258 76.54 363.051 76.68C362.844 76.8133 362.741 76.9867 362.741 77.2C362.741 77.38 362.801 77.52 362.921 77.62C363.048 77.7133 363.208 77.7867 363.401 77.84C363.601 77.8933 363.821 77.94 364.061 77.98C364.301 78.0133 364.541 78.06 364.781 78.12C365.021 78.1733 365.238 78.25 365.431 78.35C365.631 78.45 365.791 78.59 365.911 78.77C366.038 78.95 366.101 79.19 366.101 79.49C366.101 79.81 366.008 80.0867 365.821 80.32C365.634 80.5533 365.371 80.7367 365.031 80.87C364.691 80.9967 364.284 81.06 363.811 81.06ZM369.121 81.06C368.587 81.06 368.174 80.9167 367.881 80.63C367.587 80.3433 367.441 79.9333 367.441 79.4V74.54H368.401V79.36C368.401 79.6467 368.471 79.8667 368.611 80.02C368.757 80.1733 368.964 80.25 369.231 80.25C369.531 80.25 369.781 80.1667 369.981 80L370.281 80.69C370.134 80.8167 369.957 80.91 369.751 80.97C369.551 81.03 369.341 81.06 369.121 81.06ZM366.541 76.49V75.7H369.921V76.49H366.541ZM373.625 81.06C373.059 81.06 372.559 80.9433 372.125 80.71C371.699 80.4767 371.365 80.1567 371.125 79.75C370.892 79.3433 370.775 78.8767 370.775 78.35C370.775 77.8233 370.889 77.3567 371.115 76.95C371.349 76.5433 371.665 76.2267 372.065 76C372.472 75.7667 372.929 75.65 373.435 75.65C373.949 75.65 374.402 75.7633 374.795 75.99C375.189 76.2167 375.495 76.5367 375.715 76.95C375.942 77.3567 376.055 77.8333 376.055 78.38C376.055 78.42 376.052 78.4667 376.045 78.52C376.045 78.5733 376.042 78.6233 376.035 78.67H371.525V77.98H375.535L375.145 78.22C375.152 77.88 375.082 77.5767 374.935 77.31C374.789 77.0433 374.585 76.8367 374.325 76.69C374.072 76.5367 373.775 76.46 373.435 76.46C373.102 76.46 372.805 76.5367 372.545 76.69C372.285 76.8367 372.082 77.0467 371.935 77.32C371.789 77.5867 371.715 77.8933 371.715 78.24V78.4C371.715 78.7533 371.795 79.07 371.955 79.35C372.122 79.6233 372.352 79.8367 372.645 79.99C372.939 80.1433 373.275 80.22 373.655 80.22C373.969 80.22 374.252 80.1667 374.505 80.06C374.765 79.9533 374.992 79.7933 375.185 79.58L375.715 80.2C375.475 80.48 375.175 80.6933 374.815 80.84C374.462 80.9867 374.065 81.06 373.625 81.06ZM377.389 81V75.7H378.309V77.14L378.219 76.78C378.365 76.4133 378.612 76.1333 378.959 75.94C379.305 75.7467 379.732 75.65 380.239 75.65V76.58C380.199 76.5733 380.159 76.57 380.119 76.57C380.085 76.57 380.052 76.57 380.019 76.57C379.505 76.57 379.099 76.7233 378.799 77.03C378.499 77.3367 378.349 77.78 378.349 78.36V81H377.389ZM383.643 81.06C383.11 81.06 382.636 80.9433 382.223 80.71C381.81 80.4767 381.483 80.1567 381.243 79.75C381.003 79.3367 380.883 78.87 380.883 78.35C380.883 77.8233 381.003 77.3567 381.243 76.95C381.483 76.5433 381.81 76.2267 382.223 76C382.636 75.7667 383.11 75.65 383.643 75.65C384.17 75.65 384.64 75.7667 385.053 76C385.473 76.2267 385.8 76.5433 386.033 76.95C386.273 77.35 386.393 77.8167 386.393 78.35C386.393 78.8767 386.273 79.3433 386.033 79.75C385.8 80.1567 385.473 80.4767 385.053 80.71C384.64 80.9433 384.17 81.06 383.643 81.06ZM383.643 80.22C383.983 80.22 384.286 80.1433 384.553 79.99C384.826 79.8367 385.04 79.62 385.193 79.34C385.346 79.0533 385.423 78.7233 385.423 78.35C385.423 77.97 385.346 77.6433 385.193 77.37C385.04 77.09 384.826 76.8733 384.553 76.72C384.286 76.5667 383.983 76.49 383.643 76.49C383.303 76.49 383 76.5667 382.733 76.72C382.466 76.8733 382.253 77.09 382.093 77.37C381.933 77.6433 381.853 77.97 381.853 78.35C381.853 78.7233 381.933 79.0533 382.093 79.34C382.253 79.62 382.466 79.8367 382.733 79.99C383 80.1433 383.303 80.22 383.643 80.22ZM390.551 75.65C390.984 75.65 391.364 75.7333 391.691 75.9C392.024 76.0667 392.284 76.32 392.471 76.66C392.657 77 392.751 77.43 392.751 77.95V81H391.791V78.06C391.791 77.5467 391.664 77.16 391.411 76.9C391.164 76.64 390.814 76.51 390.361 76.51C390.021 76.51 389.724 76.5767 389.471 76.71C389.217 76.8433 389.021 77.04 388.881 77.3C388.747 77.56 388.681 77.8833 388.681 78.27V81H387.721V75.7H388.641V77.13L388.491 76.75C388.664 76.4033 388.931 76.1333 389.291 75.94C389.651 75.7467 390.071 75.65 390.551 75.65ZM396.887 81.06C396.321 81.06 395.821 80.9433 395.387 80.71C394.961 80.4767 394.627 80.1567 394.387 79.75C394.154 79.3433 394.037 78.8767 394.037 78.35C394.037 77.8233 394.151 77.3567 394.377 76.95C394.611 76.5433 394.927 76.2267 395.327 76C395.734 75.7667 396.191 75.65 396.697 75.65C397.211 75.65 397.664 75.7633 398.057 75.99C398.451 76.2167 398.757 76.5367 398.977 76.95C399.204 77.3567 399.317 77.8333 399.317 78.38C399.317 78.42 399.314 78.4667 399.307 78.52C399.307 78.5733 399.304 78.6233 399.297 78.67H394.787V77.98H398.797L398.407 78.22C398.414 77.88 398.344 77.5767 398.197 77.31C398.051 77.0433 397.847 76.8367 397.587 76.69C397.334 76.5367 397.037 76.46 396.697 76.46C396.364 76.46 396.067 76.5367 395.807 76.69C395.547 76.8367 395.344 77.0467 395.197 77.32C395.051 77.5867 394.977 77.8933 394.977 78.24V78.4C394.977 78.7533 395.057 79.07 395.217 79.35C395.384 79.6233 395.614 79.8367 395.907 79.99C396.201 80.1433 396.537 80.22 396.917 80.22C397.231 80.22 397.514 80.1667 397.767 80.06C398.027 79.9533 398.254 79.7933 398.447 79.58L398.977 80.2C398.737 80.48 398.437 80.6933 398.077 80.84C397.724 80.9867 397.327 81.06 396.887 81.06Z" fill="#112D35"/>
<path d="M164.304 29V20.74H161.056V19.2H169.372V20.74H166.124V29H164.304ZM170.392 29V21.524H172.058V23.582L171.862 22.98C172.086 22.476 172.436 22.0933 172.912 21.832C173.397 21.5707 173.999 21.44 174.718 21.44V23.106C174.643 23.0873 174.573 23.078 174.508 23.078C174.443 23.0687 174.377 23.064 174.312 23.064C173.649 23.064 173.122 23.26 172.73 23.652C172.338 24.0347 172.142 24.6087 172.142 25.374V29H170.392ZM180.275 29V27.488L180.177 27.166V24.52C180.177 24.0067 180.023 23.61 179.715 23.33C179.407 23.0407 178.941 22.896 178.315 22.896C177.895 22.896 177.48 22.9613 177.069 23.092C176.668 23.2227 176.327 23.4047 176.047 23.638L175.361 22.364C175.763 22.056 176.239 21.8273 176.789 21.678C177.349 21.5193 177.928 21.44 178.525 21.44C179.608 21.44 180.443 21.7013 181.031 22.224C181.629 22.7373 181.927 23.5353 181.927 24.618V29H180.275ZM177.923 29.098C177.363 29.098 176.873 29.0047 176.453 28.818C176.033 28.622 175.707 28.356 175.473 28.02C175.249 27.6747 175.137 27.2873 175.137 26.858C175.137 26.438 175.235 26.06 175.431 25.724C175.637 25.388 175.968 25.122 176.425 24.926C176.883 24.73 177.489 24.632 178.245 24.632H180.415V25.794H178.371C177.774 25.794 177.373 25.892 177.167 26.088C176.962 26.2747 176.859 26.508 176.859 26.788C176.859 27.1053 176.985 27.3573 177.237 27.544C177.489 27.7307 177.839 27.824 178.287 27.824C178.717 27.824 179.099 27.726 179.435 27.53C179.781 27.334 180.028 27.0447 180.177 26.662L180.471 27.712C180.303 28.1507 180 28.4913 179.561 28.734C179.132 28.9767 178.586 29.098 177.923 29.098ZM187.617 29.098C186.833 29.098 186.133 28.9347 185.517 28.608C184.91 28.272 184.434 27.8147 184.089 27.236C183.744 26.6573 183.571 25.9993 183.571 25.262C183.571 24.5153 183.744 23.8573 184.089 23.288C184.434 22.7093 184.91 22.2567 185.517 21.93C186.133 21.6033 186.833 21.44 187.617 21.44C188.345 21.44 188.984 21.5893 189.535 21.888C190.095 22.1773 190.52 22.6067 190.809 23.176L189.465 23.96C189.241 23.6053 188.966 23.344 188.639 23.176C188.322 23.008 187.976 22.924 187.603 22.924C187.174 22.924 186.786 23.0173 186.441 23.204C186.096 23.3907 185.825 23.6613 185.629 24.016C185.433 24.3613 185.335 24.7767 185.335 25.262C185.335 25.7473 185.433 26.1673 185.629 26.522C185.825 26.8673 186.096 27.1333 186.441 27.32C186.786 27.5067 187.174 27.6 187.603 27.6C187.976 27.6 188.322 27.516 188.639 27.348C188.966 27.18 189.241 26.9187 189.465 26.564L190.809 27.348C190.52 27.908 190.095 28.342 189.535 28.65C188.984 28.9487 188.345 29.098 187.617 29.098ZM193.681 27.334L193.723 25.136L197.629 21.524H199.729L196.411 24.856L195.487 25.626L193.681 27.334ZM192.253 29V18.612H194.003V29H192.253ZM197.895 29L195.165 25.626L196.271 24.226L200.023 29H197.895ZM206.857 23.708H211.743V25.248H206.857V23.708ZM207.011 29H205.191V19.2H212.345V20.726H207.011V29ZM217.246 29.098C216.415 29.098 215.687 28.9347 215.062 28.608C214.446 28.272 213.965 27.8147 213.62 27.236C213.284 26.6573 213.116 25.9993 213.116 25.262C213.116 24.5153 213.279 23.8573 213.606 23.288C213.942 22.7093 214.399 22.2567 214.978 21.93C215.566 21.6033 216.233 21.44 216.98 21.44C217.708 21.44 218.357 21.5987 218.926 21.916C219.495 22.2333 219.943 22.6813 220.27 23.26C220.597 23.8387 220.76 24.52 220.76 25.304C220.76 25.3787 220.755 25.4627 220.746 25.556C220.746 25.6493 220.741 25.738 220.732 25.822H214.502V24.66H219.808L219.122 25.024C219.131 24.5947 219.043 24.2167 218.856 23.89C218.669 23.5633 218.413 23.3067 218.086 23.12C217.769 22.9333 217.4 22.84 216.98 22.84C216.551 22.84 216.173 22.9333 215.846 23.12C215.529 23.3067 215.277 23.568 215.09 23.904C214.913 24.2307 214.824 24.618 214.824 25.066V25.346C214.824 25.794 214.927 26.1907 215.132 26.536C215.337 26.8813 215.627 27.1473 216 27.334C216.373 27.5207 216.803 27.614 217.288 27.614C217.708 27.614 218.086 27.5487 218.422 27.418C218.758 27.2873 219.057 27.082 219.318 26.802L220.256 27.88C219.92 28.272 219.495 28.5753 218.982 28.79C218.478 28.9953 217.899 29.098 217.246 29.098ZM222.441 29V21.524H224.107V23.582L223.911 22.98C224.135 22.476 224.485 22.0933 224.961 21.832C225.446 21.5707 226.048 21.44 226.767 21.44V23.106C226.692 23.0873 226.622 23.078 226.557 23.078C226.492 23.0687 226.426 23.064 226.361 23.064C225.698 23.064 225.171 23.26 224.779 23.652C224.387 24.0347 224.191 24.6087 224.191 25.374V29H222.441ZM231.339 29.098C230.518 29.098 229.883 28.888 229.435 28.468C228.987 28.0387 228.763 27.4087 228.763 26.578V19.872H230.513V26.536C230.513 26.8907 230.602 27.166 230.779 27.362C230.966 27.558 231.222 27.656 231.549 27.656C231.941 27.656 232.268 27.5533 232.529 27.348L233.019 28.594C232.814 28.762 232.562 28.888 232.263 28.972C231.964 29.056 231.656 29.098 231.339 29.098ZM227.531 22.98V21.58H232.515V22.98H227.531ZM234.459 29V21.524H236.209V29H234.459ZM235.341 20.292C235.014 20.292 234.743 20.1893 234.529 19.984C234.323 19.7787 234.221 19.5313 234.221 19.242C234.221 18.9433 234.323 18.696 234.529 18.5C234.743 18.2947 235.014 18.192 235.341 18.192C235.667 18.192 235.933 18.29 236.139 18.486C236.353 18.6727 236.461 18.9107 236.461 19.2C236.461 19.508 236.358 19.7693 236.153 19.984C235.947 20.1893 235.677 20.292 235.341 20.292ZM238.505 29V18.612H240.255V29H238.505ZM246.066 29.098C245.236 29.098 244.508 28.9347 243.882 28.608C243.266 28.272 242.786 27.8147 242.44 27.236C242.104 26.6573 241.936 25.9993 241.936 25.262C241.936 24.5153 242.1 23.8573 242.426 23.288C242.762 22.7093 243.22 22.2567 243.798 21.93C244.386 21.6033 245.054 21.44 245.8 21.44C246.528 21.44 247.177 21.5987 247.746 21.916C248.316 22.2333 248.764 22.6813 249.09 23.26C249.417 23.8387 249.58 24.52 249.58 25.304C249.58 25.3787 249.576 25.4627 249.566 25.556C249.566 25.6493 249.562 25.738 249.552 25.822H243.322V24.66H248.628L247.942 25.024C247.952 24.5947 247.863 24.2167 247.676 23.89C247.49 23.5633 247.233 23.3067 246.906 23.12C246.589 22.9333 246.22 22.84 245.8 22.84C245.371 22.84 244.993 22.9333 244.666 23.12C244.349 23.3067 244.097 23.568 243.91 23.904C243.733 24.2307 243.644 24.618 243.644 25.066V25.346C243.644 25.794 243.747 26.1907 243.952 26.536C244.158 26.8813 244.447 27.1473 244.82 27.334C245.194 27.5207 245.623 27.614 246.108 27.614C246.528 27.614 246.906 27.5487 247.242 27.418C247.578 27.2873 247.877 27.082 248.138 26.802L249.076 27.88C248.74 28.272 248.316 28.5753 247.802 28.79C247.298 28.9953 246.72 29.098 246.066 29.098ZM162.316 46V36.2H166.6C167.664 36.2 168.597 36.4053 169.4 36.816C170.203 37.2267 170.828 37.796 171.276 38.524C171.724 39.252 171.948 40.1107 171.948 41.1C171.948 42.08 171.724 42.9387 171.276 43.676C170.828 44.404 170.203 44.9733 169.4 45.384C168.597 45.7947 167.664 46 166.6 46H162.316ZM164.136 44.46H166.516C167.253 44.46 167.888 44.32 168.42 44.04C168.961 43.76 169.377 43.368 169.666 42.864C169.965 42.36 170.114 41.772 170.114 41.1C170.114 40.4187 169.965 39.8307 169.666 39.336C169.377 38.832 168.961 38.44 168.42 38.16C167.888 37.88 167.253 37.74 166.516 37.74H164.136V44.46ZM178.32 46V44.488L178.222 44.166V41.52C178.222 41.0067 178.068 40.61 177.76 40.33C177.452 40.0407 176.986 39.896 176.36 39.896C175.94 39.896 175.525 39.9613 175.114 40.092C174.713 40.2227 174.372 40.4047 174.092 40.638L173.406 39.364C173.808 39.056 174.284 38.8273 174.834 38.678C175.394 38.5193 175.973 38.44 176.57 38.44C177.653 38.44 178.488 38.7013 179.076 39.224C179.674 39.7373 179.972 40.5353 179.972 41.618V46H178.32ZM175.968 46.098C175.408 46.098 174.918 46.0047 174.498 45.818C174.078 45.622 173.752 45.356 173.518 45.02C173.294 44.6747 173.182 44.2873 173.182 43.858C173.182 43.438 173.28 43.06 173.476 42.724C173.682 42.388 174.013 42.122 174.47 41.926C174.928 41.73 175.534 41.632 176.29 41.632H178.46V42.794H176.416C175.819 42.794 175.418 42.892 175.212 43.088C175.007 43.2747 174.904 43.508 174.904 43.788C174.904 44.1053 175.03 44.3573 175.282 44.544C175.534 44.7307 175.884 44.824 176.332 44.824C176.762 44.824 177.144 44.726 177.48 44.53C177.826 44.334 178.073 44.0447 178.222 43.662L178.516 44.712C178.348 45.1507 178.045 45.4913 177.606 45.734C177.177 45.9767 176.631 46.098 175.968 46.098ZM182.698 48.814C182.334 48.814 181.97 48.7533 181.606 48.632C181.242 48.5107 180.938 48.3427 180.696 48.128L181.396 46.84C181.573 46.9987 181.774 47.1247 181.998 47.218C182.222 47.3113 182.45 47.358 182.684 47.358C183.001 47.358 183.258 47.2787 183.454 47.12C183.65 46.9613 183.832 46.6953 184 46.322L184.434 45.342L184.574 45.132L187.402 38.524H189.082L185.582 46.602C185.348 47.162 185.087 47.6053 184.798 47.932C184.518 48.2587 184.2 48.4873 183.846 48.618C183.5 48.7487 183.118 48.814 182.698 48.814ZM184.238 46.266L180.864 38.524H182.684L185.428 44.978L184.238 46.266ZM192.39 46.098C191.764 46.098 191.162 46.0187 190.584 45.86C190.014 45.692 189.562 45.4913 189.226 45.258L189.898 43.928C190.234 44.1427 190.635 44.32 191.102 44.46C191.568 44.6 192.035 44.67 192.502 44.67C193.052 44.67 193.449 44.5953 193.692 44.446C193.944 44.2967 194.07 44.096 194.07 43.844C194.07 43.6387 193.986 43.4847 193.818 43.382C193.65 43.27 193.43 43.186 193.16 43.13C192.889 43.074 192.586 43.0227 192.25 42.976C191.923 42.9293 191.592 42.8687 191.256 42.794C190.929 42.71 190.63 42.5933 190.36 42.444C190.089 42.2853 189.87 42.0753 189.702 41.814C189.534 41.5527 189.45 41.2073 189.45 40.778C189.45 40.302 189.585 39.8913 189.856 39.546C190.126 39.1913 190.504 38.9207 190.99 38.734C191.484 38.538 192.068 38.44 192.74 38.44C193.244 38.44 193.752 38.496 194.266 38.608C194.779 38.72 195.204 38.8787 195.54 39.084L194.868 40.414C194.513 40.1993 194.154 40.0547 193.79 39.98C193.435 39.896 193.08 39.854 192.726 39.854C192.194 39.854 191.797 39.9333 191.536 40.092C191.284 40.2507 191.158 40.4513 191.158 40.694C191.158 40.918 191.242 41.086 191.41 41.198C191.578 41.31 191.797 41.3987 192.068 41.464C192.338 41.5293 192.637 41.5853 192.964 41.632C193.3 41.6693 193.631 41.73 193.958 41.814C194.284 41.898 194.583 42.0147 194.854 42.164C195.134 42.304 195.358 42.5047 195.526 42.766C195.694 43.0273 195.778 43.368 195.778 43.788C195.778 44.2547 195.638 44.6607 195.358 45.006C195.087 45.3513 194.7 45.622 194.196 45.818C193.692 46.0047 193.09 46.098 192.39 46.098Z" fill="#112D35"/>
<path opacity="0.5" d="M162.05 69V62H162.87L166.01 67.29H165.57L168.67 62H169.49L169.5 69H168.54L168.53 63.51H168.76L166 68.15H165.54L162.76 63.51H163.01V69H162.05ZM173.821 69.06C173.254 69.06 172.754 68.9433 172.321 68.71C171.894 68.4767 171.561 68.1567 171.321 67.75C171.087 67.3433 170.971 66.8767 170.971 66.35C170.971 65.8233 171.084 65.3567 171.311 64.95C171.544 64.5433 171.861 64.2267 172.261 64C172.667 63.7667 173.124 63.65 173.631 63.65C174.144 63.65 174.597 63.7633 174.991 63.99C175.384 64.2167 175.691 64.5367 175.911 64.95C176.137 65.3567 176.251 65.8333 176.251 66.38C176.251 66.42 176.247 66.4667 176.241 66.52C176.241 66.5733 176.237 66.6233 176.231 66.67H171.721V65.98H175.731L175.341 66.22C175.347 65.88 175.277 65.5767 175.131 65.31C174.984 65.0433 174.781 64.8367 174.521 64.69C174.267 64.5367 173.971 64.46 173.631 64.46C173.297 64.46 173.001 64.5367 172.741 64.69C172.481 64.8367 172.277 65.0467 172.131 65.32C171.984 65.5867 171.911 65.8933 171.911 66.24V66.4C171.911 66.7533 171.991 67.07 172.151 67.35C172.317 67.6233 172.547 67.8367 172.841 67.99C173.134 68.1433 173.471 68.22 173.851 68.22C174.164 68.22 174.447 68.1667 174.701 68.06C174.961 67.9533 175.187 67.7933 175.381 67.58L175.911 68.2C175.671 68.48 175.371 68.6933 175.011 68.84C174.657 68.9867 174.261 69.06 173.821 69.06ZM180.727 69V67.88L180.677 67.67V65.76C180.677 65.3533 180.557 65.04 180.317 64.82C180.084 64.5933 179.731 64.48 179.257 64.48C178.944 64.48 178.637 64.5333 178.337 64.64C178.037 64.74 177.784 64.8767 177.577 65.05L177.177 64.33C177.451 64.11 177.777 63.9433 178.157 63.83C178.544 63.71 178.947 63.65 179.367 63.65C180.094 63.65 180.654 63.8267 181.047 64.18C181.441 64.5333 181.637 65.0733 181.637 65.8V69H180.727ZM178.987 69.06C178.594 69.06 178.247 68.9933 177.947 68.86C177.654 68.7267 177.427 68.5433 177.267 68.31C177.107 68.07 177.027 67.8 177.027 67.5C177.027 67.2133 177.094 66.9533 177.227 66.72C177.367 66.4867 177.591 66.3 177.897 66.16C178.211 66.02 178.631 65.95 179.157 65.95H180.837V66.64H179.197C178.717 66.64 178.394 66.72 178.227 66.88C178.061 67.04 177.977 67.2333 177.977 67.46C177.977 67.72 178.081 67.93 178.287 68.09C178.494 68.2433 178.781 68.32 179.147 68.32C179.507 68.32 179.821 68.24 180.087 68.08C180.361 67.92 180.557 67.6867 180.677 67.38L180.867 68.04C180.741 68.3533 180.517 68.6033 180.197 68.79C179.877 68.97 179.474 69.06 178.987 69.06ZM184.934 69.06C184.494 69.06 184.074 69 183.674 68.88C183.281 68.76 182.971 68.6133 182.744 68.44L183.144 67.68C183.371 67.8333 183.651 67.9633 183.984 68.07C184.317 68.1767 184.657 68.23 185.004 68.23C185.451 68.23 185.771 68.1667 185.964 68.04C186.164 67.9133 186.264 67.7367 186.264 67.51C186.264 67.3433 186.204 67.2133 186.084 67.12C185.964 67.0267 185.804 66.9567 185.604 66.91C185.411 66.8633 185.194 66.8233 184.954 66.79C184.714 66.75 184.474 66.7033 184.234 66.65C183.994 66.59 183.774 66.51 183.574 66.41C183.374 66.3033 183.214 66.16 183.094 65.98C182.974 65.7933 182.914 65.5467 182.914 65.24C182.914 64.92 183.004 64.64 183.184 64.4C183.364 64.16 183.617 63.9767 183.944 63.85C184.277 63.7167 184.671 63.65 185.124 63.65C185.471 63.65 185.821 63.6933 186.174 63.78C186.534 63.86 186.827 63.9767 187.054 64.13L186.644 64.89C186.404 64.73 186.154 64.62 185.894 64.56C185.634 64.5 185.374 64.47 185.114 64.47C184.694 64.47 184.381 64.54 184.174 64.68C183.967 64.8133 183.864 64.9867 183.864 65.2C183.864 65.38 183.924 65.52 184.044 65.62C184.171 65.7133 184.331 65.7867 184.524 65.84C184.724 65.8933 184.944 65.94 185.184 65.98C185.424 66.0133 185.664 66.06 185.904 66.12C186.144 66.1733 186.361 66.25 186.554 66.35C186.754 66.45 186.914 66.59 187.034 66.77C187.161 66.95 187.224 67.19 187.224 67.49C187.224 67.81 187.131 68.0867 186.944 68.32C186.757 68.5533 186.494 68.7367 186.154 68.87C185.814 68.9967 185.407 69.06 184.934 69.06ZM190.654 69.06C190.2 69.06 189.8 68.9767 189.454 68.81C189.114 68.6433 188.847 68.39 188.654 68.05C188.467 67.7033 188.374 67.27 188.374 66.75V63.7H189.334V66.64C189.334 67.16 189.457 67.55 189.704 67.81C189.957 68.07 190.31 68.2 190.764 68.2C191.097 68.2 191.387 68.1333 191.634 68C191.88 67.86 192.07 67.66 192.204 67.4C192.337 67.1333 192.404 66.8133 192.404 66.44V63.7H193.364V69H192.454V67.57L192.604 67.95C192.43 68.3033 192.17 68.5767 191.824 68.77C191.477 68.9633 191.087 69.06 190.654 69.06ZM195.191 69V63.7H196.111V65.14L196.021 64.78C196.168 64.4133 196.415 64.1333 196.761 63.94C197.108 63.7467 197.535 63.65 198.041 63.65V64.58C198.001 64.5733 197.961 64.57 197.921 64.57C197.888 64.57 197.855 64.57 197.821 64.57C197.308 64.57 196.901 64.7233 196.601 65.03C196.301 65.3367 196.151 65.78 196.151 66.36V69H195.191ZM201.536 69.06C200.969 69.06 200.469 68.9433 200.036 68.71C199.609 68.4767 199.276 68.1567 199.036 67.75C198.802 67.3433 198.686 66.8767 198.686 66.35C198.686 65.8233 198.799 65.3567 199.026 64.95C199.259 64.5433 199.576 64.2267 199.976 64C200.382 63.7667 200.839 63.65 201.346 63.65C201.859 63.65 202.312 63.7633 202.706 63.99C203.099 64.2167 203.406 64.5367 203.626 64.95C203.852 65.3567 203.966 65.8333 203.966 66.38C203.966 66.42 203.962 66.4667 203.956 66.52C203.956 66.5733 203.952 66.6233 203.946 66.67H199.436V65.98H203.446L203.056 66.22C203.062 65.88 202.992 65.5767 202.846 65.31C202.699 65.0433 202.496 64.8367 202.236 64.69C201.982 64.5367 201.686 64.46 201.346 64.46C201.012 64.46 200.716 64.5367 200.456 64.69C200.196 64.8367 199.992 65.0467 199.846 65.32C199.699 65.5867 199.626 65.8933 199.626 66.24V66.4C199.626 66.7533 199.706 67.07 199.866 67.35C200.032 67.6233 200.262 67.8367 200.556 67.99C200.849 68.1433 201.186 68.22 201.566 68.22C201.879 68.22 202.162 68.1667 202.416 68.06C202.676 67.9533 202.902 67.7933 203.096 67.58L203.626 68.2C203.386 68.48 203.086 68.6933 202.726 68.84C202.372 68.9867 201.976 69.06 201.536 69.06ZM206.819 69.06C206.379 69.06 205.959 69 205.559 68.88C205.165 68.76 204.855 68.6133 204.629 68.44L205.029 67.68C205.255 67.8333 205.535 67.9633 205.869 68.07C206.202 68.1767 206.542 68.23 206.889 68.23C207.335 68.23 207.655 68.1667 207.849 68.04C208.049 67.9133 208.149 67.7367 208.149 67.51C208.149 67.3433 208.089 67.2133 207.969 67.12C207.849 67.0267 207.689 66.9567 207.489 66.91C207.295 66.8633 207.079 66.8233 206.839 66.79C206.599 66.75 206.359 66.7033 206.119 66.65C205.879 66.59 205.659 66.51 205.459 66.41C205.259 66.3033 205.099 66.16 204.979 65.98C204.859 65.7933 204.799 65.5467 204.799 65.24C204.799 64.92 204.889 64.64 205.069 64.4C205.249 64.16 205.502 63.9767 205.829 63.85C206.162 63.7167 206.555 63.65 207.009 63.65C207.355 63.65 207.705 63.6933 208.059 63.78C208.419 63.86 208.712 63.9767 208.939 64.13L208.529 64.89C208.289 64.73 208.039 64.62 207.779 64.56C207.519 64.5 207.259 64.47 206.999 64.47C206.579 64.47 206.265 64.54 206.059 64.68C205.852 64.8133 205.749 64.9867 205.749 65.2C205.749 65.38 205.809 65.52 205.929 65.62C206.055 65.7133 206.215 65.7867 206.409 65.84C206.609 65.8933 206.829 65.94 207.069 65.98C207.309 66.0133 207.549 66.06 207.789 66.12C208.029 66.1733 208.245 66.25 208.439 66.35C208.639 66.45 208.799 66.59 208.919 66.77C209.045 66.95 209.109 67.19 209.109 67.49C209.109 67.81 209.015 68.0867 208.829 68.32C208.642 68.5533 208.379 68.7367 208.039 68.87C207.699 68.9967 207.292 69.06 206.819 69.06ZM213.134 69V62H214.134V68.13H217.924V69H213.134ZM224.091 62H225.091V69H224.091V62ZM220.071 69H219.071V62H220.071V69ZM224.181 65.88H219.971V65.01H224.181V65.88ZM163.49 79.69V75.31H164.33V79.69H163.49ZM161.67 77.9V77.11H166.15V77.9H161.67ZM171.466 77.02H175.066V77.87H171.466V77.02ZM171.556 80.13H175.636V81H170.556V74H175.496V74.87H171.556V80.13ZM178.567 81.06C178.127 81.06 177.707 81 177.307 80.88C176.913 80.76 176.603 80.6133 176.377 80.44L176.777 79.68C177.003 79.8333 177.283 79.9633 177.617 80.07C177.95 80.1767 178.29 80.23 178.637 80.23C179.083 80.23 179.403 80.1667 179.597 80.04C179.797 79.9133 179.897 79.7367 179.897 79.51C179.897 79.3433 179.837 79.2133 179.717 79.12C179.597 79.0267 179.437 78.9567 179.237 78.91C179.043 78.8633 178.827 78.8233 178.587 78.79C178.347 78.75 178.107 78.7033 177.867 78.65C177.627 78.59 177.407 78.51 177.207 78.41C177.007 78.3033 176.847 78.16 176.727 77.98C176.607 77.7933 176.547 77.5467 176.547 77.24C176.547 76.92 176.637 76.64 176.817 76.4C176.997 76.16 177.25 75.9767 177.577 75.85C177.91 75.7167 178.303 75.65 178.757 75.65C179.103 75.65 179.453 75.6933 179.807 75.78C180.167 75.86 180.46 75.9767 180.687 76.13L180.277 76.89C180.037 76.73 179.787 76.62 179.527 76.56C179.267 76.5 179.007 76.47 178.747 76.47C178.327 76.47 178.013 76.54 177.807 76.68C177.6 76.8133 177.497 76.9867 177.497 77.2C177.497 77.38 177.557 77.52 177.677 77.62C177.803 77.7133 177.963 77.7867 178.157 77.84C178.357 77.8933 178.577 77.94 178.817 77.98C179.057 78.0133 179.297 78.06 179.537 78.12C179.777 78.1733 179.993 78.25 180.187 78.35C180.387 78.45 180.547 78.59 180.667 78.77C180.793 78.95 180.857 79.19 180.857 79.49C180.857 79.81 180.763 80.0867 180.577 80.32C180.39 80.5533 180.127 80.7367 179.787 80.87C179.447 80.9967 179.04 81.06 178.567 81.06ZM183.876 81.06C183.343 81.06 182.93 80.9167 182.636 80.63C182.343 80.3433 182.196 79.9333 182.196 79.4V74.54H183.156V79.36C183.156 79.6467 183.226 79.8667 183.366 80.02C183.513 80.1733 183.72 80.25 183.986 80.25C184.286 80.25 184.536 80.1667 184.736 80L185.036 80.69C184.89 80.8167 184.713 80.91 184.506 80.97C184.306 81.03 184.096 81.06 183.876 81.06ZM181.296 76.49V75.7H184.676V76.49H181.296ZM186.197 81V75.7H187.117V77.14L187.027 76.78C187.174 76.4133 187.42 76.1333 187.767 75.94C188.114 75.7467 188.54 75.65 189.047 75.65V76.58C189.007 76.5733 188.967 76.57 188.927 76.57C188.894 76.57 188.86 76.57 188.827 76.57C188.314 76.57 187.907 76.7233 187.607 77.03C187.307 77.3367 187.157 77.78 187.157 78.36V81H186.197ZM192.451 81.06C191.918 81.06 191.445 80.9433 191.031 80.71C190.618 80.4767 190.291 80.1567 190.051 79.75C189.811 79.3367 189.691 78.87 189.691 78.35C189.691 77.8233 189.811 77.3567 190.051 76.95C190.291 76.5433 190.618 76.2267 191.031 76C191.445 75.7667 191.918 75.65 192.451 75.65C192.978 75.65 193.448 75.7667 193.861 76C194.281 76.2267 194.608 76.5433 194.841 76.95C195.081 77.35 195.201 77.8167 195.201 78.35C195.201 78.8767 195.081 79.3433 194.841 79.75C194.608 80.1567 194.281 80.4767 193.861 80.71C193.448 80.9433 192.978 81.06 192.451 81.06ZM192.451 80.22C192.791 80.22 193.095 80.1433 193.361 79.99C193.635 79.8367 193.848 79.62 194.001 79.34C194.155 79.0533 194.231 78.7233 194.231 78.35C194.231 77.97 194.155 77.6433 194.001 77.37C193.848 77.09 193.635 76.8733 193.361 76.72C193.095 76.5667 192.791 76.49 192.451 76.49C192.111 76.49 191.808 76.5667 191.541 76.72C191.275 76.8733 191.061 77.09 190.901 77.37C190.741 77.6433 190.661 77.97 190.661 78.35C190.661 78.7233 190.741 79.0533 190.901 79.34C191.061 79.62 191.275 79.8367 191.541 79.99C191.808 80.1433 192.111 80.22 192.451 80.22ZM198.849 83C198.362 83 197.889 82.93 197.429 82.79C196.976 82.6567 196.606 82.4633 196.319 82.21L196.779 81.47C197.026 81.6833 197.329 81.85 197.689 81.97C198.049 82.0967 198.426 82.16 198.819 82.16C199.446 82.16 199.906 82.0133 200.199 81.72C200.492 81.4267 200.639 80.98 200.639 80.38V79.26L200.739 78.21L200.689 77.15V75.7H201.599V80.28C201.599 81.2133 201.366 81.9 200.899 82.34C200.432 82.78 199.749 83 198.849 83ZM198.729 80.78C198.216 80.78 197.756 80.6733 197.349 80.46C196.949 80.24 196.629 79.9367 196.389 79.55C196.156 79.1633 196.039 78.7167 196.039 78.21C196.039 77.6967 196.156 77.25 196.389 76.87C196.629 76.4833 196.949 76.1833 197.349 75.97C197.756 75.7567 198.216 75.65 198.729 75.65C199.182 75.65 199.596 75.7433 199.969 75.93C200.342 76.11 200.639 76.39 200.859 76.77C201.086 77.15 201.199 77.63 201.199 78.21C201.199 78.7833 201.086 79.26 200.859 79.64C200.639 80.02 200.342 80.3067 199.969 80.5C199.596 80.6867 199.182 80.78 198.729 80.78ZM198.839 79.94C199.192 79.94 199.506 79.8667 199.779 79.72C200.052 79.5733 200.266 79.37 200.419 79.11C200.579 78.85 200.659 78.55 200.659 78.21C200.659 77.87 200.579 77.57 200.419 77.31C200.266 77.05 200.052 76.85 199.779 76.71C199.506 76.5633 199.192 76.49 198.839 76.49C198.486 76.49 198.169 76.5633 197.889 76.71C197.616 76.85 197.399 77.05 197.239 77.31C197.086 77.57 197.009 77.87 197.009 78.21C197.009 78.55 197.086 78.85 197.239 79.11C197.399 79.37 197.616 79.5733 197.889 79.72C198.169 79.8667 198.486 79.94 198.839 79.94ZM205.793 81.06C205.227 81.06 204.727 80.9433 204.293 80.71C203.867 80.4767 203.533 80.1567 203.293 79.75C203.06 79.3433 202.943 78.8767 202.943 78.35C202.943 77.8233 203.057 77.3567 203.283 76.95C203.517 76.5433 203.833 76.2267 204.233 76C204.64 75.7667 205.097 75.65 205.603 75.65C206.117 75.65 206.57 75.7633 206.963 75.99C207.357 76.2167 207.663 76.5367 207.883 76.95C208.11 77.3567 208.223 77.8333 208.223 78.38C208.223 78.42 208.22 78.4667 208.213 78.52C208.213 78.5733 208.21 78.6233 208.203 78.67H203.693V77.98H207.703L207.313 78.22C207.32 77.88 207.25 77.5767 207.103 77.31C206.957 77.0433 206.753 76.8367 206.493 76.69C206.24 76.5367 205.943 76.46 205.603 76.46C205.27 76.46 204.973 76.5367 204.713 76.69C204.453 76.8367 204.25 77.0467 204.103 77.32C203.957 77.5867 203.883 77.8933 203.883 78.24V78.4C203.883 78.7533 203.963 79.07 204.123 79.35C204.29 79.6233 204.52 79.8367 204.813 79.99C205.107 80.1433 205.443 80.22 205.823 80.22C206.137 80.22 206.42 80.1667 206.673 80.06C206.933 79.9533 207.16 79.7933 207.353 79.58L207.883 80.2C207.643 80.48 207.343 80.6933 206.983 80.84C206.63 80.9867 206.233 81.06 205.793 81.06ZM212.386 75.65C212.82 75.65 213.2 75.7333 213.526 75.9C213.86 76.0667 214.12 76.32 214.306 76.66C214.493 77 214.586 77.43 214.586 77.95V81H213.626V78.06C213.626 77.5467 213.5 77.16 213.246 76.9C213 76.64 212.65 76.51 212.196 76.51C211.856 76.51 211.56 76.5767 211.306 76.71C211.053 76.8433 210.856 77.04 210.716 77.3C210.583 77.56 210.516 77.8833 210.516 78.27V81H209.556V75.7H210.476V77.13L210.326 76.75C210.5 76.4033 210.766 76.1333 211.126 75.94C211.486 75.7467 211.906 75.65 212.386 75.65Z" fill="#112D35"/>
<path d="M336.852 29.14C336.105 29.14 335.41 29.0187 334.766 28.776C334.131 28.524 333.576 28.174 333.1 27.726C332.633 27.2687 332.269 26.732 332.008 26.116C331.747 25.5 331.616 24.828 331.616 24.1C331.616 23.372 331.747 22.7 332.008 22.084C332.269 21.468 332.638 20.936 333.114 20.488C333.59 20.0307 334.145 19.6807 334.78 19.438C335.415 19.186 336.11 19.06 336.866 19.06C337.669 19.06 338.401 19.2 339.064 19.48C339.727 19.7507 340.287 20.1567 340.744 20.698L339.568 21.804C339.213 21.4213 338.817 21.1367 338.378 20.95C337.939 20.754 337.463 20.656 336.95 20.656C336.437 20.656 335.965 20.74 335.536 20.908C335.116 21.076 334.747 21.314 334.43 21.622C334.122 21.93 333.879 22.294 333.702 22.714C333.534 23.134 333.45 23.596 333.45 24.1C333.45 24.604 333.534 25.066 333.702 25.486C333.879 25.906 334.122 26.27 334.43 26.578C334.747 26.886 335.116 27.124 335.536 27.292C335.965 27.46 336.437 27.544 336.95 27.544C337.463 27.544 337.939 27.4507 338.378 27.264C338.817 27.068 339.213 26.774 339.568 26.382L340.744 27.502C340.287 28.034 339.727 28.44 339.064 28.72C338.401 29 337.664 29.14 336.852 29.14ZM345.393 29.098C344.627 29.098 343.946 28.9347 343.349 28.608C342.751 28.272 342.28 27.8147 341.935 27.236C341.589 26.6573 341.417 25.9993 341.417 25.262C341.417 24.5153 341.589 23.8573 341.935 23.288C342.28 22.7093 342.751 22.2567 343.349 21.93C343.946 21.6033 344.627 21.44 345.393 21.44C346.167 21.44 346.853 21.6033 347.451 21.93C348.057 22.2567 348.529 22.7047 348.865 23.274C349.21 23.8433 349.383 24.506 349.383 25.262C349.383 25.9993 349.21 26.6573 348.865 27.236C348.529 27.8147 348.057 28.272 347.451 28.608C346.853 28.9347 346.167 29.098 345.393 29.098ZM345.393 27.6C345.822 27.6 346.205 27.5067 346.541 27.32C346.877 27.1333 347.138 26.8627 347.325 26.508C347.521 26.1533 347.619 25.738 347.619 25.262C347.619 24.7767 347.521 24.3613 347.325 24.016C347.138 23.6613 346.877 23.3907 346.541 23.204C346.205 23.0173 345.827 22.924 345.407 22.924C344.977 22.924 344.595 23.0173 344.259 23.204C343.932 23.3907 343.671 23.6613 343.475 24.016C343.279 24.3613 343.181 24.7767 343.181 25.262C343.181 25.738 343.279 26.1533 343.475 26.508C343.671 26.8627 343.932 27.1333 344.259 27.32C344.595 27.5067 344.973 27.6 345.393 27.6ZM355.298 21.44C355.896 21.44 356.428 21.5567 356.894 21.79C357.37 22.0233 357.744 22.3827 358.014 22.868C358.285 23.344 358.42 23.96 358.42 24.716V29H356.67V24.94C356.67 24.2773 356.512 23.7827 356.194 23.456C355.886 23.1293 355.452 22.966 354.892 22.966C354.482 22.966 354.118 23.05 353.8 23.218C353.483 23.386 353.236 23.638 353.058 23.974C352.89 24.3007 352.806 24.716 352.806 25.22V29H351.056V21.524H352.722V23.54L352.428 22.924C352.69 22.448 353.068 22.084 353.562 21.832C354.066 21.5707 354.645 21.44 355.298 21.44ZM360.878 29V21.104C360.878 20.32 361.107 19.6947 361.564 19.228C362.031 18.752 362.694 18.514 363.552 18.514C363.86 18.514 364.15 18.5467 364.42 18.612C364.7 18.6773 364.934 18.78 365.12 18.92L364.644 20.236C364.514 20.1333 364.364 20.0587 364.196 20.012C364.028 19.956 363.856 19.928 363.678 19.928C363.314 19.928 363.039 20.0307 362.852 20.236C362.666 20.432 362.572 20.7307 362.572 21.132V21.972L362.628 22.756V29H360.878ZM359.646 22.98V21.58H364.63V22.98H359.646ZM365.849 29V21.524H367.599V29H365.849ZM366.731 20.292C366.405 20.292 366.134 20.1893 365.919 19.984C365.714 19.7787 365.611 19.5313 365.611 19.242C365.611 18.9433 365.714 18.696 365.919 18.5C366.134 18.2947 366.405 18.192 366.731 18.192C367.058 18.192 367.324 18.29 367.529 18.486C367.744 18.6727 367.851 18.9107 367.851 19.2C367.851 19.508 367.749 19.7693 367.543 19.984C367.338 20.1893 367.067 20.292 366.731 20.292ZM369.896 29V21.524H371.562V23.582L371.366 22.98C371.59 22.476 371.94 22.0933 372.416 21.832C372.901 21.5707 373.503 21.44 374.222 21.44V23.106C374.147 23.0873 374.077 23.078 374.012 23.078C373.947 23.0687 373.881 23.064 373.816 23.064C373.153 23.064 372.626 23.26 372.234 23.652C371.842 24.0347 371.646 24.6087 371.646 25.374V29L369.896 29ZM385.143 21.44C385.74 21.44 386.267 21.5567 386.725 21.79C387.191 22.0233 387.555 22.3827 387.817 22.868C388.078 23.344 388.209 23.96 388.209 24.716V29H386.459V24.94C386.459 24.2773 386.314 23.7827 386.025 23.456C385.735 23.1293 385.32 22.966 384.779 22.966C384.396 22.966 384.055 23.05 383.757 23.218C383.467 23.386 383.239 23.6333 383.071 23.96C382.912 24.2867 382.833 24.702 382.833 25.206V29H381.083V24.94C381.083 24.2773 380.938 23.7827 380.649 23.456C380.359 23.1293 379.944 22.966 379.403 22.966C379.02 22.966 378.679 23.05 378.381 23.218C378.091 23.386 377.863 23.6333 377.695 23.96C377.536 24.2867 377.457 24.702 377.457 25.206V29H375.707V21.524H377.373V23.512L377.079 22.924C377.331 22.4387 377.695 22.07 378.171 21.818C378.656 21.566 379.207 21.44 379.823 21.44C380.523 21.44 381.129 21.6127 381.643 21.958C382.165 22.3033 382.511 22.826 382.679 23.526L381.993 23.288C382.235 22.728 382.637 22.28 383.197 21.944C383.757 21.608 384.405 21.44 385.143 21.44ZM336.908 46.14C336.143 46.14 335.438 46.014 334.794 45.762C334.15 45.51 333.59 45.16 333.114 44.712C332.638 44.2547 332.269 43.7227 332.008 43.116C331.747 42.5 331.616 41.828 331.616 41.1C331.616 40.372 331.747 39.7047 332.008 39.098C332.269 38.482 332.638 37.95 333.114 37.502C333.59 37.0447 334.15 36.69 334.794 36.438C335.438 36.186 336.138 36.06 336.894 36.06C337.659 36.06 338.359 36.186 338.994 36.438C339.638 36.69 340.198 37.0447 340.674 37.502C341.15 37.95 341.519 38.482 341.78 39.098C342.041 39.7047 342.172 40.372 342.172 41.1C342.172 41.828 342.041 42.5 341.78 43.116C341.519 43.732 341.15 44.264 340.674 44.712C340.198 45.16 339.638 45.51 338.994 45.762C338.359 46.014 337.664 46.14 336.908 46.14ZM336.894 44.544C337.389 44.544 337.846 44.46 338.266 44.292C338.686 44.124 339.05 43.886 339.358 43.578C339.666 43.2607 339.904 42.8967 340.072 42.486C340.249 42.066 340.338 41.604 340.338 41.1C340.338 40.596 340.249 40.1387 340.072 39.728C339.904 39.308 339.666 38.944 339.358 38.636C339.05 38.3187 338.686 38.076 338.266 37.908C337.846 37.74 337.389 37.656 336.894 37.656C336.399 37.656 335.942 37.74 335.522 37.908C335.111 38.076 334.747 38.3187 334.43 38.636C334.122 38.944 333.879 39.308 333.702 39.728C333.534 40.1387 333.45 40.596 333.45 41.1C333.45 41.5947 333.534 42.052 333.702 42.472C333.879 42.892 334.122 43.2607 334.43 43.578C334.738 43.886 335.102 44.124 335.522 44.292C335.942 44.46 336.399 44.544 336.894 44.544ZM345.921 46L342.715 38.524H344.535L347.293 45.118H346.397L349.253 38.524H350.933L347.727 46H345.921ZM355.191 46.098C354.556 46.098 353.996 45.9813 353.511 45.748C353.026 45.5053 352.648 45.1413 352.377 44.656C352.106 44.1613 351.971 43.5407 351.971 42.794V38.524L353.721 38.524V42.556C353.721 43.228 353.87 43.732 354.169 44.068C354.477 44.3947 354.911 44.558 355.471 44.558C355.882 44.558 356.236 44.474 356.535 44.306C356.843 44.138 357.081 43.886 357.249 43.55C357.426 43.214 357.515 42.7987 357.515 42.304V38.524H359.265V46H357.599V43.984L357.893 44.6C357.641 45.0853 357.272 45.4587 356.787 45.72C356.302 45.972 355.77 46.098 355.191 46.098ZM361.556 46V35.612H363.306V46H361.556ZM370.209 46V44.488L370.111 44.166V41.52C370.111 41.0067 369.957 40.61 369.649 40.33C369.341 40.0407 368.874 39.896 368.249 39.896C367.829 39.896 367.414 39.9613 367.003 40.092C366.602 40.2227 366.261 40.4047 365.981 40.638L365.295 39.364C365.696 39.056 366.172 38.8273 366.723 38.678C367.283 38.5193 367.862 38.44 368.459 38.44C369.542 38.44 370.377 38.7013 370.965 39.224C371.562 39.7373 371.861 40.5353 371.861 41.618V46H370.209ZM367.857 46.098C367.297 46.098 366.807 46.0047 366.387 45.818C365.967 45.622 365.64 45.356 365.407 45.02C365.183 44.6747 365.071 44.2873 365.071 43.858C365.071 43.438 365.169 43.06 365.365 42.724C365.57 42.388 365.902 42.122 366.359 41.926C366.816 41.73 367.423 41.632 368.179 41.632H370.349V42.794H368.305C367.708 42.794 367.306 42.892 367.101 43.088C366.896 43.2747 366.793 43.508 366.793 43.788C366.793 44.1053 366.919 44.3573 367.171 44.544C367.423 44.7307 367.773 44.824 368.221 44.824C368.65 44.824 369.033 44.726 369.369 44.53C369.714 44.334 369.962 44.0447 370.111 43.662L370.405 44.712C370.237 45.1507 369.934 45.4913 369.495 45.734C369.066 45.9767 368.52 46.098 367.857 46.098ZM376.921 46.098C376.1 46.098 375.465 45.888 375.017 45.468C374.569 45.0387 374.345 44.4087 374.345 43.578V36.872H376.095V43.536C376.095 43.8907 376.184 44.166 376.361 44.362C376.548 44.558 376.804 44.656 377.131 44.656C377.523 44.656 377.85 44.5533 378.111 44.348L378.601 45.594C378.396 45.762 378.144 45.888 377.845 45.972C377.546 46.056 377.238 46.098 376.921 46.098ZM373.113 39.98V38.58H378.097V39.98H373.113ZM380.041 46V38.524H381.791V46H380.041ZM380.923 37.292C380.596 37.292 380.325 37.1893 380.111 36.984C379.905 36.7787 379.803 36.5313 379.803 36.242C379.803 35.9433 379.905 35.696 380.111 35.5C380.325 35.2947 380.596 35.192 380.923 35.192C381.249 35.192 381.515 35.29 381.721 35.486C381.935 35.6727 382.043 35.9107 382.043 36.2C382.043 36.508 381.94 36.7693 381.735 36.984C381.529 37.1893 381.259 37.292 380.923 37.292ZM387.447 46.098C386.682 46.098 386.001 45.9347 385.403 45.608C384.806 45.272 384.335 44.8147 383.989 44.236C383.644 43.6573 383.471 42.9993 383.471 42.262C383.471 41.5153 383.644 40.8573 383.989 40.288C384.335 39.7093 384.806 39.2567 385.403 38.93C386.001 38.6033 386.682 38.44 387.447 38.44C388.222 38.44 388.908 38.6033 389.505 38.93C390.112 39.2567 390.583 39.7047 390.919 40.274C391.265 40.8433 391.437 41.506 391.437 42.262C391.437 42.9993 391.265 43.6573 390.919 44.236C390.583 44.8147 390.112 45.272 389.505 45.608C388.908 45.9347 388.222 46.098 387.447 46.098ZM387.447 44.6C387.877 44.6 388.259 44.5067 388.595 44.32C388.931 44.1333 389.193 43.8627 389.379 43.508C389.575 43.1533 389.673 42.738 389.673 42.262C389.673 41.7767 389.575 41.3613 389.379 41.016C389.193 40.6613 388.931 40.3907 388.595 40.204C388.259 40.0173 387.881 39.924 387.461 39.924C387.032 39.924 386.649 40.0173 386.313 40.204C385.987 40.3907 385.725 40.6613 385.529 41.016C385.333 41.3613 385.235 41.7767 385.235 42.262C385.235 42.738 385.333 43.1533 385.529 43.508C385.725 43.8627 385.987 44.1333 386.313 44.32C386.649 44.5067 387.027 44.6 387.447 44.6ZM397.353 38.44C397.95 38.44 398.482 38.5567 398.949 38.79C399.425 39.0233 399.798 39.3827 400.069 39.868C400.34 40.344 400.475 40.96 400.475 41.716V46H398.725V41.94C398.725 41.2773 398.566 40.7827 398.249 40.456C397.941 40.1293 397.507 39.966 396.947 39.966C396.536 39.966 396.172 40.05 395.855 40.218C395.538 40.386 395.29 40.638 395.113 40.974C394.945 41.3007 394.861 41.716 394.861 42.22V46H393.111V38.524H394.777V40.54L394.483 39.924C394.744 39.448 395.122 39.084 395.617 38.832C396.121 38.5707 396.7 38.44 397.353 38.44Z" fill="#112D35"/>
<path opacity="0.4" d="M321.034 390V382.3H324.4C325.236 382.3 325.969 382.461 326.6 382.784C327.231 383.107 327.722 383.554 328.074 384.126C328.426 384.698 328.602 385.373 328.602 386.15C328.602 386.92 328.426 387.595 328.074 388.174C327.722 388.746 327.231 389.193 326.6 389.516C325.969 389.839 325.236 390 324.4 390H321.034ZM322.464 388.79H324.334C324.913 388.79 325.412 388.68 325.83 388.46C326.255 388.24 326.582 387.932 326.809 387.536C327.044 387.14 327.161 386.678 327.161 386.15C327.161 385.615 327.044 385.153 326.809 384.764C326.582 384.368 326.255 384.06 325.83 383.84C325.412 383.62 324.913 383.51 324.334 383.51H322.464V388.79ZM333.609 390V388.812L333.532 388.559V386.48C333.532 386.077 333.411 385.765 333.169 385.545C332.927 385.318 332.56 385.204 332.069 385.204C331.739 385.204 331.413 385.255 331.09 385.358C330.775 385.461 330.507 385.604 330.287 385.787L329.748 384.786C330.063 384.544 330.437 384.364 330.87 384.247C331.31 384.122 331.765 384.06 332.234 384.06C333.085 384.06 333.741 384.265 334.203 384.676C334.672 385.079 334.907 385.706 334.907 386.557V390H333.609ZM331.761 390.077C331.321 390.077 330.936 390.004 330.606 389.857C330.276 389.703 330.019 389.494 329.836 389.23C329.66 388.959 329.572 388.654 329.572 388.317C329.572 387.987 329.649 387.69 329.803 387.426C329.964 387.162 330.225 386.953 330.584 386.799C330.943 386.645 331.42 386.568 332.014 386.568H333.719V387.481H332.113C331.644 387.481 331.328 387.558 331.167 387.712C331.006 387.859 330.925 388.042 330.925 388.262C330.925 388.511 331.024 388.709 331.222 388.856C331.42 389.003 331.695 389.076 332.047 389.076C332.384 389.076 332.685 388.999 332.949 388.845C333.22 388.691 333.415 388.464 333.532 388.163L333.763 388.988C333.631 389.333 333.393 389.6 333.048 389.791C332.711 389.982 332.282 390.077 331.761 390.077ZM337.048 392.211C336.762 392.211 336.476 392.163 336.19 392.068C335.904 391.973 335.666 391.841 335.475 391.672L336.025 390.66C336.164 390.785 336.322 390.884 336.498 390.957C336.674 391.03 336.854 391.067 337.037 391.067C337.286 391.067 337.488 391.005 337.642 390.88C337.796 390.755 337.939 390.546 338.071 390.253L338.412 389.483L338.522 389.318L340.744 384.126H342.064L339.314 390.473C339.131 390.913 338.925 391.261 338.698 391.518C338.478 391.775 338.229 391.954 337.95 392.057C337.679 392.16 337.378 392.211 337.048 392.211ZM338.258 390.209L335.607 384.126H337.037L339.193 389.197L338.258 390.209ZM344.663 390.077C344.172 390.077 343.699 390.015 343.244 389.89C342.797 389.758 342.441 389.6 342.177 389.417L342.705 388.372C342.969 388.541 343.285 388.68 343.651 388.79C344.018 388.9 344.385 388.955 344.751 388.955C345.184 388.955 345.496 388.896 345.686 388.779C345.884 388.662 345.983 388.504 345.983 388.306C345.983 388.145 345.917 388.024 345.785 387.943C345.653 387.855 345.481 387.789 345.268 387.745C345.056 387.701 344.817 387.661 344.553 387.624C344.297 387.587 344.036 387.54 343.772 387.481C343.516 387.415 343.281 387.323 343.068 387.206C342.856 387.081 342.683 386.916 342.551 386.711C342.419 386.506 342.353 386.234 342.353 385.897C342.353 385.523 342.46 385.2 342.672 384.929C342.885 384.65 343.182 384.438 343.563 384.291C343.952 384.137 344.41 384.06 344.938 384.06C345.334 384.06 345.734 384.104 346.137 384.192C346.541 384.28 346.874 384.405 347.138 384.566L346.61 385.611C346.332 385.442 346.049 385.329 345.763 385.27C345.485 385.204 345.206 385.171 344.927 385.171C344.509 385.171 344.198 385.233 343.992 385.358C343.794 385.483 343.695 385.64 343.695 385.831C343.695 386.007 343.761 386.139 343.893 386.227C344.025 386.315 344.198 386.385 344.41 386.436C344.623 386.487 344.858 386.531 345.114 386.568C345.378 386.597 345.639 386.645 345.895 386.711C346.152 386.777 346.387 386.869 346.599 386.986C346.819 387.096 346.995 387.254 347.127 387.459C347.259 387.664 347.325 387.932 347.325 388.262C347.325 388.629 347.215 388.948 346.995 389.219C346.783 389.49 346.478 389.703 346.082 389.857C345.686 390.004 345.213 390.077 344.663 390.077ZM353.551 390.11C353.009 390.11 352.477 390.033 351.956 389.879C351.443 389.718 351.01 389.498 350.658 389.219L351.274 388.108C351.553 388.335 351.89 388.519 352.286 388.658C352.682 388.797 353.097 388.867 353.529 388.867C354.043 388.867 354.442 388.764 354.728 388.559C355.014 388.346 355.157 388.06 355.157 387.701C355.157 387.349 355.025 387.07 354.761 386.865C354.497 386.66 354.072 386.557 353.485 386.557H352.781V385.578L354.981 382.96L355.168 383.499H351.032V382.3H356.279V383.257L354.079 385.875L353.331 385.435H353.76C354.706 385.435 355.414 385.648 355.883 386.073C356.36 386.491 356.598 387.03 356.598 387.69C356.598 388.123 356.488 388.522 356.268 388.889C356.048 389.256 355.711 389.553 355.256 389.78C354.809 390 354.241 390.11 353.551 390.11ZM360.695 387.514V386.37H363.72V387.514H360.695ZM371.179 390.11C370.483 390.11 369.885 389.963 369.386 389.67C368.888 389.369 368.506 388.937 368.242 388.372C367.978 387.807 367.846 387.111 367.846 386.282C367.846 385.402 368.004 384.658 368.319 384.049C368.642 383.44 369.086 382.978 369.65 382.663C370.222 382.348 370.879 382.19 371.619 382.19C372.008 382.19 372.378 382.23 372.73 382.311C373.09 382.392 373.394 382.516 373.643 382.685L373.115 383.763C372.903 383.624 372.672 383.528 372.422 383.477C372.18 383.418 371.924 383.389 371.652 383.389C370.926 383.389 370.351 383.613 369.925 384.06C369.5 384.507 369.287 385.167 369.287 386.04C369.287 386.179 369.291 386.344 369.298 386.535C369.306 386.718 369.331 386.905 369.375 387.096L368.935 386.612C369.067 386.311 369.247 386.062 369.474 385.864C369.709 385.659 369.984 385.505 370.299 385.402C370.622 385.299 370.97 385.248 371.344 385.248C371.85 385.248 372.301 385.347 372.697 385.545C373.093 385.736 373.409 386.011 373.643 386.37C373.878 386.722 373.995 387.136 373.995 387.613C373.995 388.119 373.871 388.559 373.621 388.933C373.372 389.307 373.035 389.597 372.609 389.802C372.184 390.007 371.707 390.11 371.179 390.11ZM371.102 388.988C371.396 388.988 371.656 388.937 371.883 388.834C372.111 388.724 372.287 388.57 372.411 388.372C372.543 388.174 372.609 387.943 372.609 387.679C372.609 387.276 372.47 386.957 372.191 386.722C371.913 386.487 371.539 386.37 371.069 386.37C370.761 386.37 370.49 386.429 370.255 386.546C370.028 386.656 369.845 386.81 369.705 387.008C369.573 387.206 369.507 387.433 369.507 387.69C369.507 387.925 369.57 388.141 369.694 388.339C369.819 388.537 369.999 388.695 370.233 388.812C370.475 388.929 370.765 388.988 371.102 388.988ZM381.82 390V388.812L381.743 388.559V386.48C381.743 386.077 381.622 385.765 381.38 385.545C381.138 385.318 380.771 385.204 380.28 385.204C379.95 385.204 379.623 385.255 379.301 385.358C378.985 385.461 378.718 385.604 378.498 385.787L377.959 384.786C378.274 384.544 378.648 384.364 379.081 384.247C379.521 384.122 379.975 384.06 380.445 384.06C381.295 384.06 381.952 384.265 382.414 384.676C382.883 385.079 383.118 385.706 383.118 386.557V390H381.82ZM379.972 390.077C379.532 390.077 379.147 390.004 378.817 389.857C378.487 389.703 378.23 389.494 378.047 389.23C377.871 388.959 377.783 388.654 377.783 388.317C377.783 387.987 377.86 387.69 378.014 387.426C378.175 387.162 378.435 386.953 378.795 386.799C379.154 386.645 379.631 386.568 380.225 386.568H381.93V387.481H380.324C379.854 387.481 379.539 387.558 379.378 387.712C379.216 387.859 379.136 388.042 379.136 388.262C379.136 388.511 379.235 388.709 379.433 388.856C379.631 389.003 379.906 389.076 380.258 389.076C380.595 389.076 380.896 388.999 381.16 388.845C381.431 388.691 381.625 388.464 381.743 388.163L381.974 388.988C381.842 389.333 381.603 389.6 381.259 389.791C380.921 389.982 380.492 390.077 379.972 390.077ZM385.069 390V383.796C385.069 383.18 385.249 382.689 385.608 382.322C385.975 381.948 386.496 381.761 387.17 381.761C387.412 381.761 387.64 381.787 387.852 381.838C388.072 381.889 388.256 381.97 388.402 382.08L388.028 383.114C387.926 383.033 387.808 382.975 387.676 382.938C387.544 382.894 387.409 382.872 387.269 382.872C386.983 382.872 386.767 382.953 386.62 383.114C386.474 383.268 386.4 383.503 386.4 383.818V384.478L386.444 385.094V390H385.069ZM384.101 385.27V384.17H388.017V385.27H384.101ZM391.154 390.077C390.509 390.077 390.01 389.912 389.658 389.582C389.306 389.245 389.13 388.75 389.13 388.097V382.828H390.505V388.064C390.505 388.343 390.575 388.559 390.714 388.713C390.861 388.867 391.062 388.944 391.319 388.944C391.627 388.944 391.884 388.863 392.089 388.702L392.474 389.681C392.313 389.813 392.115 389.912 391.88 389.978C391.645 390.044 391.403 390.077 391.154 390.077ZM388.162 385.27V384.17H392.078V385.27H388.162ZM396.173 390.077C395.52 390.077 394.948 389.949 394.457 389.692C393.973 389.428 393.595 389.069 393.324 388.614C393.06 388.159 392.928 387.642 392.928 387.063C392.928 386.476 393.056 385.959 393.313 385.512C393.577 385.057 393.936 384.702 394.391 384.445C394.853 384.188 395.377 384.06 395.964 384.06C396.536 384.06 397.045 384.185 397.493 384.434C397.94 384.683 398.292 385.035 398.549 385.49C398.805 385.945 398.934 386.48 398.934 387.096C398.934 387.155 398.93 387.221 398.923 387.294C398.923 387.367 398.919 387.437 398.912 387.503H394.017V386.59H398.186L397.647 386.876C397.654 386.539 397.584 386.242 397.438 385.985C397.291 385.728 397.089 385.527 396.833 385.38C396.583 385.233 396.294 385.16 395.964 385.16C395.626 385.16 395.329 385.233 395.073 385.38C394.823 385.527 394.625 385.732 394.479 385.996C394.339 386.253 394.27 386.557 394.27 386.909V387.129C394.27 387.481 394.35 387.793 394.512 388.064C394.673 388.335 394.9 388.544 395.194 388.691C395.487 388.838 395.824 388.911 396.206 388.911C396.536 388.911 396.833 388.86 397.097 388.757C397.361 388.654 397.595 388.493 397.801 388.273L398.538 389.12C398.274 389.428 397.94 389.666 397.537 389.835C397.141 389.996 396.686 390.077 396.173 390.077ZM400.255 390V384.126H401.564V385.743L401.41 385.27C401.586 384.874 401.861 384.573 402.235 384.368C402.616 384.163 403.089 384.06 403.654 384.06V385.369C403.595 385.354 403.54 385.347 403.489 385.347C403.437 385.34 403.386 385.336 403.335 385.336C402.814 385.336 402.4 385.49 402.092 385.798C401.784 386.099 401.63 386.55 401.63 387.151V390H400.255ZM408.046 390V382.3H411.214C411.896 382.3 412.479 382.41 412.963 382.63C413.454 382.85 413.832 383.165 414.096 383.576C414.36 383.987 414.492 384.474 414.492 385.039C414.492 385.604 414.36 386.091 414.096 386.502C413.832 386.913 413.454 387.228 412.963 387.448C412.479 387.668 411.896 387.778 411.214 387.778H408.838L409.476 387.107V390H408.046ZM409.476 387.261L408.838 386.568H411.148C411.778 386.568 412.251 386.436 412.567 386.172C412.889 385.901 413.051 385.523 413.051 385.039C413.051 384.548 412.889 384.17 412.567 383.906C412.251 383.642 411.778 383.51 411.148 383.51H408.838L409.476 382.806V387.261ZM418.527 390.077C417.875 390.077 417.303 389.949 416.811 389.692C416.327 389.428 415.95 389.069 415.678 388.614C415.414 388.159 415.282 387.642 415.282 387.063C415.282 386.476 415.411 385.959 415.667 385.512C415.931 385.057 416.291 384.702 416.745 384.445C417.207 384.188 417.732 384.06 418.318 384.06C418.89 384.06 419.4 384.185 419.847 384.434C420.295 384.683 420.647 385.035 420.903 385.49C421.16 385.945 421.288 386.48 421.288 387.096C421.288 387.155 421.285 387.221 421.277 387.294C421.277 387.367 421.274 387.437 421.266 387.503H416.371V386.59H420.54L420.001 386.876C420.009 386.539 419.939 386.242 419.792 385.985C419.646 385.728 419.444 385.527 419.187 385.38C418.938 385.233 418.648 385.16 418.318 385.16C417.981 385.16 417.684 385.233 417.427 385.38C417.178 385.527 416.98 385.732 416.833 385.996C416.694 386.253 416.624 386.557 416.624 386.909V387.129C416.624 387.481 416.705 387.793 416.866 388.064C417.028 388.335 417.255 388.544 417.548 388.691C417.842 388.838 418.179 388.911 418.56 388.911C418.89 388.911 419.187 388.86 419.451 388.757C419.715 388.654 419.95 388.493 420.155 388.273L420.892 389.12C420.628 389.428 420.295 389.666 419.891 389.835C419.495 389.996 419.041 390.077 418.527 390.077ZM426.067 390V388.812L425.99 388.559V386.48C425.99 386.077 425.869 385.765 425.627 385.545C425.385 385.318 425.018 385.204 424.527 385.204C424.197 385.204 423.871 385.255 423.548 385.358C423.233 385.461 422.965 385.604 422.745 385.787L422.206 384.786C422.521 384.544 422.895 384.364 423.328 384.247C423.768 384.122 424.223 384.06 424.692 384.06C425.543 384.06 426.199 384.265 426.661 384.676C427.13 385.079 427.365 385.706 427.365 386.557V390H426.067ZM424.219 390.077C423.779 390.077 423.394 390.004 423.064 389.857C422.734 389.703 422.477 389.494 422.294 389.23C422.118 388.959 422.03 388.654 422.03 388.317C422.03 387.987 422.107 387.69 422.261 387.426C422.422 387.162 422.683 386.953 423.042 386.799C423.401 386.645 423.878 386.568 424.472 386.568H426.177V387.481H424.571C424.102 387.481 423.786 387.558 423.625 387.712C423.464 387.859 423.383 388.042 423.383 388.262C423.383 388.511 423.482 388.709 423.68 388.856C423.878 389.003 424.153 389.076 424.505 389.076C424.842 389.076 425.143 388.999 425.407 388.845C425.678 388.691 425.873 388.464 425.99 388.163L426.221 388.988C426.089 389.333 425.851 389.6 425.506 389.791C425.169 389.982 424.74 390.077 424.219 390.077ZM430.252 388.691L430.285 386.964L433.354 384.126H435.004L432.397 386.744L431.671 387.349L430.252 388.691ZM429.13 390V381.838H430.505V390H429.13ZM433.563 390L431.418 387.349L432.287 386.249L435.235 390H433.563Z" fill="#112D35"/>
<circle cx="5" cy="341" r="5" fill="#112D35"/>
<circle cx="535" cy="341" r="5" fill="#112D35"/>
<g style="mix-blend-mode:multiply" filter="url(#filter2_d_3_4244)">
<circle cx="270" cy="340" r="25" fill="white"/>
</g>
<circle cx="270" cy="340" r="25" fill="white"/>
<path fill-rule="evenodd" clip-rule="evenodd" d="M270 349.469L261.367 340.835C259.772 339.241 259.772 336.654 261.367 335.06C262.96 333.465 265.548 333.465 267.141 335.06L270 337.918L272.859 335.06C274.451 333.465 277.04 333.465 278.633 335.06C280.228 336.654 280.228 339.241 278.633 340.835L270 349.469Z" fill="#EC6D8F"/>
<defs>
<filter id="filter0_b_3_4244" x="-20.1828" y="95.8172" width="559.366" height="272.366" filterUnits="userSpaceOnUse" color-interpolation-filters="sRGB">
<feFlood flood-opacity="0" result="BackgroundImageFix"/>
<feGaussianBlur in="BackgroundImageFix" stdDeviation="13.5914"/>
<feComposite in2="SourceAlpha" operator="in" result="effect1_backgroundBlur_3_4244"/>
<feBlend mode="normal" in="SourceGraphic" in2="effect1_backgroundBlur_3_4244" result="shape"/>
</filter>
<filter id="filter1_b_3_4244" x="-24.1828" y="108.817" width="581.366" height="259.121" filterUnits="userSpaceOnUse" color-interpolation-filters="sRGB">
<feFlood flood-opacity="0" result="BackgroundImageFix"/>
<feGaussianBlur in="BackgroundImageFix" stdDeviation="13.5914"/>
<feComposite in2="SourceAlpha" operator="in" result="effect1_backgroundBlur_3_4244"/>
<feBlend mode="normal" in="SourceGraphic" in2="effect1_backgroundBlur_3_4244" result="shape"/>
</filter>
<filter id="filter2_d_3_4244" x="227" y="303" width="86" height="86" filterUnits="userSpaceOnUse" color-interpolation-filters="sRGB">
<feFlood flood-opacity="0" result="BackgroundImageFix"/>
<feColorMatrix in="SourceAlpha" type="matrix" values="0 0 0 0 0 0 0 0 0 0 0 0 0 0 0 0 0 0 127 0" result="hardAlpha"/>
<feOffset dy="6"/>
<feGaussianBlur stdDeviation="9"/>
<feColorMatrix type="matrix" values="0 0 0 0 0 0 0 0 0 0 0 0 0 0 0 0 0 0 0.152699 0"/>
<feBlend mode="normal" in2="BackgroundImageFix" result="effect1_dropShadow_3_4244"/>
<feBlend mode="normal" in="SourceGraphic" in2="effect1_dropShadow_3_4244" result="shape"/>
</filter>
<linearGradient id="paint0_linear_3_4244" x1="209.5" y1="145.936" x2="214.654" y2="426.224" gradientUnits="userSpaceOnUse">
<stop stop-color="#78B1FA"/>
<stop offset="1" stop-color="#BCE8ED"/>
</linearGradient>
<linearGradient id="paint1_linear_3_4244" x1="158.971" y1="490.636" x2="97.9905" y2="188.083" gradientUnits="userSpaceOnUse">
<stop stop-color="#3BBCD4"/>
<stop offset="1" stop-color="#BCE8ED"/>
</linearGradient>
<linearGradient id="paint2_linear_3_4244" x1="2.99998" y1="341" x2="224.065" y2="-2.66595" gradientUnits="userSpaceOnUse">
<stop stop-color="#AA92E1"/>
<stop offset="1" stop-color="#EEEDFF"/>
</linearGradient>
<linearGradient id="paint3_linear_3_4244" x1="270.5" y1="340.24" x2="270.5" y2="20" gradientUnits="userSpaceOnUse">
<stop/>
<stop offset="0.632375"/>
<stop offset="1" stop-opacity="0.01"/>
</linearGradient>
</defs>
</svg>
