<svg width="190" height="261" viewBox="0 0 190 261" fill="none" xmlns="http://www.w3.org/2000/svg">
<path d="M106.807 13.4386C119.298 -3.68025 144.839 -3.68026 157.33 13.4386C164.816 23.699 177.765 28.4119 190.095 25.3641C210.667 20.279 230.233 36.6968 228.797 57.8394C227.937 70.5113 234.827 82.4449 246.231 88.0358C265.259 97.3638 269.694 122.517 255.004 137.791C246.2 146.945 243.807 160.515 248.949 172.129C257.53 191.505 244.759 213.625 223.688 215.883C211.059 217.236 200.503 226.093 196.978 238.295C191.096 258.654 167.094 267.389 149.502 255.575C138.958 248.494 125.178 248.494 114.634 255.575C97.0423 267.389 73.041 258.654 67.1588 238.295C63.6333 226.093 53.0774 217.236 40.4486 215.883C19.378 213.625 6.60716 191.505 15.1873 172.129C20.3299 160.515 17.9371 146.945 9.13259 137.791C-5.55727 122.517 -1.12203 97.3638 17.9057 88.0358C29.3102 82.4449 36.2 70.5113 35.3396 57.8393C33.9041 36.6968 53.47 20.279 74.0421 25.3641C86.3722 28.4119 99.3208 23.699 106.807 13.4386Z" fill="#D0CDFE"/>
</svg>
