<svg width="478" height="436" viewBox="0 0 478 436" fill="none" xmlns="http://www.w3.org/2000/svg">
<path d="M228.311 -95.7303C255.105 -132.453 309.895 -132.453 336.689 -95.7303C352.749 -73.7201 380.526 -63.6101 406.976 -70.1482C451.106 -81.0566 493.078 -45.8377 489.999 -0.483566C488.153 26.6999 502.933 52.2993 527.397 64.2926C568.215 84.3027 577.729 138.261 546.217 171.025C527.33 190.662 522.197 219.773 533.229 244.686C551.635 286.251 524.239 333.702 479.039 338.545C451.948 341.447 429.304 360.448 421.741 386.623C409.123 430.295 357.637 449.035 319.899 423.691C297.28 408.501 267.72 408.501 245.101 423.691C207.363 449.035 155.877 430.295 143.259 386.623C135.696 360.448 113.052 341.447 85.9608 338.545C40.7609 333.702 13.3655 286.251 31.7713 244.686C42.803 219.773 37.67 190.662 18.7829 171.025C-12.7292 138.261 -3.21486 84.3027 37.6027 64.2926C62.0671 52.2993 76.847 26.6999 75.0013 -0.483566C71.9217 -45.8377 113.894 -81.0566 158.024 -70.1482C184.474 -63.6101 212.251 -73.7201 228.311 -95.7303Z" fill="#D0CDFE"/>
</svg>
